AlegreyaSans-Light.ufo
<glyph name="dollar" format="2">
  <advance width="404"/>
  <unicode hex="0024"/>
  <anchor x="188" y="0" name="bottom"/>
  <anchor x="195" y="491" name="top"/>
  <outline>
    <contour>
      <point x="241" y="482" type="line"/>
      <point x="220" y="482" type="line"/>
      <point x="180" y="7" type="line"/>
      <point x="200" y="7" type="line"/>
    </contour>
    <contour>
      <point x="200" y="7" type="line"/>
      <point x="180" y="7" type="line"/>
      <point x="169" y="-120" type="line"/>
      <point x="173" y="-124" type="line"/>
      <point x="188" y="-124" type="line"/>
    </contour>
    <contour>
      <point x="250" y="640" type="line"/>
      <point x="234" y="640" type="line"/>
      <point x="220" y="482" type="line"/>
      <point x="241" y="482" type="line"/>
      <point x="254" y="635" type="line"/>
    </contour>
    <contour>
      <point x="222" y="493" type="curve" smooth="yes"/>
      <point x="133" y="493"/>
      <point x="73" y="438"/>
      <point x="73" y="371" type="curve" smooth="yes"/>
      <point x="73" y="231"/>
      <point x="321" y="250"/>
      <point x="321" y="125" type="curve" smooth="yes"/>
      <point x="321" y="71"/>
      <point x="270" y="16"/>
      <point x="187" y="16" type="curve" smooth="yes"/>
      <point x="149" y="16"/>
      <point x="102" y="28"/>
      <point x="67" y="53" type="curve"/>
      <point x="62" y="52" type="line"/>
      <point x="61" y="33" type="line"/>
      <point x="97" y="9"/>
      <point x="146" y="-3"/>
      <point x="187" y="-3" type="curve" smooth="yes"/>
      <point x="278" y="-3"/>
      <point x="341" y="57"/>
      <point x="341" y="126" type="curve" smooth="yes"/>
      <point x="341" y="269"/>
      <point x="93" y="252"/>
      <point x="93" y="369" type="curve" smooth="yes"/>
      <point x="93" y="418"/>
      <point x="138" y="474"/>
      <point x="220" y="474" type="curve" smooth="yes"/>
      <point x="246" y="474"/>
      <point x="281" y="468"/>
      <point x="314" y="452" type="curve"/>
      <point x="320" y="453" type="line"/>
      <point x="324" y="471" type="line"/>
      <point x="285" y="488"/>
      <point x="248" y="493"/>
    </contour>
  </outline>
</glyph>
<glyph name="four" format="2">
  <advance width="457"/>
  <unicode hex="0034"/>
  <outline>
    <contour>
      <point x="312" y="491" type="line"/>
      <point x="292" y="491" type="line"/>
      <point x="32" y="119" type="line"/>
      <point x="32" y="102" type="line"/>
      <point x="35" y="98" type="line"/>
      <point x="77" y="99" type="line"/>
      <point x="346" y="99" type="line"/>
      <point x="417" y="98" type="line"/>
      <point x="421" y="115" type="line"/>
      <point x="417" y="119" type="line"/>
      <point x="56" y="119" type="line"/>
      <point x="288" y="452" type="line"/>
      <point x="292" y="452" type="line"/>
      <point x="292" y="109" type="line"/>
      <point x="292" y="-95" type="line"/>
      <point x="294" y="-98" type="line"/>
      <point x="310" y="-95" type="line"/>
      <point x="312" y="-92" type="line"/>
      <point x="312" y="111" type="line"/>
    </contour>
  </outline>
</glyph>
<glyph name="greater" format="2">
  <advance width="480"/>
  <unicode hex="003E"/>
  <outline>
    <contour>
      <point x="48" y="455" type="line"/>
      <point x="41" y="441" type="line"/>
      <point x="44" y="436" type="line"/>
      <point x="414" y="272" type="line"/>
      <point x="414" y="268" type="line"/>
      <point x="40" y="115" type="line"/>
      <point x="46" y="100" type="line"/>
      <point x="50" y="98" type="line"/>
      <point x="440" y="258" type="line"/>
      <point x="440" y="280" type="line"/>
      <point x="437" y="284" type="line"/>
    </contour>
  </outline>
</glyph>
<glyph name="H" format="2">
  <advance width="670"/>
  <unicode hex="0048"/>
  <anchor x="335" y="0" name="bottom"/>
  <anchor x="540" y="0" name="bottomright"/>
  <anchor x="335" y="319" name="center"/>
  <anchor x="335" y="637" name="top"/>
  <anchor x="20" y="637" name="topleft"/>
  <outline>
    <contour>
      <point x="560" y="637" type="line"/>
      <point x="540" y="637" type="line"/>
      <point x="540" y="195" type="line"/>
      <point x="540" y="0" type="line"/>
      <point x="560" y="0" type="line"/>
      <point x="560" y="195" type="line"/>
    </contour>
    <contour>
      <point x="130" y="637" type="line"/>
      <point x="110" y="637" type="line"/>
      <point x="110" y="195" type="line"/>
      <point x="110" y="0" type="line"/>
      <point x="130" y="0" type="line"/>
      <point x="130" y="195" type="line"/>
    </contour>
    <contour>
      <point x="124" y="334" type="line"/>
      <point x="124" y="314" type="line"/>
      <point x="328" y="314" type="line"/>
      <point x="549" y="314" type="line"/>
      <point x="549" y="334" type="line"/>
      <point x="332" y="334" type="line"/>
    </contour>
  </outline>
</glyph>
<glyph name="L" format="2">
  <advance width="398"/>
  <unicode hex="004C"/>
  <anchor x="236" y="0" name="bottom"/>
  <anchor x="119" y="637" name="top"/>
  <outline>
    <contour>
      <point x="129" y="637" type="line"/>
      <point x="109" y="637" type="line"/>
      <point x="109" y="195" type="line"/>
      <point x="109" y="0" type="line"/>
      <point x="129" y="0" type="line"/>
      <point x="129" y="195" type="line"/>
    </contour>
    <contour>
      <point x="390" y="20" type="line"/>
      <point x="120" y="20" type="line"/>
      <point x="116" y="4" type="line"/>
      <point x="120" y="0" type="line"/>
      <point x="389" y="0" type="line"/>
      <point x="393" y="16" type="line"/>
    </contour>
  </outline>
</glyph>
<glyph name="N" format="2">
  <advance width="670"/>
  <unicode hex="004E"/>
  <anchor x="330" y="0" name="bottom"/>
  <anchor x="331" y="637" name="top"/>
  <outline>
    <contour>
      <point x="560" y="638" type="line"/>
      <point x="540" y="636" type="line"/>
      <point x="538" y="42" type="line"/>
      <point x="534" y="42" type="line"/>
      <point x="130" y="637" type="line"/>
      <point x="111" y="637" type="line"/>
      <point x="110" y="190" type="line"/>
      <point x="110" y="0" type="line"/>
      <point x="130" y="0" type="line"/>
      <point x="130" y="199" type="line"/>
      <point x="131" y="595" type="line"/>
      <point x="135" y="595" type="line"/>
      <point x="539" y="0" type="line"/>
      <point x="558" y="0" type="line"/>
      <point x="559" y="176" type="line"/>
    </contour>
  </outline>
</glyph>
<glyph name="O" format="2">
  <advance width="627"/>
  <unicode hex="004F"/>
  <anchor x="314" y="0" name="bottom"/>
  <anchor x="314" y="319" name="center"/>
  <anchor x="425" y="20" name="ogonek"/>
  <anchor x="314" y="637" name="top"/>
  <anchor x="20" y="637" name="topleft"/>
  <anchor x="607" y="637" name="topright"/>
  <outline>
    <contour>
      <point x="318" y="642" type="curve"/>
      <point x="144" y="642"/>
      <point x="48" y="526"/>
      <point x="48" y="317" type="curve" smooth="yes"/>
      <point x="48" y="110"/>
      <point x="141" y="-5"/>
      <point x="308" y="-5" type="curve" smooth="yes"/>
      <point x="482" y="-5"/>
      <point x="579" y="114"/>
      <point x="579" y="329" type="curve" smooth="yes"/>
      <point x="579" y="530"/>
      <point x="486" y="642"/>
    </contour>
    <contour>
      <point x="318" y="622" type="curve" smooth="yes"/>
      <point x="473" y="622"/>
      <point x="559" y="517"/>
      <point x="559" y="329" type="curve" smooth="yes"/>
      <point x="559" y="127"/>
      <point x="469" y="15"/>
      <point x="308" y="15" type="curve" smooth="yes"/>
      <point x="154" y="15"/>
      <point x="68" y="123"/>
      <point x="68" y="317" type="curve" smooth="yes"/>
      <point x="68" y="513"/>
      <point x="157" y="622"/>
    </contour>
  </outline>
</glyph>
<glyph name="P" format="2">
  <advance width="484"/>
  <unicode hex="0050"/>
  <outline>
    <contour>
      <point x="251" y="639" type="curve"/>
      <point x="110" y="637" type="line"/>
      <point x="116" y="618" type="line"/>
      <point x="258" y="619" type="line"/>
      <point x="357" y="615"/>
      <point x="412" y="558"/>
      <point x="412" y="460" type="curve" smooth="yes"/>
      <point x="412" y="350"/>
      <point x="354" y="279"/>
      <point x="249" y="269" type="curve"/>
      <point x="120" y="269" type="line"/>
      <point x="120" y="249" type="line"/>
      <point x="219" y="249" type="line"/>
      <point x="356" y="249"/>
      <point x="432" y="324"/>
      <point x="432" y="460" type="curve" smooth="yes"/>
      <point x="432" y="575"/>
      <point x="367" y="639"/>
    </contour>
    <contour>
      <point x="130" y="637" type="line"/>
      <point x="110" y="637" type="line"/>
      <point x="110" y="195" type="line"/>
      <point x="110" y="0" type="line"/>
      <point x="130" y="0" type="line"/>
      <point x="130" y="195" type="line"/>
    </contour>
  </outline>
</glyph>
<glyph name="T" format="2">
  <advance width="475"/>
  <unicode hex="0054"/>
  <anchor x="230" y="0" name="bottom"/>
  <anchor x="242" y="319" name="center"/>
  <anchor x="242" y="637" name="top"/>
  <outline>
    <contour>
      <point x="248" y="627" type="line"/>
      <point x="228" y="627" type="line"/>
      <point x="228" y="195" type="line"/>
      <point x="228" y="0" type="line"/>
      <point x="248" y="0" type="line"/>
      <point x="248" y="195" type="line"/>
    </contour>
    <contour>
      <point x="444" y="637" type="line"/>
      <point x="32" y="637" type="line"/>
      <point x="28" y="621" type="line"/>
      <point x="31" y="617" type="line"/>
      <point x="135" y="617" type="line"/>
      <point x="342" y="617" type="line"/>
      <point x="443" y="617" type="line"/>
      <point x="447" y="633" type="line"/>
    </contour>
  </outline>
</glyph>
<glyph name="V" format="2">
  <advance width="538"/>
  <unicode hex="0056"/>
  <outline>
    <contour>
      <point x="527" y="637" type="line" smooth="yes"/>
      <point x="503" y="637" type="line"/>
      <point x="489" y="594" type="line"/>
      <point x="266" y="34" type="line"/>
      <point x="262" y="34" type="line"/>
      <point x="56" y="594" type="line"/>
      <point x="43" y="637" type="line"/>
      <point x="20" y="637" type="line"/>
      <point x="253" y="0" type="line"/>
      <point x="273" y="0" type="line"/>
    </contour>
  </outline>
</glyph>
<glyph name="bracketleft" format="2">
  <advance width="281"/>
  <unicode hex="005B"/>
  <outline>
    <contour>
      <point x="263" y="646" type="line"/>
      <point x="117" y="636" type="line"/>
      <point x="117" y="257" type="line"/>
      <point x="117" y="-123" type="line"/>
      <point x="263" y="-133" type="line"/>
      <point x="267" y="-129" type="line"/>
      <point x="267" y="-114" type="line"/>
      <point x="137" y="-105" type="line"/>
      <point x="137" y="618" type="line"/>
      <point x="267" y="627" type="line"/>
      <point x="267" y="642" type="line"/>
    </contour>
  </outline>
</glyph>
<glyph name="backslash" format="2">
  <advance width="291"/>
  <unicode hex="005C"/>
  <outline>
    <contour>
      <point x="225" y="-110" type="line"/>
      <point x="241" y="-110" type="line"/>
      <point x="244" y="-106" type="line"/>
      <point x="40" y="675" type="line"/>
      <point x="24" y="675" type="line"/>
      <point x="21" y="670" type="line"/>
    </contour>
  </outline>
</glyph>
<glyph name="c" format="2">
  <advance width="386"/>
  <unicode hex="0063"/>
  <anchor x="232" y="0" name="bottom"/>
  <anchor x="233" y="452" name="top"/>
  <outline>
    <contour>
      <point x="233" y="457" type="curve" smooth="yes"/>
      <point x="126" y="457"/>
      <point x="56" y="365"/>
      <point x="56" y="222" type="curve" smooth="yes"/>
      <point x="56" y="85"/>
      <point x="125" y="-5"/>
      <point x="232" y="-5" type="curve" smooth="yes"/>
      <point x="281" y="-5"/>
      <point x="330" y="13"/>
      <point x="364" y="38" type="curve"/>
      <point x="366" y="56" type="line"/>
      <point x="360" y="58" type="line"/>
      <point x="326" y="32"/>
      <point x="277" y="15"/>
      <point x="233" y="15" type="curve" smooth="yes"/>
      <point x="137" y="15"/>
      <point x="76" y="97"/>
      <point x="76" y="222" type="curve" smooth="yes"/>
      <point x="76" y="353"/>
      <point x="138" y="437"/>
      <point x="233" y="437" type="curve" smooth="yes"/>
      <point x="276" y="437"/>
      <point x="321" y="419"/>
      <point x="349" y="398" type="curve"/>
      <point x="355" y="398" type="line"/>
      <point x="362" y="415" type="line"/>
      <point x="329" y="440"/>
      <point x="279" y="457"/>
    </contour>
  </outline>
</glyph>
<glyph name="e" format="2">
  <advance width="446"/>
  <unicode hex="0065"/>
  <anchor x="234" y="0" name="bottom"/>
  <anchor x="374" y="36" name="ogonek"/>
  <anchor x="230" y="452" name="top"/>
  <outline>
    <contour>
      <point x="236" y="-5" type="curve" smooth="yes"/>
      <point x="286" y="-5"/>
      <point x="333" y="9"/>
      <point x="374" y="36" type="curve"/>
      <point x="377" y="56" type="line"/>
      <point x="371" y="58" type="line"/>
      <point x="337" y="31"/>
      <point x="288" y="15"/>
      <point x="238" y="15" type="curve" smooth="yes"/>
      <point x="138" y="15"/>
      <point x="76" y="94"/>
      <point x="76" y="221" type="curve" smooth="yes"/>
      <point x="76" y="352"/>
      <point x="141" y="437"/>
      <point x="241" y="437" type="curve" smooth="yes"/>
      <point x="320" y="437"/>
      <point x="369" y="384"/>
      <point x="369" y="296" type="curve"/>
      <point x="368" y="275" type="line"/>
      <point x="65" y="271" type="line"/>
      <point x="65" y="251" type="line"/>
      <point x="381" y="255" type="line"/>
      <point x="387" y="262" type="line"/>
      <point x="398" y="384"/>
      <point x="343" y="457"/>
      <point x="242" y="457" type="curve" smooth="yes"/>
      <point x="129" y="457"/>
      <point x="56" y="365"/>
      <point x="56" y="221" type="curve" smooth="yes"/>
      <point x="56" y="82"/>
      <point x="125" y="-5"/>
    </contour>
  </outline>
</glyph>
<glyph name="l" format="2">
  <advance width="230"/>
  <unicode hex="006C"/>
  <anchor x="115" y="0" name="bottom"/>
  <anchor x="115" y="680" name="top"/>
  <anchor x="210" y="452" name="topright"/>
  <outline>
    <contour>
      <point x="125" y="702" type="line"/>
      <point x="105" y="698" type="line"/>
      <point x="105" y="195" type="line"/>
      <point x="105" y="0" type="line"/>
      <point x="125" y="0" type="line"/>
      <point x="125" y="195" type="line"/>
    </contour>
  </outline>
</glyph>
<glyph name="n" format="2">
  <advance width="501"/>
  <unicode hex="006E"/>
  <anchor x="249" y="0" name="bottom"/>
  <anchor x="262" y="452" name="top"/>
  <outline>
    <contour>
      <point x="280" y="457" type="curve" smooth="yes"/>
      <point x="230" y="457"/>
      <point x="173" y="427"/>
      <point x="124" y="374" type="curve"/>
      <point x="118" y="374" type="line"/>
      <point x="119" y="340" type="line"/>
      <point x="169" y="401"/>
      <point x="228" y="437"/>
      <point x="280" y="437" type="curve" smooth="yes"/>
      <point x="350" y="437"/>
      <point x="391" y="394"/>
      <point x="391" y="320" type="curve" smooth="yes"/>
      <point x="389" y="0" type="line"/>
      <point x="411" y="0" type="line"/>
      <point x="411" y="194" type="line"/>
      <point x="411" y="321" type="line" smooth="yes"/>
      <point x="411" y="407"/>
      <point x="364" y="457"/>
    </contour>
    <contour>
      <point x="120" y="453" type="line"/>
      <point x="100" y="449" type="line"/>
      <point x="100" y="196" type="line"/>
      <point x="100" y="0" type="line"/>
      <point x="120" y="0" type="line"/>
      <point x="120" y="196" type="line"/>
    </contour>
  </outline>
</glyph>
<glyph name="o" format="2">
  <advance width="487"/>
  <unicode hex="006F"/>
  <anchor x="244" y="0" name="bottom"/>
  <anchor x="244" y="226" name="center"/>
  <anchor x="334" y="23" name="ogonek"/>
  <anchor x="243" y="452" name="top"/>
  <anchor x="467" y="452" name="topright"/>
  <outline>
    <contour>
      <point x="246" y="457" type="curve" smooth="yes"/>
      <point x="128" y="457"/>
      <point x="56" y="368"/>
      <point x="56" y="222" type="curve" smooth="yes"/>
      <point x="56" y="81"/>
      <point x="125" y="-5"/>
      <point x="239" y="-5" type="curve" smooth="yes"/>
      <point x="357" y="-5"/>
      <point x="429" y="84"/>
      <point x="429" y="230" type="curve" smooth="yes"/>
      <point x="429" y="371"/>
      <point x="360" y="457"/>
    </contour>
    <contour>
      <point x="246" y="437" type="curve" smooth="yes"/>
      <point x="347" y="437"/>
      <point x="409" y="359"/>
      <point x="409" y="230" type="curve" smooth="yes"/>
      <point x="409" y="96"/>
      <point x="345" y="15"/>
      <point x="239" y="15" type="curve" smooth="yes"/>
      <point x="138" y="15"/>
      <point x="76" y="93"/>
      <point x="76" y="222" type="curve" smooth="yes"/>
      <point x="76" y="356"/>
      <point x="140" y="437"/>
    </contour>
  </outline>
</glyph>
<glyph name="q" format="2">
  <advance width="496"/>
  <unicode hex="0071"/>
  <outline>
    <contour>
      <point x="376" y="442" type="line"/>
      <point x="343" y="449"/>
      <point x="303" y="457"/>
      <point x="264" y="457" type="curve" smooth="yes"/>
      <point x="135" y="457"/>
      <point x="56" y="370"/>
      <point x="56" y="219" type="curve" smooth="yes"/>
      <point x="56" y="76"/>
      <point x="126" y="-5"/>
      <point x="229" y="-5" type="curve" smooth="yes"/>
      <point x="287" y="-5"/>
      <point x="332" y="21"/>
      <point x="373" y="69" type="curve"/>
      <point x="376" y="69" type="line"/>
      <point x="376" y="46" type="line"/>
      <point x="376" y="-185" type="line"/>
      <point x="396" y="-185" type="line"/>
      <point x="396" y="177" type="line"/>
      <point x="396" y="452" type="line"/>
      <point x="392" y="455" type="line"/>
    </contour>
    <contour>
      <point x="267" y="437" type="curve" smooth="yes"/>
      <point x="299" y="437"/>
      <point x="335" y="431"/>
      <point x="376" y="420" type="curve"/>
      <point x="376" y="174" type="line"/>
      <point x="376" y="101" type="line"/>
      <point x="337" y="46"/>
      <point x="289" y="15"/>
      <point x="230" y="15" type="curve" smooth="yes"/>
      <point x="139" y="15"/>
      <point x="76" y="88"/>
      <point x="76" y="218" type="curve" smooth="yes"/>
      <point x="76" y="357"/>
      <point x="147" y="437"/>
    </contour>
  </outline>
</glyph>
<glyph name="r" format="2">
  <advance width="297"/>
  <unicode hex="0072"/>
  <anchor x="111" y="0" name="bottom"/>
  <anchor x="185" y="452" name="top"/>
  <outline>
    <contour>
      <point x="120" y="453" type="line"/>
      <point x="100" y="449" type="line"/>
      <point x="100" y="196" type="line"/>
      <point x="100" y="0" type="line"/>
      <point x="120" y="0" type="line"/>
      <point x="120" y="196" type="line"/>
    </contour>
    <contour>
      <point x="260" y="452" type="curve" smooth="yes"/>
      <point x="208" y="452"/>
      <point x="165" y="417"/>
      <point x="124" y="342" type="curve"/>
      <point x="118" y="342" type="line"/>
      <point x="118" y="297" type="line"/>
      <point x="165" y="390"/>
      <point x="208" y="432"/>
      <point x="255" y="432" type="curve" smooth="yes"/>
      <point x="262" y="432"/>
      <point x="272" y="431"/>
      <point x="282" y="429" type="curve"/>
      <point x="287" y="431" type="line"/>
      <point x="287" y="450" type="line"/>
      <point x="280" y="451"/>
      <point x="269" y="452"/>
    </contour>
  </outline>
</glyph>
<glyph name="t" format="2">
  <advance width="298"/>
  <unicode hex="0074"/>
  <anchor x="199" y="0" name="bottom"/>
  <anchor x="149" y="226" name="center"/>
  <anchor x="118" y="501" name="top"/>
  <anchor x="228" y="452" name="topright"/>
  <outline>
    <contour>
      <point x="200" y="-4" type="curve" smooth="yes"/>
      <point x="223" y="-4"/>
      <point x="252" y="5"/>
      <point x="280" y="21" type="curve"/>
      <point x="282" y="39" type="line"/>
      <point x="278" y="42" type="line"/>
      <point x="252" y="25"/>
      <point x="224" y="16"/>
      <point x="200" y="16" type="curve" smooth="yes"/>
      <point x="152" y="16"/>
      <point x="126" y="51"/>
      <point x="126" y="113" type="curve" smooth="yes"/>
      <point x="126" y="563" type="line"/>
      <point x="122" y="566" type="line"/>
      <point x="106" y="560" type="line"/>
      <point x="106" y="222" type="line"/>
      <point x="106" y="112" type="line" smooth="yes"/>
      <point x="106" y="38"/>
      <point x="140" y="-4"/>
    </contour>
    <contour>
      <point x="44" y="432" type="line"/>
      <point x="281" y="432" type="line"/>
      <point x="284" y="448" type="line"/>
      <point x="281" y="452" type="line"/>
      <point x="43" y="452" type="line"/>
      <point x="40" y="436" type="line"/>
    </contour>
  </outline>
</glyph>
<glyph name="v" format="2">
  <advance width="384"/>
  <unicode hex="0076"/>
  <outline>
    <contour>
      <point x="40" y="454" type="line"/>
      <point x="19" y="450" type="line"/>
      <point x="173" y="0" type="line"/>
      <point x="195" y="0" type="line"/>
      <point x="377" y="452" type="line"/>
      <point x="353" y="452" type="line"/>
      <point x="338" y="409" type="line"/>
      <point x="187" y="31" type="line"/>
      <point x="183" y="31" type="line"/>
      <point x="53" y="409" type="line"/>
    </contour>
  </outline>
</glyph>
<glyph name="z" format="2">
  <advance width="399"/>
  <unicode hex="007A"/>
  <anchor x="200" y="0" name="bottom"/>
  <anchor x="200" y="452" name="top"/>
  <outline>
    <contour>
      <point x="55" y="453" type="line"/>
      <point x="51" y="435" type="line"/>
      <point x="55" y="431" type="line"/>
      <point x="101" y="432" type="line"/>
      <point x="329" y="432" type="line"/>
      <point x="38" y="16" type="line"/>
      <point x="38" y="-1" type="line"/>
      <point x="65" y="0" type="line"/>
      <point x="298" y="0" type="line"/>
      <point x="355" y="-1" type="line"/>
      <point x="359" y="17" type="line"/>
      <point x="356" y="21" type="line"/>
      <point x="303" y="20" type="line"/>
      <point x="66" y="20" type="line"/>
      <point x="357" y="436" type="line"/>
      <point x="356" y="453" type="line"/>
      <point x="331" y="452" type="line"/>
      <point x="107" y="452" type="line"/>
    </contour>
  </outline>
</glyph>
<glyph name="yen" format="2">
  <advance width="434"/>
  <unicode hex="00A5"/>
  <anchor x="226" y="491" name="top"/>
  <outline>
    <contour>
      <point x="415" y="150" type="line"/>
      <point x="18" y="150" type="line"/>
      <point x="16" y="133" type="line"/>
      <point x="19" y="130" type="line"/>
      <point x="416" y="130" type="line"/>
      <point x="418" y="147" type="line"/>
    </contour>
    <contour>
      <point x="168" y="280" type="line"/>
      <point x="18" y="280" type="line"/>
      <point x="16" y="263" type="line"/>
      <point x="19" y="260" type="line"/>
      <point x="178" y="260" type="line"/>
    </contour>
    <contour>
      <point x="415" y="280" type="line"/>
      <point x="258" y="280" type="line"/>
      <point x="248" y="260" type="line"/>
      <point x="416" y="260" type="line"/>
      <point x="418" y="277" type="line"/>
    </contour>
    <contour>
      <point x="405" y="491" type="line" smooth="yes"/>
      <point x="380" y="491" type="line"/>
      <point x="370" y="470" type="line"/>
      <point x="218" y="217" type="line"/>
      <point x="214" y="217" type="line"/>
      <point x="74" y="470" type="line"/>
      <point x="65" y="491" type="line"/>
      <point x="40" y="491" type="line"/>
      <point x="212" y="176" type="line"/>
      <point x="220" y="176" type="line"/>
    </contour>
    <contour>
      <point x="226" y="206" type="line"/>
      <point x="206" y="206" type="line"/>
      <point x="206" y="149" type="line"/>
      <point x="206" y="0" type="line"/>
      <point x="226" y="0" type="line"/>
      <point x="226" y="149" type="line"/>
    </contour>
  </outline>
</glyph>
<glyph name="logicalnot" format="2">
  <advance width="480"/>
  <unicode hex="00AC"/>
  <outline>
    <contour>
      <point x="410" y="280" type="line"/>
      <point x="37" y="280" type="line"/>
      <point x="35" y="263" type="line"/>
      <point x="38" y="260" type="line"/>
      <point x="396" y="260" type="line"/>
      <point x="396" y="72" type="line"/>
      <point x="399" y="69" type="line"/>
      <point x="416" y="71" type="line"/>
      <point x="416" y="274" type="line"/>
    </contour>
  </outline>
</glyph>
<glyph name="softhyphen" format="2">
  <advance width="311"/>
  <unicode hex="00AD"/>
  <outline>
    <contour>
      <point x="276" y="281" type="line"/>
      <point x="31" y="248" type="line"/>
      <point x="31" y="232" type="line"/>
      <point x="35" y="228" type="line"/>
      <point x="280" y="261" type="line"/>
      <point x="280" y="277" type="line"/>
    </contour>
  </outline>
</glyph>
<glyph name="registered" format="2">
  <advance width="432"/>
  <unicode hex="00AE"/>
  <outline>
    <contour>
      <point x="217" y="702" type="curve" smooth="yes"/>
      <point x="110" y="702"/>
      <point x="40" y="632"/>
      <point x="40" y="526" type="curve" smooth="yes"/>
      <point x="40" y="419"/>
      <point x="110" y="349"/>
      <point x="217" y="349" type="curve" smooth="yes"/>
      <point x="323" y="349"/>
      <point x="393" y="419"/>
      <point x="393" y="526" type="curve" smooth="yes"/>
      <point x="393" y="632"/>
      <point x="323" y="702"/>
    </contour>
    <contour>
      <point x="181" y="629" type="line"/>
      <point x="159" y="629" type="line"/>
      <point x="159" y="495" type="line"/>
      <point x="159" y="437" type="line"/>
      <point x="181" y="437" type="line"/>
      <point x="180" y="497" type="line"/>
    </contour>
    <contour>
      <point x="233" y="520" type="curve"/>
      <point x="209" y="520" type="line"/>
      <point x="227" y="492"/>
      <point x="244" y="464"/>
      <point x="266" y="436" type="curve"/>
      <point x="269" y="434" type="line"/>
      <point x="274" y="435"/>
      <point x="285" y="436"/>
      <point x="290" y="438" type="curve"/>
      <point x="290" y="441" type="line"/>
      <point x="269" y="467"/>
      <point x="250" y="493"/>
    </contour>
    <contour>
      <point x="217" y="683" type="curve" smooth="yes"/>
      <point x="311" y="683"/>
      <point x="374" y="621"/>
      <point x="374" y="526" type="curve" smooth="yes"/>
      <point x="374" y="431"/>
      <point x="311" y="368"/>
      <point x="217" y="368" type="curve" smooth="yes"/>
      <point x="122" y="368"/>
      <point x="59" y="431"/>
      <point x="59" y="526" type="curve" smooth="yes"/>
      <point x="59" y="621"/>
      <point x="122" y="683"/>
    </contour>
    <contour>
      <point x="218" y="629" type="curve"/>
      <point x="159" y="629" type="line"/>
      <point x="171" y="610" type="line"/>
      <point x="213" y="611" type="line"/>
      <point x="241" y="610"/>
      <point x="256" y="596"/>
      <point x="256" y="572" type="curve" smooth="yes"/>
      <point x="256" y="551"/>
      <point x="244" y="536"/>
      <point x="220" y="528" type="curve"/>
      <point x="168" y="530" type="line"/>
      <point x="168" y="510" type="line"/>
      <point x="221" y="510" type="line"/>
      <point x="258" y="517"/>
      <point x="278" y="543"/>
      <point x="278" y="574" type="curve" smooth="yes"/>
      <point x="278" y="611"/>
      <point x="257" y="629"/>
    </contour>
  </outline>
</glyph>
<glyph name="paragraph" format="2">
  <advance width="447"/>
  <unicode hex="00B6"/>
  <outline>
    <contour>
      <point x="407" y="637" type="line"/>
      <point x="243" y="637" type="line" smooth="yes"/>
      <point x="120" y="637"/>
      <point x="52" y="570"/>
      <point x="52" y="455" type="curve" smooth="yes"/>
      <point x="52" y="336"/>
      <point x="124" y="269"/>
      <point x="245" y="249" type="curve"/>
      <point x="249" y="269" type="line"/>
      <point x="135" y="289"/>
      <point x="72" y="353"/>
      <point x="72" y="455" type="curve" smooth="yes"/>
      <point x="72" y="553"/>
      <point x="131" y="612"/>
      <point x="236" y="617" type="curve"/>
      <point x="307" y="617" type="line"/>
      <point x="307" y="158" type="line"/>
      <point x="307" y="118" type="line" smooth="yes"/>
      <point x="307" y="54"/>
      <point x="271" y="0"/>
      <point x="193" y="-51" type="curve"/>
      <point x="193" y="-57" type="line"/>
      <point x="203" y="-68" type="line"/>
      <point x="288" y="-12"/>
      <point x="327" y="48"/>
      <point x="327" y="122" type="curve" smooth="yes"/>
      <point x="327" y="168" type="line"/>
      <point x="327" y="617" type="line"/>
      <point x="408" y="617" type="line"/>
      <point x="411" y="633" type="line"/>
    </contour>
  </outline>
</glyph>
<glyph name="Thorn" format="2">
  <advance width="487"/>
  <unicode hex="00DE"/>
  <outline>
    <contour>
      <point x="251" y="516" type="curve"/>
      <point x="110" y="514" type="line"/>
      <point x="116" y="495" type="line"/>
      <point x="258" y="496" type="line"/>
      <point x="357" y="492"/>
      <point x="412" y="435"/>
      <point x="412" y="337" type="curve" smooth="yes"/>
      <point x="412" y="227"/>
      <point x="354" y="159"/>
      <point x="249" y="146" type="curve"/>
      <point x="120" y="146" type="line"/>
      <point x="120" y="126" type="line"/>
      <point x="219" y="126" type="line"/>
      <point x="356" y="126"/>
      <point x="432" y="201"/>
      <point x="432" y="337" type="curve" smooth="yes"/>
      <point x="432" y="452"/>
      <point x="367" y="516"/>
    </contour>
    <contour>
      <point x="130" y="637" type="line"/>
      <point x="110" y="637" type="line"/>
      <point x="110" y="195" type="line"/>
      <point x="110" y="0" type="line"/>
      <point x="130" y="0" type="line"/>
      <point x="130" y="195" type="line"/>
    </contour>
  </outline>
</glyph>
<glyph name="ae" format="2">
  <advance width="662"/>
  <unicode hex="00E6"/>
  <anchor x="337" y="452" name="top"/>
  <outline>
    <contour>
      <point x="311" y="243" type="line"/>
      <point x="311" y="222" type="line"/>
      <point x="619" y="294" type="line"/>
      <point x="624" y="301" type="line"/>
      <point x="620" y="315" type="line"/>
    </contour>
    <contour>
      <point x="311" y="222" type="line"/>
      <point x="311" y="243" type="line"/>
      <point x="133" y="202" type="line" smooth="yes"/>
      <point x="81" y="190"/>
      <point x="51" y="163"/>
      <point x="51" y="108" type="curve" smooth="yes"/>
      <point x="51" y="42"/>
      <point x="92" y="-5"/>
      <point x="164" y="-5" type="curve"/>
      <point x="217" y="-3"/>
      <point x="260" y="28"/>
      <point x="322" y="106" type="curve"/>
      <point x="349" y="35"/>
      <point x="401" y="-5"/>
      <point x="475" y="-5" type="curve" smooth="yes"/>
      <point x="521" y="-5"/>
      <point x="568" y="11"/>
      <point x="607" y="39" type="curve"/>
      <point x="610" y="59" type="line"/>
      <point x="604" y="61" type="line"/>
      <point x="572" y="33"/>
      <point x="524" y="15"/>
      <point x="477" y="15" type="curve" smooth="yes"/>
      <point x="377" y="15"/>
      <point x="323" y="95"/>
      <point x="323" y="231" type="curve" smooth="yes"/>
      <point x="323" y="266" type="line" smooth="yes"/>
      <point x="323" y="357"/>
      <point x="391" y="437"/>
      <point x="480" y="437" type="curve" smooth="yes"/>
      <point x="551" y="437"/>
      <point x="597" y="386"/>
      <point x="603" y="305" type="curve"/>
      <point x="624" y="301" type="line"/>
      <point x="618" y="399"/>
      <point x="565" y="457"/>
      <point x="478" y="457" type="curve" smooth="yes"/>
      <point x="412" y="457"/>
      <point x="361" y="423"/>
      <point x="323" y="348" type="curve"/>
      <point x="322" y="418"/>
      <point x="283" y="457"/>
      <point x="214" y="457" type="curve" smooth="yes"/>
      <point x="163" y="457"/>
      <point x="114" y="435"/>
      <point x="61" y="389" type="curve"/>
      <point x="66" y="374" type="line"/>
      <point x="72" y="372" type="line"/>
      <point x="123" y="416"/>
      <point x="168" y="437"/>
      <point x="212" y="437" type="curve" smooth="yes"/>
      <point x="269" y="437"/>
      <point x="304" y="402"/>
      <point x="304" y="340" type="curve" smooth="yes"/>
      <point x="304" y="229" type="line" smooth="yes"/>
      <point x="304" y="187"/>
      <point x="307" y="163"/>
      <point x="315" y="126" type="curve"/>
      <point x="257" y="50"/>
      <point x="214" y="15"/>
      <point x="163" y="15" type="curve" smooth="yes"/>
      <point x="105" y="15"/>
      <point x="71" y="55"/>
      <point x="71" y="108" type="curve" smooth="yes"/>
      <point x="71" y="147"/>
      <point x="89" y="170"/>
      <point x="138" y="182" type="curve" smooth="yes"/>
    </contour>
  </outline>
</glyph>
<glyph name="Hbar" format="2">
  <advance width="700"/>
  <unicode hex="0126"/>
  <anchor x="350" y="0" name="bottom"/>
  <anchor x="350" y="319" name="center"/>
  <anchor x="350" y="637" name="top"/>
  <anchor x="35" y="637" name="topleft"/>
  <outline>
    <contour>
      <point x="641" y="504" type="line"/>
      <point x="57" y="504" type="line"/>
      <point x="55" y="487" type="line"/>
      <point x="59" y="484" type="line"/>
      <point x="643" y="484" type="line"/>
      <point x="645" y="501" type="line"/>
    </contour>
    <contour>
      <point x="575" y="637" type="line"/>
      <point x="555" y="637" type="line"/>
      <point x="555" y="195" type="line"/>
      <point x="555" y="0" type="line"/>
      <point x="575" y="0" type="line"/>
      <point x="575" y="195" type="line"/>
    </contour>
    <contour>
      <point x="145" y="637" type="line"/>
      <point x="125" y="637" type="line"/>
      <point x="125" y="195" type="line"/>
      <point x="125" y="0" type="line"/>
      <point x="145" y="0" type="line"/>
      <point x="145" y="195" type="line"/>
    </contour>
    <contour>
      <point x="139" y="334" type="line"/>
      <point x="139" y="314" type="line"/>
      <point x="343" y="314" type="line"/>
      <point x="564" y="314" type="line"/>
      <point x="564" y="334" type="line"/>
      <point x="347" y="334" type="line"/>
    </contour>
  </outline>
</glyph>
<glyph name="hbar" format="2">
  <advance width="495"/>
  <unicode hex="0127"/>
  <anchor x="242" y="0" name="bottom"/>
  <anchor x="244" y="226" name="center"/>
  <anchor x="104" y="640" name="top"/>
  <anchor x="199" y="452" name="topright"/>
  <outline>
    <contour>
      <point x="383" y="0" type="line"/>
      <point x="403" y="0" type="line"/>
      <point x="404" y="194" type="line"/>
      <point x="405" y="321" type="line" smooth="yes"/>
      <point x="406" y="407"/>
      <point x="358" y="457"/>
      <point x="274" y="457" type="curve" smooth="yes"/>
      <point x="224" y="457"/>
      <point x="167" y="427"/>
      <point x="118" y="374" type="curve"/>
      <point x="112" y="374" type="line"/>
      <point x="113" y="340" type="line"/>
      <point x="163" y="401"/>
      <point x="222" y="437"/>
      <point x="274" y="437" type="curve" smooth="yes"/>
      <point x="344" y="437"/>
      <point x="385" y="394"/>
      <point x="385" y="320" type="curve" smooth="yes"/>
    </contour>
    <contour>
      <point x="94" y="0" type="line"/>
      <point x="114" y="0" type="line"/>
      <point x="114" y="195" type="line"/>
      <point x="114" y="702" type="line"/>
      <point x="94" y="698" type="line"/>
      <point x="94" y="195" type="line"/>
    </contour>
    <contour>
      <point x="22" y="556" type="line"/>
      <point x="276" y="556" type="line"/>
      <point x="278" y="573" type="line"/>
      <point x="275" y="576" type="line"/>
      <point x="21" y="576" type="line"/>
      <point x="19" y="559" type="line"/>
    </contour>
  </outline>
</glyph>
<glyph name="idotless" format="2">
  <advance width="222"/>
  <unicode hex="0131"/>
  <anchor x="111" y="0" name="bottom"/>
  <anchor x="121" y="0" name="ogonek"/>
  <anchor x="111" y="452" name="top"/>
  <outline>
    <contour>
      <point x="101" y="0" type="line"/>
      <point x="121" y="0" type="line"/>
      <point x="121" y="196" type="line"/>
      <point x="121" y="453" type="line"/>
      <point x="101" y="449" type="line"/>
      <point x="101" y="196" type="line"/>
    </contour>
  </outline>
</glyph>
<glyph name="kgreenlandic" format="2">
  <advance width="412"/>
  <unicode hex="0138"/>
  <anchor x="206" y="0" name="bottom"/>
  <anchor x="199" y="10" name="ogonek"/>
  <anchor x="206" y="452" name="top"/>
  <outline>
    <contour>
      <point x="386" y="452" type="line"/>
      <point x="356" y="452" type="line"/>
      <point x="327" y="418" type="line"/>
      <point x="149" y="243" type="line"/>
      <point x="149" y="238" type="line"/>
      <point x="225" y="154"/>
      <point x="304" y="72"/>
      <point x="384" y="-6" type="curve"/>
      <point x="388" y="-7" type="line"/>
      <point x="393" y="-5"/>
      <point x="399" y="-3"/>
      <point x="402" y="1" type="curve"/>
      <point x="402" y="5" type="line"/>
      <point x="325" y="78"/>
      <point x="247" y="159"/>
      <point x="175" y="241" type="curve"/>
    </contour>
    <contour>
      <point x="100" y="0" type="line"/>
      <point x="120" y="0" type="line"/>
      <point x="120" y="196" type="line"/>
      <point x="120" y="453" type="line"/>
      <point x="100" y="449" type="line"/>
      <point x="100" y="196" type="line"/>
    </contour>
  </outline>
</glyph>
<glyph name="ldot" format="2">
  <advance width="230"/>
  <unicode hex="0140"/>
  <anchor x="115" y="0" name="bottom"/>
  <anchor x="115" y="680" name="top"/>
  <anchor x="210" y="452" name="topright"/>
  <outline>
    <contour>
      <point x="176" y="-78" type="move"/>
    </contour>
    <contour>
      <point x="125" y="702" type="line"/>
      <point x="105" y="698" type="line"/>
      <point x="105" y="195" type="line"/>
      <point x="105" y="0" type="line"/>
      <point x="125" y="0" type="line"/>
      <point x="125" y="195" type="line"/>
    </contour>
    <contour>
      <point x="227" y="287" type="curve" smooth="yes"/>
      <point x="215" y="287"/>
      <point x="207" y="279"/>
      <point x="207" y="267" type="curve" smooth="yes"/>
      <point x="207" y="255"/>
      <point x="215" y="247"/>
      <point x="227" y="247" type="curve" smooth="yes"/>
      <point x="239" y="247"/>
      <point x="247" y="255"/>
      <point x="247" y="267" type="curve" smooth="yes"/>
      <point x="247" y="279"/>
      <point x="239" y="287"/>
    </contour>
  </outline>
</glyph>
<glyph name="Lslash" format="2">
  <advance width="408"/>
  <unicode hex="0141"/>
  <anchor x="246" y="0" name="bottom"/>
  <anchor x="129" y="637" name="top"/>
  <outline>
    <contour>
      <point x="299" y="454" type="line"/>
      <point x="22" y="304" type="line"/>
      <point x="28" y="289" type="line"/>
      <point x="33" y="286" type="line"/>
      <point x="310" y="437" type="line"/>
      <point x="304" y="452" type="line"/>
    </contour>
    <contour>
      <point x="139" y="637" type="line"/>
      <point x="119" y="637" type="line"/>
      <point x="119" y="195" type="line"/>
      <point x="119" y="0" type="line"/>
      <point x="139" y="0" type="line"/>
      <point x="139" y="195" type="line"/>
    </contour>
    <contour>
      <point x="400" y="20" type="line"/>
      <point x="130" y="20" type="line"/>
      <point x="126" y="4" type="line"/>
      <point x="130" y="0" type="line"/>
      <point x="399" y="0" type="line"/>
      <point x="403" y="16" type="line"/>
    </contour>
  </outline>
</glyph>
<glyph name="Tbar" format="2">
  <advance width="475"/>
  <unicode hex="0166"/>
  <anchor x="230" y="0" name="bottom"/>
  <anchor x="242" y="319" name="center"/>
  <anchor x="242" y="637" name="top"/>
  <outline>
    <contour>
      <point x="352" y="350" type="line"/>
      <point x="130" y="350" type="line"/>
      <point x="128" y="333" type="line"/>
      <point x="131" y="330" type="line"/>
      <point x="353" y="330" type="line"/>
      <point x="355" y="347" type="line"/>
    </contour>
    <contour>
      <point x="248" y="627" type="line"/>
      <point x="228" y="627" type="line"/>
      <point x="228" y="195" type="line"/>
      <point x="228" y="0" type="line"/>
      <point x="248" y="0" type="line"/>
      <point x="248" y="195" type="line"/>
    </contour>
    <contour>
      <point x="444" y="637" type="line"/>
      <point x="32" y="637" type="line"/>
      <point x="28" y="621" type="line"/>
      <point x="31" y="617" type="line"/>
      <point x="135" y="617" type="line"/>
      <point x="342" y="617" type="line"/>
      <point x="443" y="617" type="line"/>
      <point x="447" y="633" type="line"/>
    </contour>
  </outline>
</glyph>
<glyph name="tbar" format="2">
  <advance width="302"/>
  <unicode hex="0167"/>
  <anchor x="201" y="0" name="bottom"/>
  <anchor x="151" y="226" name="center"/>
  <anchor x="120" y="545" name="top"/>
  <anchor x="230" y="452" name="topright"/>
  <outline>
    <contour>
      <point x="265" y="284" type="line"/>
      <point x="43" y="284" type="line"/>
      <point x="41" y="267" type="line"/>
      <point x="44" y="264" type="line"/>
      <point x="266" y="264" type="line"/>
      <point x="268" y="281" type="line"/>
    </contour>
    <contour>
      <point x="202" y="-4" type="curve" smooth="yes"/>
      <point x="225" y="-4"/>
      <point x="254" y="5"/>
      <point x="282" y="21" type="curve"/>
      <point x="284" y="39" type="line"/>
      <point x="280" y="42" type="line"/>
      <point x="254" y="25"/>
      <point x="226" y="16"/>
      <point x="202" y="16" type="curve" smooth="yes"/>
      <point x="154" y="16"/>
      <point x="128" y="51"/>
      <point x="128" y="113" type="curve" smooth="yes"/>
      <point x="128" y="563" type="line"/>
      <point x="124" y="566" type="line"/>
      <point x="108" y="560" type="line"/>
      <point x="108" y="222" type="line"/>
      <point x="108" y="112" type="line" smooth="yes"/>
      <point x="108" y="38"/>
      <point x="142" y="-4"/>
    </contour>
    <contour>
      <point x="46" y="432" type="line"/>
      <point x="283" y="432" type="line"/>
      <point x="286" y="448" type="line"/>
      <point x="283" y="452" type="line"/>
      <point x="45" y="452" type="line"/>
      <point x="42" y="436" type="line"/>
    </contour>
  </outline>
</glyph>
<glyph name="Ohorn" format="2">
  <advance width="630"/>
  <unicode hex="01A0"/>
  <anchor x="314" y="637" name="top"/>
  <outline>
    <contour>
      <point x="309" y="-5" type="curve" smooth="yes"/>
      <point x="481" y="-5"/>
      <point x="579" y="115"/>
      <point x="579" y="326" type="curve" smooth="yes"/>
      <point x="579" y="457"/>
      <point x="542" y="549"/>
      <point x="471" y="596" type="curve"/>
      <point x="471" y="588" type="line"/>
      <point x="527" y="582"/>
      <point x="565" y="610"/>
      <point x="565" y="657" type="curve" smooth="yes"/>
      <point x="565" y="692"/>
      <point x="544" y="735"/>
      <point x="527" y="735" type="curve" smooth="yes"/>
      <point x="523" y="735"/>
      <point x="520" y="733"/>
      <point x="515" y="730" type="curve"/>
      <point x="513" y="725" type="line"/>
      <point x="533" y="703"/>
      <point x="545" y="678"/>
      <point x="545" y="656" type="curve" smooth="yes"/>
      <point x="545" y="627"/>
      <point x="520" y="607"/>
      <point x="488" y="607" type="curve" smooth="yes"/>
      <point x="446" y="607"/>
      <point x="405" y="642"/>
      <point x="312" y="642" type="curve" smooth="yes"/>
      <point x="144" y="642"/>
      <point x="48" y="523"/>
      <point x="48" y="315" type="curve" smooth="yes"/>
      <point x="48" y="110"/>
      <point x="141" y="-5"/>
    </contour>
    <contour>
      <point x="309" y="15" type="curve" smooth="yes"/>
      <point x="154" y="15"/>
      <point x="68" y="123"/>
      <point x="68" y="316" type="curve" smooth="yes"/>
      <point x="68" y="513"/>
      <point x="157" y="622"/>
      <point x="317" y="622" type="curve" smooth="yes"/>
      <point x="474" y="622"/>
      <point x="559" y="518"/>
      <point x="559" y="326" type="curve" smooth="yes"/>
      <point x="559" y="128"/>
      <point x="468" y="15"/>
    </contour>
  </outline>
</glyph>
<glyph name="ohorn" format="2">
  <advance width="513"/>
  <unicode hex="01A1"/>
  <anchor x="243" y="452" name="top"/>
  <outline>
    <contour>
      <point x="427" y="578" type="curve" smooth="yes"/>
      <point x="424" y="578"/>
      <point x="420" y="577"/>
      <point x="414" y="573" type="curve"/>
      <point x="412" y="568" type="line"/>
      <point x="434" y="545"/>
      <point x="446" y="520"/>
      <point x="446" y="497" type="curve" smooth="yes"/>
      <point x="446" y="458"/>
      <point x="417" y="435"/>
      <point x="371" y="435" type="curve" smooth="yes"/>
      <point x="327" y="435"/>
      <point x="304" y="457"/>
      <point x="246" y="457" type="curve" smooth="yes"/>
      <point x="128" y="457"/>
      <point x="56" y="367"/>
      <point x="56" y="222" type="curve" smooth="yes"/>
      <point x="56" y="80"/>
      <point x="125" y="-5"/>
      <point x="240" y="-5" type="curve" smooth="yes"/>
      <point x="357" y="-5"/>
      <point x="429" y="84"/>
      <point x="429" y="229" type="curve"/>
      <point x="429" y="319"/>
      <point x="403" y="383"/>
      <point x="350" y="424" type="curve"/>
      <point x="337" y="417" type="line"/>
      <point x="415" y="406"/>
      <point x="466" y="440"/>
      <point x="466" y="502" type="curve" smooth="yes"/>
      <point x="466" y="535"/>
      <point x="444" y="578"/>
    </contour>
    <contour>
      <point x="245" y="437" type="curve" smooth="yes"/>
      <point x="348" y="437"/>
      <point x="409" y="360"/>
      <point x="409" y="230" type="curve" smooth="yes"/>
      <point x="409" y="97"/>
      <point x="345" y="15"/>
      <point x="240" y="15" type="curve" smooth="yes"/>
      <point x="137" y="15"/>
      <point x="76" y="92"/>
      <point x="76" y="222" type="curve" smooth="yes"/>
      <point x="76" y="355"/>
      <point x="140" y="437"/>
    </contour>
  </outline>
</glyph>
<glyph name="Ezh" format="2">
  <advance width="488"/>
  <unicode hex="01B7"/>
  <anchor x="228" y="0" name="bottom"/>
  <anchor x="223" y="637" name="top"/>
  <outline>
    <contour>
      <point x="213" y="-7" type="curve" smooth="yes"/>
      <point x="331" y="-7"/>
      <point x="417" y="71"/>
      <point x="417" y="175" type="curve" smooth="yes"/>
      <point x="417" y="281"/>
      <point x="325" y="342"/>
      <point x="184" y="342" type="curve"/>
      <point x="173" y="337" type="line"/>
      <point x="173" y="325" type="line"/>
      <point x="176" y="322" type="line"/>
      <point x="185" y="322" type="line" smooth="yes"/>
      <point x="317" y="322"/>
      <point x="397" y="268"/>
      <point x="397" y="175" type="curve" smooth="yes"/>
      <point x="397" y="82"/>
      <point x="319" y="13"/>
      <point x="211" y="13" type="curve" smooth="yes"/>
      <point x="151" y="13"/>
      <point x="94" y="34"/>
      <point x="56" y="71" type="curve"/>
      <point x="51" y="70" type="line"/>
      <point x="44" y="55" type="line"/>
      <point x="84" y="16"/>
      <point x="148" y="-7"/>
    </contour>
    <contour>
      <point x="173" y="337" type="line"/>
      <point x="197" y="337" type="line"/>
      <point x="408" y="620" type="line"/>
      <point x="408" y="638" type="line"/>
      <point x="372" y="637" type="line"/>
      <point x="113" y="637" type="line"/>
      <point x="49" y="638" type="line"/>
      <point x="46" y="621" type="line"/>
      <point x="50" y="616" type="line"/>
      <point x="107" y="617" type="line"/>
      <point x="391" y="617" type="line"/>
      <point x="387" y="624" type="line"/>
    </contour>
  </outline>
</glyph>
<glyph name="Aringacute" format="2">
  <advance width="554"/>
  <unicode hex="01FA"/>
  <anchor x="285" y="540" name="_top"/>
  <anchor x="305" y="855" name="top"/>
  <outline>
    <contour>
      <point x="294" y="634" type="line"/>
      <point x="272" y="634" type="line"/>
      <point x="19" y="0" type="line" smooth="yes"/>
      <point x="43" y="0" type="line"/>
      <point x="57" y="43" type="line"/>
      <point x="280" y="603" type="line"/>
      <point x="284" y="603" type="line"/>
      <point x="490" y="43" type="line"/>
      <point x="503" y="0" type="line"/>
      <point x="526" y="0" type="line"/>
    </contour>
    <contour>
      <point x="432" y="233" type="line"/>
      <point x="273" y="233" type="line"/>
      <point x="120" y="233" type="line"/>
      <point x="115" y="213" type="line"/>
      <point x="269" y="213" type="line"/>
      <point x="438" y="213" type="line"/>
    </contour>
    <contour>
      <point x="308" y="297" type="move"/>
    </contour>
    <contour>
      <point x="283" y="756" type="curve" smooth="yes"/>
      <point x="241" y="756"/>
      <point x="213" y="726"/>
      <point x="213" y="687" type="curve" smooth="yes"/>
      <point x="213" y="643"/>
      <point x="248" y="617"/>
      <point x="283" y="617" type="curve" smooth="yes"/>
      <point x="318" y="617"/>
      <point x="354" y="642"/>
      <point x="354" y="686" type="curve" smooth="yes"/>
      <point x="354" y="721"/>
      <point x="329" y="756"/>
    </contour>
    <contour>
      <point x="283" y="736" type="curve" smooth="yes"/>
      <point x="317" y="736"/>
      <point x="334" y="713"/>
      <point x="334" y="686" type="curve" smooth="yes"/>
      <point x="334" y="654"/>
      <point x="310" y="637"/>
      <point x="283" y="637" type="curve" smooth="yes"/>
      <point x="256" y="637"/>
      <point x="233" y="655"/>
      <point x="233" y="687" type="curve" smooth="yes"/>
      <point x="233" y="716"/>
      <point x="252" y="736"/>
    </contour>
    <contour>
      <point x="395.104" y="854.863" type="line"/>
      <point x="323.308" y="827.932"/>
      <point x="263.102" y="809.111"/>
      <point x="205.388" y="792.897" type="curve"/>
      <point x="209.673" y="776.904" type="line"/>
      <point x="214.076" y="773.079" type="line"/>
      <point x="277.411" y="792.363"/>
      <point x="337.617" y="811.184"/>
      <point x="401.648" y="834.408" type="curve"/>
      <point x="404.488" y="838.985" type="line"/>
      <point x="399.681" y="852.023" type="line"/>
    </contour>
  </outline>
</glyph>
<glyph name="ringhalfleft" format="2">
  <advance width="249"/>
  <unicode hex="02BF"/>
  <outline>
    <contour>
      <point x="165" y="628" type="line"/>
      <point x="121" y="628"/>
      <point x="90" y="599"/>
      <point x="90" y="559" type="curve" smooth="yes"/>
      <point x="90" y="517"/>
      <point x="120" y="489"/>
      <point x="165" y="489" type="curve"/>
      <point x="165" y="509" type="line"/>
      <point x="130" y="509"/>
      <point x="110" y="528"/>
      <point x="110" y="559" type="curve" smooth="yes"/>
      <point x="110" y="589"/>
      <point x="131" y="608"/>
      <point x="165" y="608" type="curve"/>
    </contour>
  </outline>
</glyph>
<glyph name="gravecomb" format="2">
  <unicode hex="0300"/>
  <anchor x="195.5" y="452" name="_top"/>
  <anchor x="196" y="669" name="top"/>
  <outline>
    <contour>
      <point x="130" y="669" type="curve"/>
      <point x="125" y="668" type="line"/>
      <point x="115" y="658" type="line"/>
      <point x="116" y="653" type="line"/>
      <point x="164" y="605"/>
      <point x="210" y="562"/>
      <point x="260" y="518" type="curve"/>
      <point x="265" y="519" type="line"/>
      <point x="276" y="532" type="line"/>
      <point x="230" y="571"/>
      <point x="184" y="614"/>
    </contour>
  </outline>
</glyph>
<glyph name="macroncomb" format="2">
  <unicode hex="0304"/>
  <anchor x="195" y="452" name="_top"/>
  <anchor x="195" y="597" name="top"/>
  <outline>
    <contour>
      <point x="338" y="607" type="line"/>
      <point x="51" y="607" type="line"/>
      <point x="49" y="590" type="line"/>
      <point x="52" y="587" type="line"/>
      <point x="339" y="587" type="line"/>
      <point x="341" y="604" type="line"/>
    </contour>
  </outline>
</glyph>
<glyph name="dieresiscomb" format="2">
  <unicode hex="0308"/>
  <anchor x="194" y="452" name="_top"/>
  <anchor x="194" y="595" name="top"/>
  <outline>
    <contour>
      <point x="124" y="615" type="curve" smooth="yes"/>
      <point x="112" y="615"/>
      <point x="104" y="607"/>
      <point x="104" y="595" type="curve" smooth="yes"/>
      <point x="104" y="583"/>
      <point x="112" y="575"/>
      <point x="124" y="575" type="curve" smooth="yes"/>
      <point x="136" y="575"/>
      <point x="144" y="583"/>
      <point x="144" y="595" type="curve" smooth="yes"/>
      <point x="144" y="607"/>
      <point x="136" y="615"/>
    </contour>
    <contour>
      <point x="264" y="615" type="curve" smooth="yes"/>
      <point x="252" y="615"/>
      <point x="244" y="607"/>
      <point x="244" y="595" type="curve" smooth="yes"/>
      <point x="244" y="583"/>
      <point x="252" y="575"/>
      <point x="264" y="575" type="curve" smooth="yes"/>
      <point x="276" y="575"/>
      <point x="284" y="583"/>
      <point x="284" y="595" type="curve" smooth="yes"/>
      <point x="284" y="607"/>
      <point x="276" y="615"/>
    </contour>
  </outline>
</glyph>
<glyph name="hookabovecomb" format="2">
  <unicode hex="0309"/>
  <anchor x="131" y="511" name="_custom1"/>
  <anchor x="129" y="452" name="_top"/>
  <anchor x="135" y="677" name="top"/>
  <outline>
    <contour>
      <point x="131" y="511" type="line"/>
      <point x="148" y="518" type="line"/>
      <point x="132" y="547" type="line"/>
      <point x="163" y="570"/>
      <point x="180" y="592"/>
      <point x="180" y="612" type="curve" smooth="yes"/>
      <point x="180" y="633"/>
      <point x="162" y="650"/>
      <point x="136" y="650" type="curve" smooth="yes"/>
      <point x="117" y="650"/>
      <point x="94" y="640"/>
      <point x="72" y="621" type="curve"/>
      <point x="80" y="607" type="line"/>
      <point x="98" y="622"/>
      <point x="118" y="630"/>
      <point x="134" y="630" type="curve" smooth="yes"/>
      <point x="150" y="630"/>
      <point x="160" y="622"/>
      <point x="160" y="610" type="curve" smooth="yes"/>
      <point x="160" y="595"/>
      <point x="142" y="574"/>
      <point x="109" y="552" type="curve"/>
    </contour>
  </outline>
</glyph>
<glyph name="ringcomb" format="2">
  <unicode hex="030A"/>
  <anchor x="195" y="452" name="_top"/>
  <anchor x="194" y="668" name="top"/>
  <outline>
    <contour>
      <point x="193" y="668" type="curve" smooth="yes"/>
      <point x="151" y="668"/>
      <point x="123" y="638"/>
      <point x="123" y="599" type="curve" smooth="yes"/>
      <point x="123" y="555"/>
      <point x="158" y="529"/>
      <point x="193" y="529" type="curve" smooth="yes"/>
      <point x="228" y="529"/>
      <point x="264" y="554"/>
      <point x="264" y="598" type="curve" smooth="yes"/>
      <point x="264" y="633"/>
      <point x="239" y="668"/>
    </contour>
    <contour>
      <point x="193" y="648" type="curve" smooth="yes"/>
      <point x="227" y="648"/>
      <point x="244" y="625"/>
      <point x="244" y="598" type="curve" smooth="yes"/>
      <point x="244" y="566"/>
      <point x="220" y="549"/>
      <point x="193" y="549" type="curve" smooth="yes"/>
      <point x="166" y="549"/>
      <point x="143" y="567"/>
      <point x="143" y="599" type="curve" smooth="yes"/>
      <point x="143" y="628"/>
      <point x="162" y="648"/>
    </contour>
  </outline>
</glyph>
<glyph name="caroncomb" format="2">
  <unicode hex="030C"/>
  <anchor x="195" y="452" name="_top"/>
  <anchor x="195" y="658" name="top"/>
  <outline>
    <contour>
      <point x="296" y="658" type="line"/>
      <point x="291" y="658" type="line"/>
      <point x="256" y="619"/>
      <point x="226" y="582"/>
      <point x="195" y="541" type="curve"/>
      <point x="164" y="582"/>
      <point x="134" y="619"/>
      <point x="99" y="658" type="curve"/>
      <point x="94" y="658" type="line"/>
      <point x="85" y="646" type="line"/>
      <point x="118" y="609"/>
      <point x="149" y="569"/>
      <point x="186" y="520" type="curve"/>
      <point x="204" y="520" type="line"/>
      <point x="241" y="569"/>
      <point x="272" y="609"/>
      <point x="305" y="646" type="curve"/>
    </contour>
  </outline>
</glyph>
<glyph name="horncomb" format="2">
  <unicode hex="031B"/>
  <anchor x="106" y="452" name="_topright"/>
  <anchor x="106" y="452" name="topright"/>
  <outline>
    <contour>
      <point x="54" y="434" type="line"/>
      <point x="114" y="435"/>
      <point x="158" y="465"/>
      <point x="158" y="522" type="curve" smooth="yes"/>
      <point x="158" y="567"/>
      <point x="131" y="600"/>
      <point x="119" y="600" type="curve" smooth="yes"/>
      <point x="116" y="600"/>
      <point x="112" y="599"/>
      <point x="106" y="595" type="curve"/>
      <point x="104" y="590" type="line"/>
      <point x="126" y="567"/>
      <point x="138" y="542"/>
      <point x="138" y="518" type="curve" smooth="yes"/>
      <point x="138" y="475"/>
      <point x="96" y="452"/>
      <point x="54" y="452" type="curve"/>
    </contour>
  </outline>
</glyph>
<glyph name="cedillacomb" format="2">
  <unicode hex="0327"/>
  <anchor x="189.734" y="0" name="_bottom"/>
  <anchor x="194" y="-178" name="bottom"/>
  <outline>
    <contour>
      <point x="210" y="11" type="line"/>
      <point x="190" y="11" type="line"/>
      <point x="165.185" y="-64" type="line"/>
      <point x="209" y="-92" type="line" smooth="yes"/>
      <point x="224" y="-102"/>
      <point x="233" y="-109"/>
      <point x="233" y="-125" type="curve" smooth="yes"/>
      <point x="233" y="-146"/>
      <point x="217" y="-158"/>
      <point x="193" y="-158" type="curve" smooth="yes"/>
      <point x="168" y="-158"/>
      <point x="156" y="-145"/>
      <point x="144" y="-127" type="curve"/>
      <point x="140" y="-127" type="line"/>
      <point x="134" y="-145" type="line"/>
      <point x="144" y="-160"/>
      <point x="163" y="-178"/>
      <point x="193" y="-178" type="curve" smooth="yes"/>
      <point x="225" y="-178"/>
      <point x="253" y="-158"/>
      <point x="253" y="-125" type="curve" smooth="yes"/>
      <point x="253" y="-103"/>
      <point x="242" y="-89"/>
      <point x="220" y="-75" type="curve" smooth="yes"/>
      <point x="189" y="-55" type="line"/>
    </contour>
  </outline>
</glyph>
<glyph name="strokeshortcomb" format="2">
  <unicode hex="0335"/>
  <anchor x="240" y="254" name="_center"/>
  <outline>
    <contour>
      <point x="398" y="264" type="line"/>
      <point x="81" y="264" type="line"/>
      <point x="79" y="247" type="line"/>
      <point x="82" y="244" type="line"/>
      <point x="399" y="244" type="line"/>
      <point x="401" y="261" type="line"/>
    </contour>
  </outline>
</glyph>
<glyph name="Gamma" format="2">
  <advance width="413"/>
  <unicode hex="0393"/>
  <anchor x="162" y="319" name="center"/>
  <outline>
    <contour>
      <point x="130" y="637" type="line"/>
      <point x="110" y="637" type="line"/>
      <point x="110" y="195" type="line"/>
      <point x="110" y="0" type="line"/>
      <point x="130" y="0" type="line"/>
      <point x="130" y="195" type="line"/>
    </contour>
    <contour>
      <point x="398" y="637" type="line"/>
      <point x="122" y="637" type="line"/>
      <point x="118" y="621" type="line"/>
      <point x="122" y="617" type="line"/>
      <point x="266" y="617" type="line"/>
      <point x="397" y="617" type="line"/>
      <point x="401" y="633" type="line"/>
    </contour>
  </outline>
</glyph>
<glyph name="Theta" format="2">
  <advance width="627"/>
  <unicode hex="0398"/>
  <outline>
    <contour>
      <point x="165" y="303" type="line"/>
      <point x="462" y="313" type="line"/>
      <point x="464" y="330" type="line"/>
      <point x="461" y="333" type="line"/>
      <point x="164" y="323" type="line"/>
      <point x="162" y="306" type="line"/>
    </contour>
    <contour>
      <point x="318" y="642" type="curve"/>
      <point x="144" y="642"/>
      <point x="48" y="526"/>
      <point x="48" y="317" type="curve" smooth="yes"/>
      <point x="48" y="110"/>
      <point x="141" y="-5"/>
      <point x="308" y="-5" type="curve" smooth="yes"/>
      <point x="482" y="-5"/>
      <point x="579" y="114"/>
      <point x="579" y="329" type="curve" smooth="yes"/>
      <point x="579" y="530"/>
      <point x="486" y="642"/>
    </contour>
    <contour>
      <point x="318" y="622" type="curve" smooth="yes"/>
      <point x="473" y="622"/>
      <point x="559" y="517"/>
      <point x="559" y="329" type="curve" smooth="yes"/>
      <point x="559" y="127"/>
      <point x="469" y="15"/>
      <point x="308" y="15" type="curve" smooth="yes"/>
      <point x="154" y="15"/>
      <point x="68" y="123"/>
      <point x="68" y="317" type="curve" smooth="yes"/>
      <point x="68" y="513"/>
      <point x="157" y="622"/>
    </contour>
  </outline>
</glyph>
<glyph name="Lambda" format="2">
  <advance width="546"/>
  <unicode hex="039B"/>
  <outline>
    <contour>
      <point x="289" y="637" type="line"/>
      <point x="269" y="637" type="line"/>
      <point x="19" y="0" type="line"/>
      <point x="43" y="0" type="line"/>
      <point x="57" y="43" type="line"/>
      <point x="276" y="603" type="line"/>
      <point x="280" y="603" type="line"/>
      <point x="482" y="43" type="line"/>
      <point x="495" y="0" type="line"/>
      <point x="518" y="0" type="line"/>
    </contour>
  </outline>
</glyph>
<glyph name="Pi" format="2">
  <advance width="610"/>
  <unicode hex="03A0"/>
  <anchor x="480" y="0" name="bottomright"/>
  <outline>
    <contour>
      <point x="480" y="0" type="line"/>
      <point x="500" y="0" type="line"/>
      <point x="500" y="195" type="line"/>
      <point x="500" y="637" type="line"/>
      <point x="480" y="637" type="line"/>
      <point x="480" y="195" type="line"/>
    </contour>
    <contour>
      <point x="110" y="0" type="line"/>
      <point x="130" y="0" type="line"/>
      <point x="130" y="195" type="line"/>
      <point x="130" y="637" type="line"/>
      <point x="110" y="637" type="line"/>
      <point x="110" y="195" type="line"/>
    </contour>
    <contour>
      <point x="124" y="617" type="line"/>
      <point x="489" y="617" type="line"/>
      <point x="489" y="637" type="line"/>
      <point x="124" y="637" type="line"/>
    </contour>
  </outline>
</glyph>
<glyph name="Phi" format="2">
  <advance width="708"/>
  <unicode hex="03A6"/>
  <outline>
    <contour>
      <point x="348" y="79" type="curve" smooth="yes"/>
      <point x="541" y="79"/>
      <point x="652" y="169"/>
      <point x="652" y="339" type="curve" smooth="yes"/>
      <point x="652" y="503"/>
      <point x="551" y="583"/>
      <point x="359" y="583" type="curve" smooth="yes"/>
      <point x="163" y="583"/>
      <point x="55" y="498"/>
      <point x="55" y="330" type="curve" smooth="yes"/>
      <point x="55" y="163"/>
      <point x="160" y="79"/>
    </contour>
    <contour>
      <point x="348" y="99" type="curve" smooth="yes"/>
      <point x="173" y="99"/>
      <point x="75" y="176"/>
      <point x="75" y="329" type="curve" smooth="yes"/>
      <point x="75" y="485"/>
      <point x="176" y="563"/>
      <point x="359" y="563" type="curve" smooth="yes"/>
      <point x="538" y="563"/>
      <point x="632" y="490"/>
      <point x="632" y="339" type="curve" smooth="yes"/>
      <point x="632" y="182"/>
      <point x="528" y="99"/>
    </contour>
    <contour>
      <point x="344" y="-9" type="line"/>
      <point x="364" y="-9" type="line"/>
      <point x="364" y="198" type="line"/>
      <point x="364" y="652" type="line"/>
      <point x="344" y="652" type="line"/>
      <point x="344" y="198" type="line"/>
    </contour>
  </outline>
</glyph>
<glyph name="Omega" format="2">
  <advance width="719"/>
  <unicode hex="03A9"/>
  <anchor x="360" y="0" name="bottom"/>
  <anchor x="360" y="637" name="top"/>
  <anchor x="49" y="637" name="topleft"/>
  <outline>
    <contour>
      <point x="90" y="-1" type="line"/>
      <point x="147" y="0" type="line"/>
      <point x="251" y="0" type="line"/>
      <point x="292" y="-1" type="line"/>
      <point x="294" y="1" type="line"/>
      <point x="294" y="20" type="line"/>
      <point x="168" y="107"/>
      <point x="115" y="200"/>
      <point x="115" y="337" type="curve" smooth="yes"/>
      <point x="115" y="515"/>
      <point x="207" y="622"/>
      <point x="359" y="622" type="curve" smooth="yes"/>
      <point x="511" y="622"/>
      <point x="604" y="515"/>
      <point x="604" y="340" type="curve" smooth="yes"/>
      <point x="604" y="203"/>
      <point x="548" y="102"/>
      <point x="425" y="20" type="curve"/>
      <point x="425" y="1" type="line"/>
      <point x="427" y="-1" type="line"/>
      <point x="468" y="0" type="line"/>
      <point x="567" y="0" type="line"/>
      <point x="628" y="0" type="line"/>
      <point x="632" y="18" type="line"/>
      <point x="629" y="22" type="line"/>
      <point x="572" y="20" type="line"/>
      <point x="462" y="20" type="line"/>
      <point x="462" y="23" type="line"/>
      <point x="572" y="99"/>
      <point x="623" y="200"/>
      <point x="623" y="339" type="curve" smooth="yes"/>
      <point x="623" y="529"/>
      <point x="524" y="642"/>
      <point x="359" y="642" type="curve" smooth="yes"/>
      <point x="193" y="642"/>
      <point x="96" y="529"/>
      <point x="96" y="335" type="curve" smooth="yes"/>
      <point x="96" y="196"/>
      <point x="146" y="99"/>
      <point x="257" y="23" type="curve"/>
      <point x="257" y="20" type="line"/>
      <point x="152" y="20" type="line"/>
      <point x="91" y="21" type="line"/>
      <point x="87" y="3" type="line"/>
    </contour>
  </outline>
</glyph>
<glyph name="beta" format="2">
  <advance width="503"/>
  <unicode hex="03B2"/>
  <outline>
    <contour>
      <point x="109" y="-185" type="line"/>
      <point x="129" y="-185" type="line"/>
      <point x="129" y="471" type="line" smooth="yes"/>
      <point x="129" y="614"/>
      <point x="176" y="684"/>
      <point x="272" y="684" type="curve" smooth="yes"/>
      <point x="351" y="684"/>
      <point x="397" y="637"/>
      <point x="397" y="557" type="curve" smooth="yes"/>
      <point x="397" y="476"/>
      <point x="351" y="413"/>
      <point x="263" y="374" type="curve"/>
      <point x="212" y="374" type="line"/>
      <point x="211" y="357" type="line"/>
      <point x="214" y="354" type="line"/>
      <point x="265" y="354" type="line"/>
      <point x="363" y="354"/>
      <point x="425" y="290"/>
      <point x="425" y="190" type="curve" smooth="yes"/>
      <point x="425" y="82"/>
      <point x="352" y="17"/>
      <point x="230" y="17" type="curve" smooth="yes"/>
      <point x="195" y="17"/>
      <point x="157" y="21"/>
      <point x="121" y="29" type="curve"/>
      <point x="117" y="11" type="line"/>
      <point x="157" y="2"/>
      <point x="199" y="-3"/>
      <point x="233" y="-3" type="curve" smooth="yes"/>
      <point x="365" y="-3"/>
      <point x="445" y="71"/>
      <point x="445" y="192" type="curve" smooth="yes"/>
      <point x="445" y="303"/>
      <point x="377" y="372"/>
      <point x="267" y="372" type="curve"/>
      <point x="269" y="358" type="line"/>
      <point x="367" y="399"/>
      <point x="417" y="467"/>
      <point x="417" y="559" type="curve" smooth="yes"/>
      <point x="417" y="652"/>
      <point x="365" y="704"/>
      <point x="274" y="704" type="curve" smooth="yes"/>
      <point x="163" y="704"/>
      <point x="109" y="627"/>
      <point x="109" y="469" type="curve" smooth="yes"/>
      <point x="109" y="197" type="line"/>
    </contour>
  </outline>
</glyph>
<glyph name="zeta" format="2">
  <advance width="344"/>
  <unicode hex="03B6"/>
  <outline>
    <contour>
      <point x="207" y="-156" type="line"/>
      <point x="309" y="-118"/>
      <point x="349" y="-84"/>
      <point x="349" y="-33" type="curve" smooth="yes"/>
      <point x="349" y="-1"/>
      <point x="331" y="24"/>
      <point x="282" y="35" type="curve" smooth="yes"/>
      <point x="179" y="58" type="line" smooth="yes"/>
      <point x="93" y="77"/>
      <point x="63" y="113"/>
      <point x="63" y="184" type="curve" smooth="yes"/>
      <point x="63" y="276"/>
      <point x="146" y="410"/>
      <point x="372" y="683" type="curve"/>
      <point x="373" y="701" type="line"/>
      <point x="332" y="700" type="line"/>
      <point x="150" y="700" type="line"/>
      <point x="78" y="701" type="line"/>
      <point x="74" y="684" type="line"/>
      <point x="78" y="679" type="line"/>
      <point x="143" y="680" type="line"/>
      <point x="344" y="680" type="line"/>
      <point x="127" y="420"/>
      <point x="43" y="281"/>
      <point x="43" y="183" type="curve" smooth="yes"/>
      <point x="43" y="103"/>
      <point x="78" y="59"/>
      <point x="169" y="39" type="curve" smooth="yes"/>
      <point x="279" y="15" type="line" smooth="yes"/>
      <point x="313" y="8"/>
      <point x="329" y="-10"/>
      <point x="329" y="-33" type="curve" smooth="yes"/>
      <point x="329" y="-74"/>
      <point x="292" y="-103"/>
      <point x="201" y="-136" type="curve"/>
      <point x="200" y="-140" type="line"/>
    </contour>
  </outline>
</glyph>
<glyph name="iota" format="2">
  <advance width="237"/>
  <unicode hex="03B9"/>
  <anchor x="119" y="452" name="top"/>
  <outline>
    <contour>
      <point x="148" y="-3" type="curve" smooth="yes"/>
      <point x="162" y="-3"/>
      <point x="178" y="2"/>
      <point x="196" y="11" type="curve"/>
      <point x="200" y="28" type="line"/>
      <point x="195" y="31" type="line"/>
      <point x="178" y="22"/>
      <point x="164" y="17"/>
      <point x="152" y="17" type="curve" smooth="yes"/>
      <point x="129" y="17"/>
      <point x="117" y="26"/>
      <point x="117" y="66" type="curve" smooth="yes"/>
      <point x="117" y="453" type="line"/>
      <point x="97" y="449" type="line"/>
      <point x="97" y="222" type="line"/>
      <point x="97" y="65" type="line" smooth="yes"/>
      <point x="97" y="14"/>
      <point x="116" y="-3"/>
    </contour>
  </outline>
</glyph>
<glyph name="kappa" format="2">
  <advance width="421"/>
  <unicode hex="03BA"/>
  <outline>
    <contour>
      <point x="389" y="-7" type="line"/>
      <point x="395" y="-5"/>
      <point x="398" y="-3"/>
      <point x="403" y="1" type="curve"/>
      <point x="403" y="5" type="line"/>
      <point x="326" y="73"/>
      <point x="216" y="169"/>
      <point x="144" y="241" type="curve"/>
      <point x="387" y="452" type="line"/>
      <point x="355" y="452" type="line"/>
      <point x="321" y="418" type="line"/>
      <point x="120" y="243" type="line"/>
      <point x="120" y="238" type="line"/>
      <point x="197" y="159"/>
      <point x="305" y="68"/>
      <point x="385" y="-6" type="curve"/>
    </contour>
    <contour>
      <point x="101" y="0" type="line"/>
      <point x="121" y="0" type="line"/>
      <point x="121" y="196" type="line"/>
      <point x="121" y="453" type="line"/>
      <point x="101" y="449" type="line"/>
      <point x="101" y="196" type="line"/>
    </contour>
  </outline>
</glyph>
<glyph name="lambda" format="2">
  <advance width="428"/>
  <unicode hex="03BB"/>
  <outline>
    <contour>
      <point x="386" y="-2" type="curve" smooth="yes"/>
      <point x="396" y="-2"/>
      <point x="410" y="0"/>
      <point x="423" y="6" type="curve"/>
      <point x="427" y="24" type="line"/>
      <point x="422" y="27" type="line"/>
      <point x="386" y="10"/>
      <point x="367" y="16"/>
      <point x="356" y="49" type="curve" smooth="yes"/>
      <point x="196" y="532" type="line" smooth="yes"/>
      <point x="144" y="689"/>
      <point x="121" y="714"/>
      <point x="48" y="698" type="curve"/>
      <point x="45" y="682" type="line"/>
      <point x="47" y="678" type="line"/>
      <point x="110" y="692"/>
      <point x="129" y="670"/>
      <point x="176" y="527" type="curve" smooth="yes"/>
      <point x="336" y="42" type="line" smooth="yes"/>
      <point x="346" y="13"/>
      <point x="363" y="-2"/>
    </contour>
    <contour>
      <point x="41" y="-2" type="line"/>
      <point x="56" y="43" type="line"/>
      <point x="209" y="415" type="line"/>
      <point x="225" y="415" type="line"/>
      <point x="208" y="467" type="line"/>
      <point x="20" y="2" type="line"/>
    </contour>
  </outline>
</glyph>
<glyph name="nu" format="2">
  <advance width="404"/>
  <unicode hex="03BD"/>
  <outline>
    <contour>
      <point x="365" y="452" type="curve"/>
      <point x="345" y="451" type="line"/>
      <point x="344" y="449" type="line"/>
      <point x="351" y="392"/>
      <point x="337" y="342"/>
      <point x="275" y="204" type="curve" smooth="yes"/>
      <point x="197" y="31" type="line"/>
      <point x="193" y="31" type="line"/>
      <point x="63" y="409" type="line"/>
      <point x="50" y="454" type="line"/>
      <point x="29" y="450" type="line"/>
      <point x="183" y="0" type="line"/>
      <point x="205" y="0" type="line"/>
      <point x="292" y="193" type="line" smooth="yes"/>
      <point x="357" y="338"/>
      <point x="373" y="393"/>
    </contour>
  </outline>
</glyph>
<glyph name="xi" format="2">
  <advance width="383"/>
  <unicode hex="03BE"/>
  <outline>
    <contour>
      <point x="204" y="-173" type="line"/>
      <point x="304" y="-140"/>
      <point x="358" y="-97"/>
      <point x="358" y="-45" type="curve" smooth="yes"/>
      <point x="358" y="-10"/>
      <point x="337" y="12"/>
      <point x="289" y="27" type="curve" smooth="yes"/>
      <point x="211" y="51" type="line" smooth="yes"/>
      <point x="118" y="80"/>
      <point x="72" y="129"/>
      <point x="72" y="207" type="curve" smooth="yes"/>
      <point x="72" y="302"/>
      <point x="145" y="362"/>
      <point x="262" y="362" type="curve" smooth="yes"/>
      <point x="337" y="362" type="line"/>
      <point x="340" y="376" type="line"/>
      <point x="337" y="382" type="line"/>
      <point x="246" y="382" type="line"/>
      <point x="146" y="411"/>
      <point x="93" y="461"/>
      <point x="93" y="541" type="curve" smooth="yes"/>
      <point x="93" y="630"/>
      <point x="157" y="684"/>
      <point x="264" y="684" type="curve" smooth="yes"/>
      <point x="300" y="684"/>
      <point x="334" y="676"/>
      <point x="365" y="658" type="curve"/>
      <point x="373" y="658" type="line"/>
      <point x="380" y="675" type="line"/>
      <point x="345" y="695"/>
      <point x="306" y="704"/>
      <point x="263" y="704" type="curve" smooth="yes"/>
      <point x="144" y="704"/>
      <point x="73" y="643"/>
      <point x="73" y="540" type="curve" smooth="yes"/>
      <point x="73" y="449"/>
      <point x="130" y="395"/>
      <point x="240" y="367" type="curve"/>
      <point x="262" y="378" type="line"/>
      <point x="130" y="378"/>
      <point x="52" y="313"/>
      <point x="52" y="206" type="curve" smooth="yes"/>
      <point x="52" y="120"/>
      <point x="102" y="61"/>
      <point x="201" y="32" type="curve" smooth="yes"/>
      <point x="286" y="7" type="line" smooth="yes"/>
      <point x="324" y="-4"/>
      <point x="338" y="-19"/>
      <point x="338" y="-44" type="curve" smooth="yes"/>
      <point x="338" y="-87"/>
      <point x="289" y="-123"/>
      <point x="200" y="-153" type="curve"/>
      <point x="199" y="-157" type="line"/>
    </contour>
  </outline>
</glyph>
<glyph name="rho" format="2">
  <advance width="487"/>
  <unicode hex="03C1"/>
  <anchor x="258" y="452" name="top"/>
  <outline>
    <contour>
      <point x="85" y="-185" type="line"/>
      <point x="105" y="-185" type="line"/>
      <point x="105" y="238" type="line" smooth="yes"/>
      <point x="105" y="368"/>
      <point x="163" y="437"/>
      <point x="260" y="437" type="curve" smooth="yes"/>
      <point x="357" y="437"/>
      <point x="409" y="368"/>
      <point x="409" y="240" type="curve" smooth="yes"/>
      <point x="409" y="96"/>
      <point x="353" y="15"/>
      <point x="228" y="15" type="curve" smooth="yes"/>
      <point x="180" y="15"/>
      <point x="134" y="37"/>
      <point x="98" y="59" type="curve"/>
      <point x="91" y="42" type="line"/>
      <point x="130" y="15"/>
      <point x="183" y="-5"/>
      <point x="228" y="-5" type="curve" smooth="yes"/>
      <point x="362" y="-5"/>
      <point x="429" y="81"/>
      <point x="429" y="239" type="curve" smooth="yes"/>
      <point x="429" y="381"/>
      <point x="370" y="457"/>
      <point x="259" y="457" type="curve" smooth="yes"/>
      <point x="149" y="457"/>
      <point x="85" y="382"/>
      <point x="85" y="236" type="curve" smooth="yes"/>
    </contour>
  </outline>
</glyph>
<glyph name="sigmafinal" format="2">
  <advance width="379"/>
  <unicode hex="03C2"/>
  <outline>
    <contour>
      <point x="198" y="-174" type="line"/>
      <point x="294" y="-137"/>
      <point x="338" y="-97"/>
      <point x="338" y="-45" type="curve" smooth="yes"/>
      <point x="338" y="-9"/>
      <point x="313" y="15"/>
      <point x="269" y="28" type="curve" smooth="yes"/>
      <point x="192" y="52" type="line" smooth="yes"/>
      <point x="107" y="78"/>
      <point x="68" y="126"/>
      <point x="68" y="228" type="curve" smooth="yes"/>
      <point x="68" y="357"/>
      <point x="131" y="437"/>
      <point x="226" y="437" type="curve" smooth="yes"/>
      <point x="267" y="437"/>
      <point x="312" y="422"/>
      <point x="341" y="398" type="curve"/>
      <point x="347" y="398" type="line"/>
      <point x="354" y="415" type="line"/>
      <point x="320" y="441"/>
      <point x="270" y="457"/>
      <point x="225" y="457" type="curve" smooth="yes"/>
      <point x="118" y="457"/>
      <point x="48" y="369"/>
      <point x="48" y="229" type="curve" smooth="yes"/>
      <point x="48" y="117"/>
      <point x="92" y="62"/>
      <point x="188" y="32" type="curve" smooth="yes"/>
      <point x="265" y="8" type="line" smooth="yes"/>
      <point x="298" y="-2"/>
      <point x="318" y="-21"/>
      <point x="318" y="-44" type="curve" smooth="yes"/>
      <point x="318" y="-87"/>
      <point x="279" y="-121"/>
      <point x="192" y="-154" type="curve"/>
      <point x="191" y="-158" type="line"/>
    </contour>
  </outline>
</glyph>
<glyph name="omega" format="2">
  <advance width="621"/>
  <unicode hex="03C9"/>
  <anchor x="311" y="0" name="bottom"/>
  <anchor x="311" y="452" name="top"/>
  <outline>
    <contour>
      <point x="193" y="-12" type="curve" smooth="yes"/>
      <point x="261" y="-12"/>
      <point x="298" y="33"/>
      <point x="312" y="132" type="curve"/>
      <point x="306" y="132" type="line"/>
      <point x="320" y="33"/>
      <point x="358" y="-12"/>
      <point x="427" y="-12" type="curve" smooth="yes"/>
      <point x="514" y="-12"/>
      <point x="559" y="59"/>
      <point x="559" y="197" type="curve" smooth="yes"/>
      <point x="559" y="321"/>
      <point x="523" y="396"/>
      <point x="436" y="452" type="curve"/>
      <point x="426" y="441" type="line"/>
      <point x="427" y="435" type="line"/>
      <point x="504" y="385"/>
      <point x="539" y="312"/>
      <point x="539" y="199" type="curve" smooth="yes"/>
      <point x="539" y="76"/>
      <point x="498" y="8"/>
      <point x="426" y="8" type="curve" smooth="yes"/>
      <point x="355" y="8"/>
      <point x="320" y="78"/>
      <point x="320" y="222" type="curve" smooth="yes"/>
      <point x="320" y="298" type="line"/>
      <point x="318" y="299" type="line"/>
      <point x="301" y="294" type="line"/>
      <point x="301" y="222" type="line" smooth="yes"/>
      <point x="301" y="79"/>
      <point x="265" y="8"/>
      <point x="194" y="8" type="curve" smooth="yes"/>
      <point x="122" y="8"/>
      <point x="81" y="76"/>
      <point x="81" y="199" type="curve" smooth="yes"/>
      <point x="81" y="311"/>
      <point x="116" y="385"/>
      <point x="193" y="435" type="curve"/>
      <point x="194" y="441" type="line"/>
      <point x="184" y="452" type="line"/>
      <point x="97" y="396"/>
      <point x="61" y="321"/>
      <point x="61" y="197" type="curve" smooth="yes"/>
      <point x="61" y="60"/>
      <point x="107" y="-12"/>
    </contour>
  </outline>
</glyph>
<glyph name="E-cy" format="2">
  <advance width="580"/>
  <unicode hex="0404"/>
  <outline>
    <contour>
      <point x="444" y="322" type="line"/>
      <point x="446" y="338" type="line"/>
      <point x="441" y="342" type="line"/>
      <point x="234" y="342" type="line"/>
      <point x="90" y="342" type="line"/>
      <point x="87" y="326" type="line"/>
      <point x="93" y="322" type="line"/>
      <point x="233" y="322" type="line"/>
    </contour>
    <contour>
      <point x="344" y="641" type="curve" smooth="yes"/>
      <point x="171" y="641"/>
      <point x="77" y="519"/>
      <point x="77" y="311" type="curve" smooth="yes"/>
      <point x="77" y="104"/>
      <point x="167" y="-5"/>
      <point x="332" y="-5" type="curve" smooth="yes"/>
      <point x="395" y="-5"/>
      <point x="465" y="19"/>
      <point x="521" y="62" type="curve"/>
      <point x="523" y="80" type="line"/>
      <point x="516" y="82" type="line"/>
      <point x="463" y="39"/>
      <point x="395" y="15"/>
      <point x="332" y="15" type="curve" smooth="yes"/>
      <point x="180" y="15"/>
      <point x="97" y="116"/>
      <point x="97" y="310" type="curve" smooth="yes"/>
      <point x="97" y="506"/>
      <point x="183" y="621"/>
      <point x="344" y="621" type="curve" smooth="yes"/>
      <point x="404" y="621"/>
      <point x="462" y="601"/>
      <point x="506" y="565" type="curve"/>
      <point x="514" y="565" type="line"/>
      <point x="521" y="582" type="line"/>
      <point x="472" y="620"/>
      <point x="407" y="641"/>
    </contour>
  </outline>
</glyph>
<glyph name="Lje-cy" format="2">
  <advance width="804"/>
  <unicode hex="0409"/>
  <outline>
    <contour>
      <point x="435" y="0" type="line"/>
      <point x="534" y="0" type="line"/>
      <point x="680" y="0"/>
      <point x="759" y="65"/>
      <point x="759" y="186" type="curve" smooth="yes"/>
      <point x="759" y="292"/>
      <point x="698" y="351"/>
      <point x="583" y="351" type="curve" smooth="yes"/>
      <point x="435" y="351" type="line"/>
      <point x="435" y="331" type="line"/>
      <point x="580" y="331" type="line" smooth="yes"/>
      <point x="685" y="331"/>
      <point x="739" y="279"/>
      <point x="739" y="185" type="curve" smooth="yes"/>
      <point x="739" y="86"/>
      <point x="679" y="29"/>
      <point x="564" y="20" type="curve"/>
      <point x="435" y="20" type="line"/>
    </contour>
    <contour>
      <point x="27" y="-13" type="line"/>
      <point x="40" y="-7" type="line" smooth="yes"/>
      <point x="131" y="35"/>
      <point x="173" y="163"/>
      <point x="198" y="546" type="curve" smooth="yes"/>
      <point x="204" y="637" type="line"/>
      <point x="184" y="637" type="line"/>
      <point x="178" y="548" type="line" smooth="yes"/>
      <point x="152" y="162"/>
      <point x="116" y="47"/>
      <point x="20" y="3" type="curve"/>
    </contour>
    <contour>
      <point x="424" y="0" type="line"/>
      <point x="444" y="0" type="line"/>
      <point x="444" y="195" type="line"/>
      <point x="444" y="637" type="line"/>
      <point x="424" y="637" type="line"/>
      <point x="424" y="195" type="line"/>
    </contour>
    <contour>
      <point x="189" y="617" type="line"/>
      <point x="433" y="617" type="line"/>
      <point x="433" y="637" type="line"/>
      <point x="183" y="637" type="line"/>
    </contour>
  </outline>
</glyph>
<glyph name="Nje-cy" format="2">
  <advance width="939"/>
  <unicode hex="040A"/>
  <outline>
    <contour>
      <point x="571" y="0" type="line"/>
      <point x="670" y="0" type="line"/>
      <point x="816" y="0"/>
      <point x="895" y="62"/>
      <point x="895" y="183" type="curve" smooth="yes"/>
      <point x="895" y="289"/>
      <point x="834" y="345"/>
      <point x="719" y="345" type="curve" smooth="yes"/>
      <point x="571" y="345" type="line"/>
      <point x="571" y="325" type="line"/>
      <point x="716" y="325" type="line" smooth="yes"/>
      <point x="821" y="325"/>
      <point x="875" y="276"/>
      <point x="875" y="182" type="curve" smooth="yes"/>
      <point x="875" y="83"/>
      <point x="815" y="29"/>
      <point x="700" y="20" type="curve"/>
      <point x="571" y="20" type="line"/>
    </contour>
    <contour>
      <point x="131" y="0" type="line"/>
      <point x="151" y="0" type="line"/>
      <point x="151" y="195" type="line"/>
      <point x="151" y="637" type="line"/>
      <point x="131" y="637" type="line"/>
      <point x="131" y="195" type="line"/>
    </contour>
    <contour>
      <point x="145" y="324" type="line"/>
      <point x="349" y="324" type="line"/>
      <point x="570" y="324" type="line"/>
      <point x="570" y="344" type="line"/>
      <point x="353" y="344" type="line"/>
      <point x="145" y="344" type="line"/>
    </contour>
    <contour>
      <point x="561" y="0" type="line"/>
      <point x="581" y="0" type="line"/>
      <point x="581" y="195" type="line"/>
      <point x="581" y="637" type="line"/>
      <point x="561" y="637" type="line"/>
      <point x="561" y="195" type="line"/>
    </contour>
  </outline>
</glyph>
<glyph name="Dzhe-cy" format="2">
  <advance width="678"/>
  <unicode hex="040F"/>
  <outline>
    <contour>
      <point x="527" y="0" type="line"/>
      <point x="547" y="0" type="line"/>
      <point x="547" y="195" type="line"/>
      <point x="547" y="637" type="line"/>
      <point x="527" y="637" type="line"/>
      <point x="527" y="195" type="line"/>
    </contour>
    <contour>
      <point x="131" y="0" type="line"/>
      <point x="151" y="0" type="line"/>
      <point x="151" y="195" type="line"/>
      <point x="151" y="637" type="line"/>
      <point x="131" y="637" type="line"/>
      <point x="131" y="195" type="line"/>
    </contour>
    <contour>
      <point x="145" y="0" type="line"/>
      <point x="536" y="0" type="line"/>
      <point x="536" y="20" type="line"/>
      <point x="145" y="20" type="line"/>
    </contour>
    <contour>
      <point x="329" y="-135" type="line"/>
      <point x="349" y="-131" type="line"/>
      <point x="349" y="16" type="line"/>
      <point x="329" y="16" type="line"/>
    </contour>
  </outline>
</glyph>
<glyph name="Tse-cy" format="2">
  <advance width="693"/>
  <unicode hex="0426"/>
  <outline>
    <contour>
      <point x="519" y="0" type="line"/>
      <point x="539" y="0" type="line"/>
      <point x="539" y="195" type="line"/>
      <point x="539" y="637" type="line"/>
      <point x="519" y="637" type="line"/>
      <point x="519" y="195" type="line"/>
    </contour>
    <contour>
      <point x="142" y="0" type="line"/>
      <point x="529" y="0" type="line"/>
      <point x="529" y="20" type="line"/>
      <point x="142" y="20" type="line"/>
    </contour>
    <contour>
      <point x="131" y="0" type="line"/>
      <point x="151" y="0" type="line"/>
      <point x="151" y="195" type="line"/>
      <point x="151" y="637" type="line"/>
      <point x="131" y="637" type="line"/>
      <point x="131" y="195" type="line"/>
    </contour>
    <component base="descender-cy.case" xOffset="478"/>
  </outline>
</glyph>
<glyph name="Sha-cy" format="2">
  <advance width="916"/>
  <unicode hex="0428"/>
  <anchor x="765" y="0" name="bottomright"/>
  <outline>
    <contour>
      <point x="141" y="0" type="line"/>
      <point x="775" y="0" type="line"/>
      <point x="775" y="20" type="line"/>
      <point x="141" y="20" type="line"/>
    </contour>
    <contour>
      <point x="131" y="0" type="line"/>
      <point x="151" y="0" type="line"/>
      <point x="151" y="195" type="line"/>
      <point x="151" y="637" type="line"/>
      <point x="131" y="637" type="line"/>
      <point x="131" y="195" type="line"/>
    </contour>
    <contour>
      <point x="448" y="0" type="line"/>
      <point x="468" y="0" type="line"/>
      <point x="468" y="195" type="line"/>
      <point x="468" y="637" type="line"/>
      <point x="448" y="637" type="line"/>
      <point x="448" y="195" type="line"/>
    </contour>
    <contour>
      <point x="765" y="0" type="line"/>
      <point x="785" y="0" type="line"/>
      <point x="785" y="195" type="line"/>
      <point x="785" y="637" type="line"/>
      <point x="765" y="637" type="line"/>
      <point x="765" y="195" type="line"/>
    </contour>
  </outline>
</glyph>
<glyph name="Hardsign-cy" format="2">
  <advance width="575"/>
  <unicode hex="042A"/>
  <outline>
    <contour>
      <point x="215" y="0" type="line"/>
      <point x="312" y="0" type="line"/>
      <point x="454" y="0"/>
      <point x="530" y="65"/>
      <point x="530" y="186" type="curve" smooth="yes"/>
      <point x="530" y="292"/>
      <point x="470" y="351"/>
      <point x="359" y="351" type="curve" smooth="yes"/>
      <point x="215" y="351" type="line"/>
      <point x="215" y="331" type="line"/>
      <point x="356" y="331" type="line" smooth="yes"/>
      <point x="457" y="331"/>
      <point x="510" y="279"/>
      <point x="510" y="185" type="curve" smooth="yes"/>
      <point x="510" y="86"/>
      <point x="451" y="29"/>
      <point x="340" y="20" type="curve"/>
      <point x="215" y="20" type="line"/>
    </contour>
    <contour>
      <point x="205" y="0" type="line"/>
      <point x="225" y="0" type="line"/>
      <point x="225" y="195" type="line"/>
      <point x="225" y="637" type="line"/>
      <point x="205" y="637" type="line"/>
      <point x="205" y="195" type="line"/>
    </contour>
    <contour>
      <point x="15" y="617" type="line"/>
      <point x="116" y="617" type="line"/>
      <point x="215" y="617" type="line"/>
      <point x="215" y="637" type="line"/>
      <point x="16" y="637" type="line"/>
      <point x="12" y="621" type="line"/>
    </contour>
  </outline>
</glyph>
<glyph name="Iu-cy" format="2">
  <advance width="862"/>
  <unicode hex="042E"/>
  <outline>
    <contour>
      <point x="151" y="637" type="line"/>
      <point x="131" y="637" type="line"/>
      <point x="131" y="195" type="line"/>
      <point x="131" y="0" type="line"/>
      <point x="151" y="0" type="line"/>
      <point x="151" y="195" type="line"/>
    </contour>
    <contour>
      <point x="142" y="334" type="line"/>
      <point x="142" y="314" type="line"/>
      <point x="219" y="314" type="line"/>
      <point x="299" y="314" type="line"/>
      <point x="299" y="334" type="line"/>
      <point x="221" y="334" type="line"/>
    </contour>
    <contour>
      <point x="540" y="642" type="curve"/>
      <point x="380" y="642"/>
      <point x="290" y="526"/>
      <point x="290" y="317" type="curve" smooth="yes"/>
      <point x="290" y="110"/>
      <point x="377" y="-5"/>
      <point x="532" y="-5" type="curve" smooth="yes"/>
      <point x="693" y="-5"/>
      <point x="783" y="114"/>
      <point x="783" y="329" type="curve" smooth="yes"/>
      <point x="783" y="530"/>
      <point x="696" y="642"/>
    </contour>
    <contour>
      <point x="540" y="622" type="curve" smooth="yes"/>
      <point x="683" y="622"/>
      <point x="763" y="517"/>
      <point x="763" y="329" type="curve" smooth="yes"/>
      <point x="763" y="127"/>
      <point x="680" y="15"/>
      <point x="532" y="15" type="curve" smooth="yes"/>
      <point x="390" y="15"/>
      <point x="310" y="123"/>
      <point x="310" y="317" type="curve" smooth="yes"/>
      <point x="310" y="513"/>
      <point x="393" y="622"/>
    </contour>
  </outline>
</glyph>
<glyph name="Ia-cy" format="2">
  <advance width="544"/>
  <unicode hex="042F"/>
  <outline>
    <contour>
      <point x="252" y="263" type="curve"/>
      <point x="404" y="263" type="line"/>
      <point x="404" y="283" type="line"/>
      <point x="252" y="283" type="line"/>
      <point x="163" y="299"/>
      <point x="113" y="360"/>
      <point x="113" y="450" type="curve" smooth="yes"/>
      <point x="113" y="551"/>
      <point x="179" y="618"/>
      <point x="276" y="618" type="curve"/>
      <point x="408" y="617" type="line"/>
      <point x="414" y="637" type="line"/>
      <point x="283" y="639" type="line"/>
      <point x="167" y="639"/>
      <point x="93" y="566"/>
      <point x="93" y="450" type="curve" smooth="yes"/>
      <point x="93" y="350"/>
      <point x="150" y="282"/>
    </contour>
    <contour>
      <point x="70" y="-7" type="curve"/>
      <point x="76" y="-5" type="line"/>
      <point x="152" y="94"/>
      <point x="215" y="187"/>
      <point x="269" y="277" type="curve"/>
      <point x="246" y="277" type="line"/>
      <point x="199" y="197"/>
      <point x="138" y="109"/>
      <point x="58" y="5" type="curve"/>
      <point x="58" y="1" type="line"/>
      <point x="62" y="-3"/>
      <point x="65" y="-5"/>
    </contour>
    <contour>
      <point x="394" y="0" type="line"/>
      <point x="414" y="0" type="line"/>
      <point x="414" y="195" type="line"/>
      <point x="414" y="637" type="line"/>
      <point x="394" y="637" type="line"/>
      <point x="394" y="195" type="line"/>
    </contour>
  </outline>
</glyph>
<glyph name="be-cy" format="2">
  <advance width="498"/>
  <unicode hex="0431"/>
  <outline>
    <contour>
      <point x="257" y="-5" type="curve" smooth="yes"/>
      <point x="374" y="-5"/>
      <point x="443" y="78"/>
      <point x="443" y="220" type="curve" smooth="yes"/>
      <point x="443" y="363"/>
      <point x="385" y="439"/>
      <point x="278" y="439" type="curve"/>
      <point x="216" y="439"/>
      <point x="146" y="401"/>
      <point x="101" y="343" type="curve"/>
      <point x="91" y="346" type="line"/>
      <point x="91" y="300" type="line"/>
      <point x="138" y="372"/>
      <point x="211" y="419"/>
      <point x="276" y="419" type="curve" smooth="yes"/>
      <point x="373" y="419"/>
      <point x="423" y="352"/>
      <point x="423" y="221" type="curve" smooth="yes"/>
      <point x="423" y="91"/>
      <point x="362" y="15"/>
      <point x="258" y="15" type="curve" smooth="yes"/>
      <point x="148" y="15"/>
      <point x="98" y="102"/>
      <point x="98" y="293" type="curve" smooth="yes"/>
      <point x="98" y="336" type="line" smooth="yes"/>
      <point x="98" y="478"/>
      <point x="137" y="554"/>
      <point x="227" y="588" type="curve" smooth="yes"/>
      <point x="322" y="625" type="line" smooth="yes"/>
      <point x="367" y="642"/>
      <point x="399" y="661"/>
      <point x="437" y="693" type="curve"/>
      <point x="432" y="711" type="line"/>
      <point x="427" y="711" type="line"/>
      <point x="385" y="675"/>
      <point x="359" y="660"/>
      <point x="314" y="643" type="curve" smooth="yes"/>
      <point x="219" y="606" type="line" smooth="yes"/>
      <point x="115" y="567"/>
      <point x="77" y="484"/>
      <point x="77" y="299" type="curve" smooth="yes"/>
      <point x="77" y="91"/>
      <point x="134" y="-5"/>
    </contour>
  </outline>
</glyph>
<glyph name="ge-cy" format="2">
  <advance width="321"/>
  <unicode hex="0433"/>
  <anchor x="101" y="0" name="bottomright"/>
  <anchor x="143" y="225" name="center"/>
  <anchor x="199" y="452" name="top"/>
  <outline>
    <contour>
      <point x="101" y="0" type="line"/>
      <point x="121" y="0" type="line"/>
      <point x="121" y="196" type="line"/>
      <point x="121" y="452" type="line"/>
      <point x="101" y="452" type="line"/>
      <point x="101" y="196" type="line"/>
    </contour>
    <contour>
      <point x="323" y="433" type="line"/>
      <point x="327" y="449" type="line"/>
      <point x="324" y="452" type="line"/>
      <point x="114" y="452" type="line"/>
      <point x="111" y="436" type="line"/>
      <point x="114" y="433" type="line"/>
      <point x="220" y="433" type="line"/>
    </contour>
  </outline>
</glyph>
<glyph name="en-cy" format="2">
  <advance width="518"/>
  <unicode hex="043D"/>
  <anchor x="269" y="0" name="bottom"/>
  <anchor x="397" y="0" name="bottomright"/>
  <anchor x="269" y="226" name="center"/>
  <anchor x="269" y="452" name="top"/>
  <anchor x="37" y="452" name="topleft"/>
  <outline>
    <contour>
      <point x="113" y="239" type="line"/>
      <point x="113" y="220" type="line"/>
      <point x="257" y="220" type="line"/>
      <point x="408" y="220" type="line"/>
      <point x="408" y="239" type="line"/>
      <point x="257" y="239" type="line"/>
    </contour>
    <contour>
      <point x="101" y="0" type="line"/>
      <point x="121" y="0" type="line"/>
      <point x="121" y="196" type="line"/>
      <point x="121" y="452" type="line"/>
      <point x="101" y="452" type="line"/>
      <point x="101" y="196" type="line"/>
    </contour>
    <contour>
      <point x="397" y="0" type="line"/>
      <point x="417" y="0" type="line"/>
      <point x="417" y="196" type="line"/>
      <point x="417" y="452" type="line"/>
      <point x="397" y="452" type="line"/>
      <point x="397" y="196" type="line"/>
    </contour>
  </outline>
</glyph>
<glyph name="sha-cy" format="2">
  <advance width="679"/>
  <unicode hex="0448"/>
  <anchor x="558" y="0" name="bottomright"/>
  <outline>
    <contour>
      <point x="111" y="0" type="line"/>
      <point x="571" y="0" type="line"/>
      <point x="571" y="19" type="line"/>
      <point x="111" y="19" type="line"/>
    </contour>
    <contour>
      <point x="101" y="0" type="line"/>
      <point x="121" y="0" type="line"/>
      <point x="121" y="196" type="line"/>
      <point x="121" y="452" type="line"/>
      <point x="101" y="452" type="line"/>
      <point x="101" y="196" type="line"/>
    </contour>
    <contour>
      <point x="330" y="0" type="line"/>
      <point x="350" y="0" type="line"/>
      <point x="350" y="196" type="line"/>
      <point x="350" y="452" type="line"/>
      <point x="330" y="452" type="line"/>
      <point x="330" y="196" type="line"/>
    </contour>
    <contour>
      <point x="558" y="0" type="line"/>
      <point x="578" y="0" type="line"/>
      <point x="578" y="196" type="line"/>
      <point x="578" y="452" type="line"/>
      <point x="558" y="452" type="line"/>
      <point x="558" y="196" type="line"/>
    </contour>
  </outline>
</glyph>
<glyph name="hardsign-cy" format="2">
  <advance width="424"/>
  <unicode hex="044A"/>
  <outline>
    <contour>
      <point x="153" y="0" type="line"/>
      <point x="229" y="0" type="line"/>
      <point x="340" y="0"/>
      <point x="400" y="47"/>
      <point x="400" y="134" type="curve" smooth="yes"/>
      <point x="400" y="210"/>
      <point x="354" y="252"/>
      <point x="268" y="252" type="curve" smooth="yes"/>
      <point x="153" y="252" type="line"/>
      <point x="153" y="233" type="line"/>
      <point x="264" y="233" type="line" smooth="yes"/>
      <point x="340" y="233"/>
      <point x="378" y="197"/>
      <point x="378" y="132" type="curve" smooth="yes"/>
      <point x="378" y="64"/>
      <point x="336" y="25"/>
      <point x="252" y="19" type="curve"/>
      <point x="153" y="19" type="line"/>
    </contour>
    <contour>
      <point x="143" y="0" type="line"/>
      <point x="163" y="0" type="line"/>
      <point x="163" y="196" type="line"/>
      <point x="163" y="452" type="line"/>
      <point x="143" y="452" type="line"/>
      <point x="143" y="196" type="line"/>
    </contour>
    <contour>
      <point x="3" y="433" type="line"/>
      <point x="74" y="433" type="line"/>
      <point x="154" y="433" type="line"/>
      <point x="154" y="452" type="line"/>
      <point x="4" y="452" type="line"/>
      <point x="1" y="436" type="line"/>
    </contour>
  </outline>
</glyph>
<glyph name="softsign-cy" format="2">
  <advance width="389"/>
  <unicode hex="044C"/>
  <outline>
    <contour>
      <point x="111" y="0" type="line"/>
      <point x="189" y="0" type="line"/>
      <point x="303" y="0"/>
      <point x="365" y="47"/>
      <point x="365" y="134" type="curve" smooth="yes"/>
      <point x="365" y="210"/>
      <point x="317" y="252"/>
      <point x="229" y="252" type="curve" smooth="yes"/>
      <point x="111" y="252" type="line"/>
      <point x="111" y="233" type="line"/>
      <point x="225" y="233" type="line" smooth="yes"/>
      <point x="303" y="233"/>
      <point x="343" y="197"/>
      <point x="343" y="132" type="curve" smooth="yes"/>
      <point x="343" y="64"/>
      <point x="299" y="25"/>
      <point x="213" y="19" type="curve"/>
      <point x="111" y="19" type="line"/>
    </contour>
    <contour>
      <point x="101" y="0" type="line"/>
      <point x="121" y="0" type="line"/>
      <point x="121" y="196" type="line"/>
      <point x="121" y="452" type="line"/>
      <point x="101" y="452" type="line"/>
      <point x="101" y="196" type="line"/>
    </contour>
  </outline>
</glyph>
<glyph name="ereversed-cy" format="2">
  <advance width="418"/>
  <unicode hex="044D"/>
  <outline>
    <contour>
      <point x="185" y="-5" type="curve" smooth="yes"/>
      <point x="293" y="-5"/>
      <point x="363" y="87"/>
      <point x="363" y="230" type="curve" smooth="yes"/>
      <point x="363" y="367"/>
      <point x="294" y="457"/>
      <point x="185" y="457" type="curve" smooth="yes"/>
      <point x="136" y="457"/>
      <point x="87" y="439"/>
      <point x="52" y="414" type="curve"/>
      <point x="50" y="396" type="line"/>
      <point x="56" y="394" type="line"/>
      <point x="90" y="420"/>
      <point x="140" y="437"/>
      <point x="185" y="437" type="curve" smooth="yes"/>
      <point x="282" y="437"/>
      <point x="343" y="355"/>
      <point x="343" y="230" type="curve" smooth="yes"/>
      <point x="343" y="99"/>
      <point x="281" y="15"/>
      <point x="185" y="15" type="curve" smooth="yes"/>
      <point x="141" y="15"/>
      <point x="95" y="33"/>
      <point x="68" y="54" type="curve"/>
      <point x="62" y="54" type="line"/>
      <point x="54" y="37" type="line"/>
      <point x="87" y="12"/>
      <point x="138" y="-5"/>
    </contour>
    <contour>
      <point x="107" y="223" type="line"/>
      <point x="251" y="223" type="line"/>
      <point x="351" y="223" type="line"/>
      <point x="351" y="243" type="line"/>
      <point x="251" y="243" type="line"/>
      <point x="104" y="243" type="line"/>
      <point x="103" y="226" type="line"/>
    </contour>
  </outline>
</glyph>
<glyph name="iu-cy" format="2">
  <advance width="639"/>
  <unicode hex="044E"/>
  <anchor x="314" y="452" name="top"/>
  <outline>
    <contour>
      <point x="101" y="0" type="line"/>
      <point x="121" y="0" type="line"/>
      <point x="121" y="196" type="line"/>
      <point x="121" y="452" type="line"/>
      <point x="101" y="452" type="line"/>
      <point x="101" y="196" type="line"/>
    </contour>
    <contour>
      <point x="113" y="220" type="line"/>
      <point x="181" y="220" type="line"/>
      <point x="245" y="220" type="line"/>
      <point x="245" y="239" type="line"/>
      <point x="181" y="239" type="line"/>
      <point x="113" y="239" type="line"/>
    </contour>
    <contour>
      <point x="405" y="-5" type="curve" smooth="yes"/>
      <point x="515" y="-5"/>
      <point x="581" y="84"/>
      <point x="581" y="230" type="curve" smooth="yes"/>
      <point x="581" y="371"/>
      <point x="518" y="457"/>
      <point x="412" y="457" type="curve" smooth="yes"/>
      <point x="303" y="457"/>
      <point x="237" y="368"/>
      <point x="237" y="222" type="curve" smooth="yes"/>
      <point x="237" y="81"/>
      <point x="300" y="-5"/>
    </contour>
    <contour>
      <point x="405" y="15" type="curve" smooth="yes"/>
      <point x="313" y="15"/>
      <point x="257" y="93"/>
      <point x="257" y="222" type="curve" smooth="yes"/>
      <point x="257" y="356"/>
      <point x="315" y="437"/>
      <point x="412" y="437" type="curve" smooth="yes"/>
      <point x="505" y="437"/>
      <point x="561" y="359"/>
      <point x="561" y="230" type="curve" smooth="yes"/>
      <point x="561" y="96"/>
      <point x="503" y="15"/>
    </contour>
  </outline>
</glyph>
<glyph name="dje-cy" format="2">
  <advance width="506"/>
  <unicode hex="0452"/>
  <outline>
    <contour>
      <point x="296" y="-176" type="line"/>
      <point x="388" y="-96"/>
      <point x="419" y="4"/>
      <point x="419" y="221" type="curve" smooth="yes"/>
      <point x="419" y="404"/>
      <point x="389" y="457"/>
      <point x="285" y="457" type="curve"/>
      <point x="235" y="457"/>
      <point x="178" y="427"/>
      <point x="129" y="374" type="curve"/>
      <point x="123" y="374" type="line"/>
      <point x="124" y="340" type="line"/>
      <point x="174" y="401"/>
      <point x="233" y="437"/>
      <point x="285" y="437" type="curve" smooth="yes"/>
      <point x="373" y="437"/>
      <point x="399" y="388"/>
      <point x="399" y="222" type="curve" smooth="yes"/>
      <point x="399" y="10"/>
      <point x="372" y="-81"/>
      <point x="285" y="-163" type="curve"/>
      <point x="285" y="-169" type="line"/>
    </contour>
    <contour>
      <point x="105" y="0" type="line"/>
      <point x="125" y="0" type="line"/>
      <point x="125" y="195" type="line"/>
      <point x="125" y="702" type="line"/>
      <point x="105" y="698" type="line"/>
      <point x="105" y="195" type="line"/>
    </contour>
    <contour>
      <point x="33" y="556" type="line"/>
      <point x="287" y="556" type="line"/>
      <point x="289" y="573" type="line"/>
      <point x="286" y="576" type="line"/>
      <point x="32" y="576" type="line"/>
      <point x="30" y="559" type="line"/>
    </contour>
  </outline>
</glyph>
<glyph name="e-cy" format="2">
  <advance width="418"/>
  <unicode hex="0454"/>
  <outline>
    <contour>
      <point x="233" y="-5" type="curve" smooth="yes"/>
      <point x="282" y="-5"/>
      <point x="331" y="13"/>
      <point x="366" y="38" type="curve"/>
      <point x="368" y="56" type="line"/>
      <point x="362" y="58" type="line"/>
      <point x="328" y="32"/>
      <point x="278" y="15"/>
      <point x="233" y="15" type="curve" smooth="yes"/>
      <point x="136" y="15"/>
      <point x="75" y="97"/>
      <point x="75" y="222" type="curve" smooth="yes"/>
      <point x="75" y="353"/>
      <point x="137" y="437"/>
      <point x="233" y="437" type="curve" smooth="yes"/>
      <point x="277" y="437"/>
      <point x="323" y="419"/>
      <point x="350" y="398" type="curve"/>
      <point x="356" y="398" type="line"/>
      <point x="364" y="415" type="line"/>
      <point x="331" y="440"/>
      <point x="280" y="457"/>
      <point x="233" y="457" type="curve" smooth="yes"/>
      <point x="125" y="457"/>
      <point x="55" y="365"/>
      <point x="55" y="222" type="curve" smooth="yes"/>
      <point x="55" y="85"/>
      <point x="124" y="-5"/>
    </contour>
    <contour>
      <point x="314" y="223" type="line"/>
      <point x="314" y="240" type="line"/>
      <point x="309" y="243" type="line"/>
      <point x="166" y="243" type="line"/>
      <point x="68" y="243" type="line"/>
      <point x="69" y="223" type="line"/>
      <point x="168" y="223" type="line"/>
    </contour>
  </outline>
</glyph>
<glyph name="lje-cy" format="2">
  <advance width="604"/>
  <unicode hex="0459"/>
  <outline>
    <contour>
      <point x="327" y="0" type="line"/>
      <point x="405" y="0" type="line"/>
      <point x="519" y="0"/>
      <point x="581" y="47"/>
      <point x="581" y="134" type="curve" smooth="yes"/>
      <point x="581" y="210"/>
      <point x="533" y="252"/>
      <point x="445" y="252" type="curve" smooth="yes"/>
      <point x="327" y="252" type="line"/>
      <point x="327" y="233" type="line"/>
      <point x="441" y="233" type="line" smooth="yes"/>
      <point x="519" y="233"/>
      <point x="559" y="197"/>
      <point x="559" y="132" type="curve" smooth="yes"/>
      <point x="559" y="64"/>
      <point x="515" y="25"/>
      <point x="429" y="19" type="curve"/>
      <point x="327" y="19" type="line"/>
    </contour>
    <contour>
      <point x="30" y="-9" type="line"/>
      <point x="39" y="-5" type="line" smooth="yes"/>
      <point x="106" y="25"/>
      <point x="134" y="112"/>
      <point x="154" y="384" type="curve" smooth="yes"/>
      <point x="159" y="452" type="line"/>
      <point x="140" y="452" type="line"/>
      <point x="135" y="387" type="line" smooth="yes"/>
      <point x="114" y="118"/>
      <point x="92" y="38"/>
      <point x="24" y="8" type="curve"/>
    </contour>
    <contour>
      <point x="317" y="0" type="line"/>
      <point x="337" y="0" type="line"/>
      <point x="337" y="196" type="line"/>
      <point x="337" y="452" type="line"/>
      <point x="317" y="452" type="line"/>
      <point x="317" y="196" type="line"/>
    </contour>
    <contour>
      <point x="147" y="433" type="line"/>
      <point x="327" y="433" type="line"/>
      <point x="327" y="452" type="line"/>
      <point x="140" y="452" type="line"/>
    </contour>
  </outline>
</glyph>
<glyph name="nje-cy" format="2">
  <advance width="684"/>
  <unicode hex="045A"/>
  <outline>
    <contour>
      <point x="407" y="0" type="line"/>
      <point x="485" y="0" type="line"/>
      <point x="599" y="0"/>
      <point x="661" y="43"/>
      <point x="661" y="130" type="curve" smooth="yes"/>
      <point x="661" y="206"/>
      <point x="613" y="244"/>
      <point x="525" y="244" type="curve" smooth="yes"/>
      <point x="407" y="244" type="line"/>
      <point x="407" y="225" type="line"/>
      <point x="521" y="225" type="line" smooth="yes"/>
      <point x="599" y="225"/>
      <point x="639" y="193"/>
      <point x="639" y="128" type="curve" smooth="yes"/>
      <point x="639" y="60"/>
      <point x="595" y="25"/>
      <point x="509" y="19" type="curve"/>
      <point x="407" y="19" type="line"/>
    </contour>
    <contour>
      <point x="101" y="0" type="line"/>
      <point x="121" y="0" type="line"/>
      <point x="121" y="196" type="line"/>
      <point x="121" y="452" type="line"/>
      <point x="101" y="452" type="line"/>
      <point x="101" y="196" type="line"/>
    </contour>
    <contour>
      <point x="113" y="224" type="line"/>
      <point x="257" y="224" type="line"/>
      <point x="408" y="224" type="line"/>
      <point x="408" y="243" type="line"/>
      <point x="257" y="243" type="line"/>
      <point x="113" y="243" type="line"/>
    </contour>
    <contour>
      <point x="397" y="0" type="line"/>
      <point x="417" y="0" type="line"/>
      <point x="417" y="196" type="line"/>
      <point x="417" y="452" type="line"/>
      <point x="397" y="452" type="line"/>
      <point x="397" y="196" type="line"/>
    </contour>
  </outline>
</glyph>
<glyph name="dzhe-cy" format="2">
  <advance width="498"/>
  <unicode hex="045F"/>
  <outline>
    <contour>
      <point x="112" y="21" type="line"/>
      <point x="112" y="0" type="line"/>
      <point x="387" y="0" type="line"/>
      <point x="387" y="20" type="line"/>
    </contour>
    <contour>
      <point x="101" y="0" type="line"/>
      <point x="121" y="0" type="line"/>
      <point x="121" y="196" type="line"/>
      <point x="121" y="452" type="line"/>
      <point x="101" y="452" type="line"/>
      <point x="101" y="196" type="line"/>
    </contour>
    <contour>
      <point x="377" y="0" type="line"/>
      <point x="397" y="0" type="line"/>
      <point x="397" y="196" type="line"/>
      <point x="397" y="452" type="line"/>
      <point x="377" y="452" type="line"/>
      <point x="377" y="196" type="line"/>
    </contour>
    <component base="descender-cy.alt" xOffset="148"/>
  </outline>
</glyph>
<glyph name="Yusbig-cy" format="2">
  <advance width="726"/>
  <unicode hex="046A"/>
  <outline>
    <contour>
      <point x="44" y="-7" type="curve"/>
      <point x="48" y="-6" type="line"/>
      <point x="131" y="85"/>
      <point x="195" y="160"/>
      <point x="255" y="240" type="curve" smooth="yes"/>
      <point x="292" y="290"/>
      <point x="308" y="299"/>
      <point x="363" y="299" type="curve" smooth="yes"/>
      <point x="417" y="299"/>
      <point x="433" y="290"/>
      <point x="471" y="240" type="curve" smooth="yes"/>
      <point x="531" y="160"/>
      <point x="595" y="85"/>
      <point x="678" y="-6" type="curve"/>
      <point x="682" y="-7" type="line"/>
      <point x="690" y="-4"/>
      <point x="694" y="-1"/>
      <point x="696" y="1" type="curve"/>
      <point x="696" y="5" type="line"/>
      <point x="620" y="88"/>
      <point x="559" y="160"/>
      <point x="498" y="240" type="curve" smooth="yes"/>
      <point x="447" y="307"/>
      <point x="426" y="319"/>
      <point x="363" y="319" type="curve" smooth="yes"/>
      <point x="298" y="319"/>
      <point x="278" y="307"/>
      <point x="228" y="240" type="curve" smooth="yes"/>
      <point x="152" y="142"/>
      <point x="91" y="69"/>
      <point x="30" y="5" type="curve"/>
      <point x="30" y="1" type="line"/>
      <point x="32" y="-1"/>
      <point x="36" y="-4"/>
    </contour>
    <contour>
      <point x="353" y="0" type="line"/>
      <point x="373" y="0" type="line"/>
      <point x="373" y="195" type="line"/>
      <point x="373" y="310" type="line"/>
      <point x="353" y="310" type="line"/>
      <point x="353" y="195" type="line"/>
    </contour>
    <contour>
      <point x="359" y="292" type="line"/>
      <point x="367" y="292" type="line"/>
      <point x="655" y="620" type="line"/>
      <point x="655" y="637" type="line"/>
      <point x="71" y="637" type="line"/>
      <point x="71" y="620" type="line"/>
    </contour>
    <contour>
      <point x="363" y="317" type="line"/>
      <point x="100" y="617" type="line"/>
      <point x="626" y="617" type="line"/>
    </contour>
  </outline>
</glyph>
<glyph name="yusbig-cy" format="2">
  <advance width="545"/>
  <unicode hex="046B"/>
  <outline>
    <contour>
      <point x="37" y="-5" type="curve"/>
      <point x="40" y="-4" type="line"/>
      <point x="93" y="52"/>
      <point x="136" y="101"/>
      <point x="190" y="168" type="curve" smooth="yes"/>
      <point x="219" y="203"/>
      <point x="231" y="209"/>
      <point x="272" y="209" type="curve" smooth="yes"/>
      <point x="314" y="209"/>
      <point x="325" y="203"/>
      <point x="353" y="168" type="curve" smooth="yes"/>
      <point x="400" y="108"/>
      <point x="446" y="56"/>
      <point x="504" y="-4" type="curve"/>
      <point x="508" y="-5" type="line"/>
      <point x="517" y="-2"/>
      <point x="521" y="-1"/>
      <point x="524" y="1" type="curve"/>
      <point x="525" y="5" type="line"/>
      <point x="475" y="57"/>
      <point x="432" y="105"/>
      <point x="379" y="169" type="curve" smooth="yes"/>
      <point x="338" y="219"/>
      <point x="322" y="228"/>
      <point x="272" y="228" type="curve" smooth="yes"/>
      <point x="220" y="228"/>
      <point x="205" y="220"/>
      <point x="165" y="169" type="curve" smooth="yes"/>
      <point x="111" y="102"/>
      <point x="67" y="52"/>
      <point x="20" y="5" type="curve"/>
      <point x="20" y="1" type="line"/>
      <point x="28" y="-2"/>
      <point x="32" y="-4"/>
    </contour>
    <contour>
      <point x="262" y="0" type="line"/>
      <point x="283" y="0" type="line"/>
      <point x="282" y="139" type="line"/>
      <point x="282" y="220" type="line"/>
      <point x="262" y="220" type="line"/>
      <point x="262" y="138" type="line"/>
    </contour>
    <contour>
      <point x="263" y="209" type="line"/>
      <point x="282" y="209" type="line"/>
      <point x="492" y="436" type="line"/>
      <point x="492" y="452" type="line"/>
      <point x="52" y="452" type="line"/>
      <point x="52" y="436" type="line"/>
    </contour>
    <contour>
      <point x="272" y="226" type="line"/>
      <point x="80" y="433" type="line"/>
      <point x="464" y="433" type="line"/>
    </contour>
  </outline>
</glyph>
<glyph name="izhitsa-cy" format="2">
  <advance width="407"/>
  <unicode hex="0475"/>
  <outline>
    <contour>
      <point x="393" y="453" type="line"/>
      <point x="364" y="455"/>
      <point x="349" y="438"/>
      <point x="328" y="380" type="curve" smooth="yes"/>
      <point x="197" y="31" type="line"/>
      <point x="193" y="31" type="line"/>
      <point x="63" y="410" type="line"/>
      <point x="49" y="455" type="line"/>
      <point x="29" y="451" type="line"/>
      <point x="183" y="0" type="line"/>
      <point x="205" y="0" type="line"/>
      <point x="345" y="373" type="line" smooth="yes"/>
      <point x="362" y="421"/>
      <point x="372" y="433"/>
      <point x="393" y="433" type="curve"/>
      <point x="395" y="436" type="line"/>
    </contour>
  </outline>
</glyph>
<glyph name="gheupturn-cy" format="2">
  <advance width="324"/>
  <unicode hex="0491"/>
  <outline>
    <contour>
      <point x="319" y="452" type="line"/>
      <point x="114" y="452" type="line"/>
      <point x="111" y="436" type="line"/>
      <point x="114" y="433" type="line"/>
      <point x="219" y="433" type="line"/>
      <point x="322" y="433" type="line"/>
    </contour>
    <contour>
      <point x="101" y="0" type="line"/>
      <point x="121" y="0" type="line"/>
      <point x="121" y="196" type="line"/>
      <point x="121" y="452" type="line"/>
      <point x="101" y="452" type="line"/>
      <point x="101" y="196" type="line"/>
    </contour>
    <contour>
      <point x="322" y="433" type="line"/>
      <point x="328" y="550" type="line"/>
      <point x="309" y="549" type="line"/>
      <point x="302" y="435" type="line"/>
    </contour>
  </outline>
</glyph>
<glyph name="Kadescender-cy" format="2">
  <advance width="584"/>
  <unicode hex="049A"/>
  <outline>
    <contour>
      <point x="207" y="340" type="curve"/>
      <point x="503" y="637" type="line"/>
      <point x="472" y="637" type="line"/>
      <point x="429" y="590" type="line"/>
      <point x="180" y="341" type="line"/>
      <point x="180" y="338" type="line"/>
      <point x="279" y="219"/>
      <point x="384" y="109"/>
      <point x="495" y="1" type="curve"/>
      <point x="499" y="0" type="line"/>
      <point x="513" y="7" type="line"/>
      <point x="513" y="11" type="line"/>
      <point x="405" y="114"/>
      <point x="302" y="225"/>
    </contour>
    <contour>
      <point x="131" y="0" type="line"/>
      <point x="151" y="0" type="line"/>
      <point x="151" y="195" type="line"/>
      <point x="151" y="637" type="line"/>
      <point x="131" y="637" type="line"/>
      <point x="131" y="195" type="line"/>
    </contour>
    <contour>
      <point x="536" y="-115" type="line"/>
      <point x="556" y="-111" type="line"/>
      <point x="556" y="20" type="line"/>
      <point x="536" y="15" type="line"/>
    </contour>
    <contour>
      <point x="499" y="0" type="line"/>
      <point x="556" y="0" type="line"/>
      <point x="556" y="20" type="line"/>
      <point x="499" y="20" type="line"/>
    </contour>
  </outline>
</glyph>
<glyph name="Kabashkir-cy" format="2">
  <advance width="631"/>
  <unicode hex="04A0"/>
  <outline>
    <contour>
      <point x="584" y="637" type="line"/>
      <point x="553" y="637" type="line"/>
      <point x="510" y="590" type="line"/>
      <point x="261" y="341" type="line"/>
      <point x="261" y="338" type="line"/>
      <point x="360" y="219"/>
      <point x="471" y="102"/>
      <point x="582" y="-6" type="curve"/>
      <point x="586" y="-7" type="line"/>
      <point x="591" y="-5"/>
      <point x="597" y="-3"/>
      <point x="600" y="1" type="curve"/>
      <point x="600" y="5" type="line"/>
      <point x="492" y="108"/>
      <point x="383" y="225"/>
      <point x="288" y="340" type="curve"/>
    </contour>
    <contour>
      <point x="232" y="637" type="line"/>
      <point x="212" y="637" type="line"/>
      <point x="212" y="195" type="line"/>
      <point x="212" y="0" type="line"/>
      <point x="232" y="0" type="line"/>
      <point x="232" y="195" type="line"/>
    </contour>
    <contour>
      <point x="223" y="617" type="line"/>
      <point x="223" y="637" type="line"/>
      <point x="16" y="637" type="line"/>
      <point x="12" y="621" type="line"/>
      <point x="15" y="617" type="line"/>
      <point x="119" y="617" type="line"/>
    </contour>
  </outline>
</glyph>
<glyph name="kabashkir-cy" format="2">
  <advance width="464"/>
  <unicode hex="04A1"/>
  <outline>
    <contour>
      <point x="431" y="-7" type="line"/>
      <point x="436" y="-5"/>
      <point x="442" y="-3"/>
      <point x="445" y="1" type="curve"/>
      <point x="445" y="5" type="line"/>
      <point x="368" y="78"/>
      <point x="290" y="159"/>
      <point x="218" y="241" type="curve"/>
      <point x="429" y="452" type="line"/>
      <point x="399" y="452" type="line"/>
      <point x="370" y="418" type="line"/>
      <point x="192" y="243" type="line"/>
      <point x="192" y="238" type="line"/>
      <point x="268" y="154"/>
      <point x="347" y="72"/>
      <point x="427" y="-6" type="curve"/>
    </contour>
    <contour>
      <point x="143" y="0" type="line"/>
      <point x="163" y="0" type="line"/>
      <point x="163" y="196" type="line"/>
      <point x="163" y="452" type="line"/>
      <point x="143" y="452" type="line"/>
      <point x="143" y="196" type="line"/>
    </contour>
    <contour>
      <point x="1" y="433" type="line"/>
      <point x="73" y="433" type="line"/>
      <point x="154" y="433" type="line"/>
      <point x="154" y="452" type="line"/>
      <point x="2" y="452" type="line"/>
      <point x="-1" y="436" type="line"/>
    </contour>
  </outline>
</glyph>
<glyph name="Enghe-cy" format="2">
  <advance width="872"/>
  <unicode hex="04A4"/>
  <outline>
    <contour>
      <point x="561" y="0" type="line"/>
      <point x="581" y="0" type="line"/>
      <point x="581" y="195" type="line"/>
      <point x="581" y="637" type="line"/>
      <point x="561" y="637" type="line"/>
      <point x="561" y="195" type="line"/>
    </contour>
    <contour>
      <point x="131" y="0" type="line"/>
      <point x="151" y="0" type="line"/>
      <point x="151" y="195" type="line"/>
      <point x="151" y="637" type="line"/>
      <point x="131" y="637" type="line"/>
      <point x="131" y="195" type="line"/>
    </contour>
    <contour>
      <point x="145" y="314" type="line"/>
      <point x="349" y="314" type="line"/>
      <point x="570" y="314" type="line"/>
      <point x="570" y="334" type="line"/>
      <point x="353" y="334" type="line"/>
      <point x="145" y="334" type="line"/>
    </contour>
    <contour>
      <point x="568" y="637" type="line"/>
      <point x="568" y="617" type="line"/>
      <point x="755" y="617" type="line"/>
      <point x="856" y="617" type="line"/>
      <point x="860" y="633" type="line"/>
      <point x="857" y="637" type="line"/>
    </contour>
  </outline>
</glyph>
<glyph name="enghe-cy" format="2">
  <advance width="616"/>
  <unicode hex="04A5"/>
  <outline>
    <contour>
      <point x="113" y="239" type="line"/>
      <point x="113" y="220" type="line"/>
      <point x="257" y="220" type="line"/>
      <point x="408" y="220" type="line"/>
      <point x="408" y="239" type="line"/>
      <point x="257" y="239" type="line"/>
    </contour>
    <contour>
      <point x="101" y="0" type="line"/>
      <point x="121" y="0" type="line"/>
      <point x="121" y="196" type="line"/>
      <point x="121" y="452" type="line"/>
      <point x="101" y="452" type="line"/>
      <point x="101" y="196" type="line"/>
    </contour>
    <contour>
      <point x="397" y="0" type="line"/>
      <point x="417" y="0" type="line"/>
      <point x="417" y="196" type="line"/>
      <point x="417" y="452" type="line"/>
      <point x="397" y="452" type="line"/>
      <point x="397" y="196" type="line"/>
    </contour>
    <contour>
      <point x="618" y="433" type="line"/>
      <point x="622" y="449" type="line"/>
      <point x="619" y="452" type="line"/>
      <point x="410" y="452" type="line"/>
      <point x="407" y="436" type="line"/>
      <point x="410" y="433" type="line"/>
      <point x="515" y="433" type="line"/>
    </contour>
  </outline>
</glyph>
<glyph name="ustrait-cy" format="2">
  <advance width="407"/>
  <unicode hex="04AF"/>
  <anchor x="196" y="-13" name="center"/>
  <outline>
    <contour>
      <point x="186" y="-5" type="line"/>
      <point x="201" y="-5" type="line"/>
      <point x="387" y="452" type="line"/>
      <point x="363" y="452" type="line"/>
      <point x="348" y="409" type="line"/>
      <point x="197" y="35" type="line"/>
      <point x="193" y="35" type="line"/>
      <point x="63" y="409" type="line"/>
      <point x="50" y="454" type="line"/>
      <point x="29" y="450" type="line"/>
    </contour>
    <contour>
      <point x="184" y="-185" type="line"/>
      <point x="204" y="-185" type="line"/>
      <point x="204" y="27" type="line"/>
      <point x="184" y="27" type="line"/>
    </contour>
  </outline>
</glyph>
<glyph name="hadescender-cy" format="2">
  <advance width="445"/>
  <unicode hex="04B3"/>
  <anchor x="364" y="-2" name="bottomright"/>
  <outline>
    <contour>
      <point x="74" y="454" type="line"/>
      <point x="50" y="449" type="line"/>
      <point x="202" y="233" type="line"/>
      <point x="38" y="0" type="line"/>
      <point x="65" y="0" type="line"/>
      <point x="85" y="31" type="line"/>
      <point x="214" y="216" type="line"/>
      <point x="342" y="33" type="line"/>
      <point x="363" y="0" type="line"/>
      <point x="388" y="3" type="line"/>
      <point x="227" y="231" type="line"/>
      <point x="382" y="452" type="line"/>
      <point x="355" y="452" type="line"/>
      <point x="334" y="418" type="line"/>
      <point x="215" y="248" type="line"/>
      <point x="93" y="423" type="line"/>
    </contour>
    <contour>
      <point x="402" y="-101" type="line"/>
      <point x="422" y="-97" type="line"/>
      <point x="422" y="20" type="line"/>
      <point x="402" y="20" type="line"/>
    </contour>
    <contour>
      <point x="363" y="0" type="line"/>
      <point x="422" y="0" type="line"/>
      <point x="422" y="20" type="line"/>
      <point x="363" y="20" type="line"/>
    </contour>
  </outline>
</glyph>
<glyph name="Shha-cy" format="2">
  <advance width="569"/>
  <unicode hex="04BA"/>
  <outline>
    <contour>
      <point x="474" y="0" type="line"/>
      <point x="495" y="0" type="line"/>
      <point x="495" y="220" type="line" smooth="yes"/>
      <point x="495" y="352"/>
      <point x="445" y="414"/>
      <point x="337" y="414" type="curve"/>
      <point x="273" y="414"/>
      <point x="213" y="388"/>
      <point x="155" y="335" type="curve"/>
      <point x="141" y="335" type="line"/>
      <point x="141" y="298" type="line"/>
      <point x="207" y="365"/>
      <point x="268" y="394"/>
      <point x="340" y="394" type="curve" smooth="yes"/>
      <point x="430" y="394"/>
      <point x="474" y="335"/>
      <point x="474" y="217" type="curve" smooth="yes"/>
    </contour>
    <contour>
      <point x="131" y="0" type="line"/>
      <point x="151" y="0" type="line"/>
      <point x="151" y="195" type="line"/>
      <point x="151" y="637" type="line"/>
      <point x="131" y="637" type="line"/>
      <point x="131" y="195" type="line"/>
    </contour>
  </outline>
</glyph>
<glyph name="Chekhakassian-cy" format="2">
  <advance width="571"/>
  <unicode hex="04CB"/>
  <anchor x="419" y="0" name="bottomright"/>
  <anchor x="256" y="637" name="top"/>
  <outline>
    <contour>
      <point x="237" y="226" type="curve"/>
      <point x="303" y="226"/>
      <point x="362" y="253"/>
      <point x="415" y="305" type="curve"/>
      <point x="429" y="305" type="line"/>
      <point x="429" y="346" type="line"/>
      <point x="367" y="277"/>
      <point x="306" y="246"/>
      <point x="234" y="246" type="curve" smooth="yes"/>
      <point x="141" y="246"/>
      <point x="95" y="290"/>
      <point x="95" y="383" type="curve" smooth="yes"/>
      <point x="95" y="637" type="line"/>
      <point x="75" y="637" type="line"/>
      <point x="75" y="380" type="line" smooth="yes"/>
      <point x="75" y="274"/>
      <point x="126" y="226"/>
    </contour>
    <contour>
      <point x="313" y="-115" type="line"/>
      <point x="333" y="-111" type="line"/>
      <point x="333" y="20" type="line"/>
      <point x="313" y="20" type="line"/>
    </contour>
    <contour>
      <point x="313" y="0" type="line"/>
      <point x="440" y="0" type="line"/>
      <point x="440" y="20" type="line"/>
      <point x="313" y="20" type="line"/>
    </contour>
    <contour>
      <point x="419" y="0" type="line"/>
      <point x="440" y="0" type="line"/>
      <point x="439" y="195" type="line"/>
      <point x="440" y="637" type="line"/>
      <point x="419" y="637" type="line"/>
      <point x="419" y="195" type="line"/>
    </contour>
  </outline>
</glyph>
<glyph name="obarred-cy" format="2">
  <advance width="494"/>
  <unicode hex="04E9"/>
  <outline>
    <contour>
      <point x="243" y="-5" type="curve" smooth="yes"/>
      <point x="365" y="-5"/>
      <point x="440" y="84"/>
      <point x="440" y="230" type="curve" smooth="yes"/>
      <point x="440" y="371"/>
      <point x="368" y="457"/>
      <point x="250" y="457" type="curve" smooth="yes"/>
      <point x="128" y="457"/>
      <point x="53" y="368"/>
      <point x="53" y="222" type="curve" smooth="yes"/>
      <point x="53" y="81"/>
      <point x="125" y="-5"/>
    </contour>
    <contour>
      <point x="243" y="15" type="curve" smooth="yes"/>
      <point x="138" y="15"/>
      <point x="73" y="93"/>
      <point x="73" y="222" type="curve" smooth="yes"/>
      <point x="73" y="356"/>
      <point x="140" y="437"/>
      <point x="250" y="437" type="curve" smooth="yes"/>
      <point x="355" y="437"/>
      <point x="420" y="359"/>
      <point x="420" y="230" type="curve" smooth="yes"/>
      <point x="420" y="96"/>
      <point x="353" y="15"/>
    </contour>
    <contour>
      <point x="62" y="212" type="line"/>
      <point x="430" y="219" type="line"/>
      <point x="429" y="239" type="line"/>
      <point x="61" y="232" type="line"/>
    </contour>
  </outline>
</glyph>
<glyph name="dialytikaperispomeni" format="2">
  <advance width="348"/>
  <unicode hex="1FC1"/>
  <anchor x="172" y="452" name="_top"/>
  <outline>
    <contour>
      <point x="96" y="520" type="curve" smooth="yes"/>
      <point x="108" y="520"/>
      <point x="116" y="528"/>
      <point x="116" y="540" type="curve" smooth="yes"/>
      <point x="116" y="552"/>
      <point x="108" y="560"/>
      <point x="96" y="560" type="curve" smooth="yes"/>
      <point x="84" y="560"/>
      <point x="76" y="552"/>
      <point x="76" y="540" type="curve" smooth="yes"/>
      <point x="76" y="528"/>
      <point x="84" y="520"/>
    </contour>
    <contour>
      <point x="236" y="520" type="curve" smooth="yes"/>
      <point x="248" y="520"/>
      <point x="256" y="528"/>
      <point x="256" y="540" type="curve" smooth="yes"/>
      <point x="256" y="552"/>
      <point x="248" y="560"/>
      <point x="236" y="560" type="curve" smooth="yes"/>
      <point x="224" y="560"/>
      <point x="216" y="552"/>
      <point x="216" y="540" type="curve" smooth="yes"/>
      <point x="216" y="528"/>
      <point x="224" y="520"/>
    </contour>
    <contour>
      <point x="265.468" y="657.824" type="line"/>
      <point x="262.874" y="657.824" type="line"/>
      <point x="242.983" y="637.069"/>
      <point x="233.47" y="622.367"/>
      <point x="224.822" y="622.367" type="curve"/>
      <point x="206.662" y="622.367"/>
      <point x="138.342" y="651.77"/>
      <point x="110.669" y="655.23" type="curve"/>
      <point x="106.345" y="653.5" type="line"/>
      <point x="67.429" y="613.719" type="line"/>
      <point x="67.429" y="610.26" type="line"/>
      <point x="75.212" y="600.747" type="line"/>
      <point x="77.806" y="600.747" type="line"/>
      <point x="97.697" y="621.502"/>
      <point x="107.21" y="636.204"/>
      <point x="115.858" y="636.204" type="curve"/>
      <point x="134.018" y="636.204"/>
      <point x="202.338" y="606.801"/>
      <point x="230.011" y="603.342" type="curve"/>
      <point x="233.47" y="605.071" type="line"/>
      <point x="272.386" y="645.717" type="line"/>
      <point x="272.386" y="649.176" type="line"/>
    </contour>
  </outline>
</glyph>
<glyph name="dialytikavaria" format="2">
  <advance width="293"/>
  <unicode hex="1FED"/>
  <anchor x="150" y="452" name="_top"/>
  <outline>
    <contour>
      <point x="160" y="540" type="line"/>
      <point x="174" y="546" type="line"/>
      <point x="159" y="579"/>
      <point x="145" y="615"/>
      <point x="129" y="659" type="curve"/>
      <point x="124" y="660" type="line"/>
      <point x="111" y="656" type="line"/>
      <point x="109" y="650" type="line"/>
      <point x="155" y="541" type="line"/>
    </contour>
    <contour>
      <point x="80" y="554" type="curve" smooth="yes"/>
      <point x="92" y="554"/>
      <point x="100" y="562"/>
      <point x="100" y="574" type="curve" smooth="yes"/>
      <point x="100" y="586"/>
      <point x="92" y="594"/>
      <point x="80" y="594" type="curve" smooth="yes"/>
      <point x="68" y="594"/>
      <point x="60" y="586"/>
      <point x="60" y="574" type="curve" smooth="yes"/>
      <point x="60" y="562"/>
      <point x="68" y="554"/>
    </contour>
    <contour>
      <point x="220" y="554" type="curve" smooth="yes"/>
      <point x="232" y="554"/>
      <point x="240" y="562"/>
      <point x="240" y="574" type="curve" smooth="yes"/>
      <point x="240" y="586"/>
      <point x="232" y="594"/>
      <point x="220" y="594" type="curve" smooth="yes"/>
      <point x="208" y="594"/>
      <point x="200" y="586"/>
      <point x="200" y="574" type="curve" smooth="yes"/>
      <point x="200" y="562"/>
      <point x="208" y="554"/>
    </contour>
  </outline>
</glyph>
<glyph name="endash" format="2">
  <advance width="492"/>
  <unicode hex="2013"/>
  <outline>
    <contour>
      <point x="504" y="264" type="line"/>
      <point x="-13" y="264" type="line"/>
      <point x="-15" y="247" type="line"/>
      <point x="-12" y="244" type="line"/>
      <point x="505" y="244" type="line"/>
      <point x="507" y="261" type="line"/>
    </contour>
  </outline>
</glyph>
<glyph name="emdash" format="2">
  <advance width="972"/>
  <unicode hex="2014"/>
  <outline>
    <contour>
      <point x="984" y="264" type="line"/>
      <point x="-13" y="264" type="line"/>
      <point x="-15" y="247" type="line"/>
      <point x="-12" y="244" type="line"/>
      <point x="985" y="244" type="line"/>
      <point x="987" y="261" type="line"/>
    </contour>
  </outline>
</glyph>
<glyph name="perthousand" format="2">
  <advance width="1165"/>
  <unicode hex="2030"/>
  <outline>
    <contour>
      <point x="160" y="516" type="move"/>
    </contour>
    <contour>
      <point x="613" y="669" type="line"/>
      <point x="128" y="-77" type="line"/>
      <point x="132" y="-86" type="line"/>
      <point x="141" y="-90" type="line"/>
      <point x="626" y="656" type="line"/>
      <point x="623" y="664" type="line"/>
    </contour>
    <contour>
      <point x="607" y="338.55" type="curve" smooth="yes"/>
      <point x="518" y="338.55"/>
      <point x="469" y="277.245"/>
      <point x="469" y="167.445" type="curve" smooth="yes"/>
      <point x="469" y="57.645"/>
      <point x="517" y="-2.745"/>
      <point x="605" y="-2.745" type="curve" smooth="yes"/>
      <point x="694" y="-2.745"/>
      <point x="742" y="58.56"/>
      <point x="742" y="169.275" type="curve" smooth="yes"/>
      <point x="742" y="278.16"/>
      <point x="694" y="338.55"/>
    </contour>
    <contour>
      <point x="605" y="320.25" type="curve" smooth="yes"/>
      <point x="682" y="320.25"/>
      <point x="724" y="266.265"/>
      <point x="724" y="167.445" type="curve" smooth="yes"/>
      <point x="724" y="69.54"/>
      <point x="682" y="15.555"/>
      <point x="607" y="15.555" type="curve" smooth="yes"/>
      <point x="530" y="15.555"/>
      <point x="487" y="69.54"/>
      <point x="487" y="169.275" type="curve" smooth="yes"/>
      <point x="487" y="266.265"/>
      <point x="529" y="320.25"/>
    </contour>
    <contour>
      <point x="980" y="338.55" type="curve" smooth="yes"/>
      <point x="891" y="338.55"/>
      <point x="842" y="277.245"/>
      <point x="842" y="167.445" type="curve" smooth="yes"/>
      <point x="842" y="57.645"/>
      <point x="890" y="-2.745"/>
      <point x="978" y="-2.745" type="curve" smooth="yes"/>
      <point x="1067" y="-2.745"/>
      <point x="1115" y="58.56"/>
      <point x="1115" y="169.275" type="curve" smooth="yes"/>
      <point x="1115" y="278.16"/>
      <point x="1067" y="338.55"/>
    </contour>
    <contour>
      <point x="978" y="320.25" type="curve" smooth="yes"/>
      <point x="1055" y="320.25"/>
      <point x="1097" y="266.265"/>
      <point x="1097" y="167.445" type="curve" smooth="yes"/>
      <point x="1097" y="69.54"/>
      <point x="1055" y="15.555"/>
      <point x="980" y="15.555" type="curve" smooth="yes"/>
      <point x="903" y="15.555"/>
      <point x="860" y="69.54"/>
      <point x="860" y="169.275" type="curve" smooth="yes"/>
      <point x="860" y="266.265"/>
      <point x="902" y="320.25"/>
    </contour>
    <contour>
      <point x="188" y="637.55" type="curve" smooth="yes"/>
      <point x="99" y="637.55"/>
      <point x="50" y="576.245"/>
      <point x="50" y="466.445" type="curve" smooth="yes"/>
      <point x="50" y="356.645"/>
      <point x="98" y="296.255"/>
      <point x="186" y="296.255" type="curve" smooth="yes"/>
      <point x="275" y="296.255"/>
      <point x="323" y="357.56"/>
      <point x="323" y="468.275" type="curve" smooth="yes"/>
      <point x="323" y="577.16"/>
      <point x="275" y="637.55"/>
    </contour>
    <contour>
      <point x="186" y="619.25" type="curve" smooth="yes"/>
      <point x="263" y="619.25"/>
      <point x="305" y="565.265"/>
      <point x="305" y="466.445" type="curve" smooth="yes"/>
      <point x="305" y="368.54"/>
      <point x="263" y="314.555"/>
      <point x="188" y="314.555" type="curve" smooth="yes"/>
      <point x="111" y="314.555"/>
      <point x="68" y="368.54"/>
      <point x="68" y="468.275" type="curve" smooth="yes"/>
      <point x="68" y="565.265"/>
      <point x="110" y="619.25"/>
    </contour>
  </outline>
</glyph>
<glyph name="guilsinglright" format="2">
  <advance width="214"/>
  <unicode hex="203A"/>
  <outline>
    <contour>
      <point x="-7" y="396" type="line"/>
      <point x="-19" y="387" type="line"/>
      <point x="-19" y="381" type="line"/>
      <point x="126" y="223" type="line"/>
      <point x="-19" y="65" type="line"/>
      <point x="-19" y="59" type="line"/>
      <point x="-7" y="50" type="line"/>
      <point x="148" y="218" type="line"/>
      <point x="148" y="229" type="line"/>
    </contour>
  </outline>
</glyph>
<glyph name="fraction" format="2">
  <advance width="46"/>
  <unicode hex="2044"/>
  <outline>
    <contour>
      <point x="240" y="669" type="line"/>
      <point x="-245" y="-77" type="line"/>
      <point x="-241" y="-86" type="line"/>
      <point x="-232" y="-90" type="line"/>
      <point x="253" y="656" type="line"/>
      <point x="250" y="664" type="line"/>
    </contour>
  </outline>
</glyph>
<glyph name="commercialMinusSign" format="2">
  <advance width="613"/>
  <unicode hex="2052"/>
  <outline>
    <contour>
      <point x="524" y="669" type="line"/>
      <point x="78" y="-17" type="line"/>
      <point x="82" y="-26" type="line"/>
      <point x="91" y="-30" type="line"/>
      <point x="537" y="656" type="line"/>
      <point x="534" y="664" type="line"/>
    </contour>
    <contour>
      <point x="102.966" y="638.198" type="curve" smooth="yes"/>
      <point x="86.483" y="638.198"/>
      <point x="75.494" y="627.209"/>
      <point x="75.494" y="610.725" type="curve" smooth="yes"/>
      <point x="75.494" y="594.242"/>
      <point x="86.483" y="583.253"/>
      <point x="102.966" y="583.253" type="curve" smooth="yes"/>
      <point x="119.45" y="583.253"/>
      <point x="130.439" y="594.242"/>
      <point x="130.439" y="610.725" type="curve" smooth="yes"/>
      <point x="130.439" y="627.209"/>
      <point x="119.45" y="638.198"/>
    </contour>
    <contour>
      <point x="509.966" y="53.198" type="curve" smooth="yes"/>
      <point x="493.483" y="53.198"/>
      <point x="482.494" y="42.209"/>
      <point x="482.494" y="25.725" type="curve" smooth="yes"/>
      <point x="482.494" y="9.242"/>
      <point x="493.483" y="-1.747"/>
      <point x="509.966" y="-1.747" type="curve" smooth="yes"/>
      <point x="526.45" y="-1.747"/>
      <point x="537.439" y="9.242"/>
      <point x="537.439" y="25.725" type="curve" smooth="yes"/>
      <point x="537.439" y="42.209"/>
      <point x="526.45" y="53.198"/>
    </contour>
  </outline>
</glyph>
<glyph name="peseta" format="2">
  <advance width="1119"/>
  <unicode hex="20A7"/>
  <anchor x="922" y="0" name="bottom"/>
  <anchor x="613" y="226" name="center"/>
  <anchor x="937" y="452" name="top"/>
  <anchor x="692" y="452" name="topright"/>
  <outline>
    <contour>
      <point x="251" y="639" type="curve"/>
      <point x="110" y="637" type="line"/>
      <point x="116" y="618" type="line"/>
      <point x="258" y="619" type="line"/>
      <point x="357" y="615"/>
      <point x="412" y="558"/>
      <point x="412" y="460" type="curve" smooth="yes"/>
      <point x="412" y="350"/>
      <point x="354" y="279"/>
      <point x="249" y="269" type="curve"/>
      <point x="120" y="269" type="line"/>
      <point x="120" y="249" type="line"/>
      <point x="219" y="249" type="line"/>
      <point x="356" y="249"/>
      <point x="432" y="324"/>
      <point x="432" y="460" type="curve" smooth="yes"/>
      <point x="432" y="575"/>
      <point x="367" y="639"/>
    </contour>
    <contour>
      <point x="130" y="637" type="line"/>
      <point x="110" y="637" type="line"/>
      <point x="110" y="195" type="line"/>
      <point x="110" y="0" type="line"/>
      <point x="130" y="0" type="line"/>
      <point x="130" y="195" type="line"/>
    </contour>
    <contour>
      <point x="664" y="-4" type="curve" smooth="yes"/>
      <point x="687" y="-4"/>
      <point x="716" y="5"/>
      <point x="744" y="21" type="curve"/>
      <point x="746" y="39" type="line"/>
      <point x="742" y="42" type="line"/>
      <point x="716" y="25"/>
      <point x="688" y="16"/>
      <point x="664" y="16" type="curve" smooth="yes"/>
      <point x="616" y="16"/>
      <point x="590" y="51"/>
      <point x="590" y="113" type="curve" smooth="yes"/>
      <point x="590" y="563" type="line"/>
      <point x="586" y="566" type="line"/>
      <point x="570" y="560" type="line"/>
      <point x="570" y="222" type="line"/>
      <point x="570" y="112" type="line" smooth="yes"/>
      <point x="570" y="38"/>
      <point x="604" y="-4"/>
    </contour>
    <contour>
      <point x="508" y="432" type="line"/>
      <point x="745" y="432" type="line"/>
      <point x="748" y="448" type="line"/>
      <point x="745" y="452" type="line"/>
      <point x="507" y="452" type="line"/>
      <point x="504" y="436" type="line"/>
    </contour>
    <contour>
      <point x="955" y="455" type="curve" smooth="yes"/>
      <point x="875" y="455"/>
      <point x="822" y="408"/>
      <point x="822" y="343" type="curve" smooth="yes"/>
      <point x="822" y="210"/>
      <point x="1044" y="229"/>
      <point x="1044" y="116" type="curve" smooth="yes"/>
      <point x="1044" y="65"/>
      <point x="999" y="15"/>
      <point x="921" y="15" type="curve" smooth="yes"/>
      <point x="883" y="15"/>
      <point x="846" y="27"/>
      <point x="815" y="50" type="curve"/>
      <point x="810" y="47" type="line"/>
      <point x="807" y="30" type="line"/>
      <point x="838" y="8"/>
      <point x="881" y="-5"/>
      <point x="922" y="-5" type="curve" smooth="yes"/>
      <point x="1006" y="-5"/>
      <point x="1064" y="51"/>
      <point x="1064" y="117" type="curve" smooth="yes"/>
      <point x="1064" y="246"/>
      <point x="842" y="228"/>
      <point x="842" y="342" type="curve" smooth="yes"/>
      <point x="842" y="393"/>
      <point x="886" y="435"/>
      <point x="954" y="435" type="curve" smooth="yes"/>
      <point x="978" y="435"/>
      <point x="1007" y="430"/>
      <point x="1038" y="415" type="curve"/>
      <point x="1044" y="416" type="line"/>
      <point x="1049" y="435" type="line"/>
      <point x="1013" y="450"/>
      <point x="981" y="455"/>
    </contour>
  </outline>
</glyph>
<glyph name="tugrik" format="2">
  <advance width="523"/>
  <unicode hex="20AE"/>
  <outline>
    <contour>
      <point x="147" y="232" type="line"/>
      <point x="258" y="285" type="line"/>
      <point x="269" y="289" type="line"/>
      <point x="397" y="352" type="line"/>
      <point x="393" y="366" type="line"/>
      <point x="388" y="369" type="line"/>
      <point x="269" y="312" type="line"/>
      <point x="258" y="308" type="line"/>
      <point x="138" y="250" type="line"/>
      <point x="142" y="236" type="line"/>
    </contour>
    <contour>
      <point x="147" y="120" type="line"/>
      <point x="258" y="173" type="line"/>
      <point x="269" y="177" type="line"/>
      <point x="397" y="240" type="line"/>
      <point x="393" y="254" type="line"/>
      <point x="388" y="257" type="line"/>
      <point x="269" y="200" type="line"/>
      <point x="258" y="196" type="line"/>
      <point x="138" y="138" type="line"/>
      <point x="142" y="124" type="line"/>
    </contour>
    <contour>
      <point x="254" y="0" type="line"/>
      <point x="274" y="0" type="line"/>
      <point x="274" y="151" type="line"/>
      <point x="274" y="483" type="line"/>
      <point x="254" y="483" type="line"/>
      <point x="254" y="150" type="line"/>
    </contour>
    <contour>
      <point x="94" y="471" type="line"/>
      <point x="180" y="472" type="line"/>
      <point x="350" y="472" type="line"/>
      <point x="433" y="471" type="line"/>
      <point x="436" y="487" type="line"/>
      <point x="434" y="491" type="line"/>
      <point x="94" y="491" type="line"/>
      <point x="91" y="475" type="line"/>
    </contour>
  </outline>
</glyph>
<glyph name="guarani" format="2">
  <advance width="465"/>
  <unicode hex="20B2"/>
  <anchor x="242" y="0" name="bottom"/>
  <anchor x="258" y="491" name="top"/>
  <outline>
    <contour>
      <point x="263" y="482" type="line"/>
      <point x="242" y="482" type="line"/>
      <point x="202" y="7" type="line"/>
      <point x="222" y="7" type="line"/>
    </contour>
    <contour>
      <point x="222" y="7" type="line"/>
      <point x="202" y="7" type="line"/>
      <point x="191" y="-120" type="line"/>
      <point x="195" y="-124" type="line"/>
      <point x="210" y="-124" type="line"/>
    </contour>
    <contour>
      <point x="272" y="640" type="line"/>
      <point x="256" y="640" type="line"/>
      <point x="242" y="482" type="line"/>
      <point x="263" y="482" type="line"/>
      <point x="276" y="635" type="line"/>
    </contour>
    <contour>
      <point x="275" y="494" type="curve" smooth="yes"/>
      <point x="119" y="494"/>
      <point x="32" y="404"/>
      <point x="32" y="241" type="curve" smooth="yes"/>
      <point x="32" y="84"/>
      <point x="108" y="-3"/>
      <point x="246" y="-3" type="curve" smooth="yes"/>
      <point x="306" y="-3"/>
      <point x="346" y="4"/>
      <point x="418" y="23" type="curve"/>
      <point x="418" y="123" type="line"/>
      <point x="418" y="185" type="line"/>
      <point x="398" y="183" type="line"/>
      <point x="398" y="122" type="line"/>
      <point x="398" y="37" type="line"/>
      <point x="331" y="20"/>
      <point x="297" y="15"/>
      <point x="246" y="15" type="curve" smooth="yes"/>
      <point x="122" y="15"/>
      <point x="53" y="95"/>
      <point x="53" y="240" type="curve" smooth="yes"/>
      <point x="53" y="392"/>
      <point x="132" y="475"/>
      <point x="275" y="475" type="curve" smooth="yes"/>
      <point x="318" y="475"/>
      <point x="366" y="460"/>
      <point x="412" y="435" type="curve"/>
      <point x="417" y="435" type="line"/>
      <point x="423" y="453" type="line"/>
      <point x="375" y="480"/>
      <point x="322" y="494"/>
    </contour>
  </outline>
</glyph>
<glyph name="tenge" format="2">
  <advance width="530"/>
  <unicode hex="20B8"/>
  <outline>
    <contour>
      <point x="256" y="0" type="line"/>
      <point x="276" y="0" type="line"/>
      <point x="276" y="151" type="line"/>
      <point x="276" y="371" type="line"/>
      <point x="256" y="371" type="line"/>
      <point x="256" y="150" type="line"/>
    </contour>
    <contour>
      <point x="87" y="470" type="line"/>
      <point x="442" y="470" type="line"/>
      <point x="447" y="486" type="line"/>
      <point x="443" y="491" type="line"/>
      <point x="88" y="491" type="line"/>
      <point x="83" y="475" type="line"/>
    </contour>
    <contour>
      <point x="87" y="364" type="line"/>
      <point x="442" y="364" type="line"/>
      <point x="447" y="380" type="line"/>
      <point x="443" y="385" type="line"/>
      <point x="88" y="385" type="line"/>
      <point x="83" y="369" type="line"/>
    </contour>
  </outline>
</glyph>
<glyph name="manat" format="2">
  <advance width="674"/>
  <unicode hex="20BC"/>
  <outline>
    <contour>
      <point x="51" y="0" type="curve"/>
      <point x="71" y="3" type="line"/>
      <point x="71" y="302"/>
      <point x="168" y="479"/>
      <point x="341" y="479" type="curve" smooth="yes"/>
      <point x="509" y="479"/>
      <point x="602" y="309"/>
      <point x="602" y="0" type="curve"/>
      <point x="622" y="3" type="line"/>
      <point x="622" y="319"/>
      <point x="522" y="499"/>
      <point x="341" y="499" type="curve" smooth="yes"/>
      <point x="154" y="499"/>
      <point x="51" y="312"/>
    </contour>
    <contour>
      <point x="335" y="92" type="line"/>
      <point x="347" y="97" type="line"/>
      <point x="351" y="594" type="line"/>
      <point x="342" y="599" type="line"/>
      <point x="328" y="596" type="line"/>
      <point x="327" y="96" type="line"/>
    </contour>
  </outline>
</glyph>
<glyph name="ruble" format="2">
  <advance width="419"/>
  <unicode hex="20BD"/>
  <anchor x="215" y="0" name="bottom"/>
  <anchor x="215" y="494" name="top"/>
  <outline>
    <contour>
      <point x="234" y="492" type="curve"/>
      <point x="115" y="491" type="line"/>
      <point x="122" y="473" type="line"/>
      <point x="238" y="474" type="line"/>
      <point x="319" y="470"/>
      <point x="363" y="428"/>
      <point x="363" y="353" type="curve" smooth="yes"/>
      <point x="363" y="276"/>
      <point x="316" y="226"/>
      <point x="232" y="219" type="curve"/>
      <point x="125" y="219" type="line"/>
      <point x="125" y="200" type="line"/>
      <point x="207" y="200" type="line"/>
      <point x="320" y="200"/>
      <point x="384" y="254"/>
      <point x="384" y="354" type="curve" smooth="yes"/>
      <point x="384" y="443"/>
      <point x="330" y="492"/>
    </contour>
    <contour>
      <point x="135" y="491" type="line"/>
      <point x="115" y="491" type="line"/>
      <point x="115" y="150" type="line"/>
      <point x="115" y="0" type="line"/>
      <point x="135" y="0" type="line"/>
      <point x="135" y="151" type="line"/>
    </contour>
    <contour>
      <point x="254" y="106" type="line"/>
      <point x="45" y="106" type="line"/>
      <point x="43" y="89" type="line"/>
      <point x="46" y="86" type="line"/>
      <point x="255" y="86" type="line"/>
      <point x="257" y="103" type="line"/>
    </contour>
  </outline>
</glyph>
<glyph name="upDownArrow" format="2">
  <advance width="500"/>
  <unicode hex="2195"/>
  <outline>
    <contour>
      <point x="63" y="318" type="line"/>
      <point x="69" y="318" type="line"/>
      <point x="249" y="495" type="line"/>
      <point x="429" y="318" type="line"/>
      <point x="435" y="318" type="line"/>
      <point x="443" y="332" type="line"/>
      <point x="251" y="522" type="line"/>
      <point x="247" y="522" type="line"/>
      <point x="55" y="332" type="line"/>
    </contour>
    <contour>
      <point x="247" y="-80" type="line"/>
      <point x="251" y="-80" type="line"/>
      <point x="443" y="110" type="line"/>
      <point x="435" y="124" type="line"/>
      <point x="429" y="124" type="line"/>
      <point x="249" y="-53" type="line"/>
      <point x="69" y="124" type="line"/>
      <point x="63" y="124" type="line"/>
      <point x="55" y="110" type="line"/>
    </contour>
    <contour>
      <point x="239" y="-63" type="line"/>
      <point x="259" y="-63" type="line"/>
      <point x="259" y="505" type="line"/>
      <point x="239" y="505" type="line"/>
    </contour>
  </outline>
</glyph>
<glyph name="minus" format="2">
  <advance width="480"/>
  <unicode hex="2212"/>
  <outline>
    <contour>
      <point x="438" y="280" type="line"/>
      <point x="41" y="280" type="line"/>
      <point x="39" y="263" type="line"/>
      <point x="42" y="260" type="line"/>
      <point x="439" y="260" type="line"/>
      <point x="441" y="277" type="line"/>
    </contour>
  </outline>
</glyph>
<glyph name="infinity" format="2">
  <advance width="520"/>
  <unicode hex="221E"/>
  <outline>
    <contour>
      <point x="387" y="392" type="curve" smooth="yes"/>
      <point x="315" y="392"/>
      <point x="279" y="337"/>
      <point x="261" y="295" type="curve"/>
      <point x="238" y="344"/>
      <point x="203" y="392"/>
      <point x="133" y="392" type="curve" smooth="yes"/>
      <point x="62" y="392"/>
      <point x="19" y="344"/>
      <point x="19" y="269" type="curve" smooth="yes"/>
      <point x="19" y="194"/>
      <point x="63" y="143"/>
      <point x="133" y="143" type="curve" smooth="yes"/>
      <point x="199" y="143"/>
      <point x="233" y="189"/>
      <point x="260" y="249" type="curve"/>
      <point x="287" y="192"/>
      <point x="320" y="143"/>
      <point x="389" y="143" type="curve" smooth="yes"/>
      <point x="456" y="143"/>
      <point x="501" y="189"/>
      <point x="501" y="265" type="curve" smooth="yes"/>
      <point x="501" y="338"/>
      <point x="459" y="392"/>
    </contour>
    <contour>
      <point x="134" y="373" type="curve" smooth="yes"/>
      <point x="200" y="373"/>
      <point x="228" y="324"/>
      <point x="250" y="270" type="curve"/>
      <point x="226" y="216"/>
      <point x="196" y="162"/>
      <point x="132" y="162" type="curve" smooth="yes"/>
      <point x="75" y="162"/>
      <point x="38" y="205"/>
      <point x="38" y="269" type="curve" smooth="yes"/>
      <point x="38" y="333"/>
      <point x="74" y="373"/>
    </contour>
    <contour>
      <point x="386" y="373" type="curve" smooth="yes"/>
      <point x="448" y="373"/>
      <point x="482" y="327"/>
      <point x="482" y="265" type="curve" smooth="yes"/>
      <point x="482" y="199"/>
      <point x="445" y="162"/>
      <point x="390" y="162" type="curve" smooth="yes"/>
      <point x="325" y="162"/>
      <point x="296" y="213"/>
      <point x="270" y="270" type="curve"/>
      <point x="291" y="319"/>
      <point x="319" y="373"/>
    </contour>
  </outline>
</glyph>
<glyph name="downBlackTriangle" format="2">
  <advance width="402"/>
  <unicode hex="25BC"/>
  <outline>
    <contour>
      <point x="201" y="76" type="line"/>
      <point x="336" y="346" type="line"/>
      <point x="66" y="346" type="line"/>
    </contour>
  </outline>
</glyph>
<glyph name="Alpha.sups" format="2">
  <advance width="369"/>
  <anchor x="185" y="348" name="bottom"/>
  <anchor x="351" y="348" name="ogonek"/>
  <anchor x="185" y="756" name="top"/>
  <anchor x="76" y="756" name="topleft"/>
  <outline>
    <contour>
      <point x="200" y="756" type="line"/>
      <point x="177" y="756" type="line"/>
      <point x="12" y="348" type="line"/>
      <point x="35" y="348" type="line"/>
      <point x="45" y="379" type="line"/>
      <point x="186" y="728" type="line"/>
      <point x="189" y="728" type="line"/>
      <point x="319" y="378" type="line"/>
      <point x="328" y="348" type="line"/>
      <point x="351" y="348" type="line"/>
    </contour>
    <contour>
      <point x="287" y="499" type="line"/>
      <point x="182" y="498" type="line"/>
      <point x="80" y="499" type="line"/>
      <point x="78" y="479" type="line"/>
      <point x="179" y="479" type="line"/>
      <point x="290" y="479" type="line"/>
    </contour>
  </outline>
</glyph>
<glyph name="Beta.sups" format="2">
  <advance width="331"/>
  <outline>
    <contour>
      <point x="159" y="757" type="curve"/>
      <point x="70" y="756" type="line"/>
      <point x="79" y="737" type="line"/>
      <point x="106" y="738"/>
      <point x="134" y="738"/>
      <point x="160" y="738" type="curve" smooth="yes"/>
      <point x="215" y="738"/>
      <point x="248" y="709"/>
      <point x="248" y="660" type="curve" smooth="yes"/>
      <point x="248" y="610"/>
      <point x="222" y="578"/>
      <point x="174" y="568" type="curve"/>
      <point x="79" y="570" type="line"/>
      <point x="79" y="549" type="line"/>
      <point x="181" y="549" type="line"/>
      <point x="244" y="544"/>
      <point x="280" y="514"/>
      <point x="280" y="462" type="curve" smooth="yes"/>
      <point x="280" y="401"/>
      <point x="232" y="365"/>
      <point x="146" y="365" type="curve" smooth="yes"/>
      <point x="125" y="365"/>
      <point x="99" y="366"/>
      <point x="80" y="368" type="curve"/>
      <point x="70" y="348" type="line"/>
      <point x="93" y="347"/>
      <point x="127" y="346"/>
      <point x="146" y="346" type="curve" smooth="yes"/>
      <point x="247" y="346"/>
      <point x="302" y="388"/>
      <point x="302" y="461" type="curve" smooth="yes"/>
      <point x="302" y="520"/>
      <point x="265" y="553"/>
      <point x="207" y="562" type="curve"/>
      <point x="246" y="577"/>
      <point x="270" y="610"/>
      <point x="270" y="662" type="curve" smooth="yes"/>
      <point x="270" y="723"/>
      <point x="230" y="757"/>
    </contour>
    <contour>
      <point x="91" y="756" type="line"/>
      <point x="70" y="756" type="line"/>
      <point x="71" y="473" type="line"/>
      <point x="70" y="348" type="line"/>
      <point x="91" y="348" type="line"/>
      <point x="91" y="473" type="line"/>
    </contour>
  </outline>
</glyph>
<glyph name="D.ss01" format="2">
  <advance width="685"/>
  <anchor x="340" y="0" name="bottom"/>
  <anchor x="340" y="319" name="center"/>
  <anchor x="340" y="637" name="top"/>
  <outline>
    <contour>
      <point x="322" y="0" type="line"/>
      <point x="507" y="0"/>
      <point x="610" y="121"/>
      <point x="610" y="339" type="curve" smooth="yes"/>
      <point x="610" y="535"/>
      <point x="511" y="637"/>
      <point x="332" y="637" type="curve"/>
      <point x="131" y="637" type="line"/>
      <point x="142" y="617" type="line"/>
      <point x="332" y="617" type="line"/>
      <point x="498" y="617"/>
      <point x="590" y="521"/>
      <point x="590" y="339" type="curve" smooth="yes"/>
      <point x="590" y="134"/>
      <point x="494" y="20"/>
      <point x="322" y="20" type="curve"/>
      <point x="142" y="20" type="line"/>
      <point x="131" y="0" type="line"/>
    </contour>
    <contour>
      <point x="-40" y="0" type="line"/>
      <point x="725" y="0" type="line"/>
      <point x="725" y="20" type="line"/>
      <point x="-40" y="20" type="line"/>
    </contour>
    <contour>
      <point x="131" y="0" type="line"/>
      <point x="151" y="0" type="line"/>
      <point x="151" y="195" type="line"/>
      <point x="151" y="637" type="line"/>
      <point x="131" y="637" type="line"/>
      <point x="131" y="195" type="line"/>
    </contour>
    <contour>
      <point x="-40" y="617" type="line"/>
      <point x="725" y="617" type="line"/>
      <point x="725" y="637" type="line"/>
      <point x="-40" y="637" type="line"/>
    </contour>
  </outline>
</glyph>
<glyph name="Eta.sups" format="2">
  <advance width="443"/>
  <anchor x="222" y="348" name="bottom"/>
  <anchor x="352" y="348" name="bottomright"/>
  <anchor x="222" y="552" name="center"/>
  <anchor x="222" y="756" name="top"/>
  <anchor x="3" y="756" name="topleft"/>
  <outline>
    <contour>
      <point x="373" y="756" type="line"/>
      <point x="352" y="756" type="line"/>
      <point x="352" y="473" type="line"/>
      <point x="352" y="348" type="line"/>
      <point x="373" y="348" type="line"/>
      <point x="373" y="473" type="line"/>
    </contour>
    <contour>
      <point x="91" y="756" type="line"/>
      <point x="70" y="756" type="line"/>
      <point x="70" y="473" type="line"/>
      <point x="70" y="348" type="line"/>
      <point x="91" y="348" type="line"/>
      <point x="91" y="473" type="line"/>
    </contour>
    <contour>
      <point x="86" y="565" type="line"/>
      <point x="86" y="545" type="line"/>
      <point x="217" y="546" type="line"/>
      <point x="358" y="545" type="line"/>
      <point x="358" y="565" type="line"/>
      <point x="220" y="565" type="line"/>
    </contour>
  </outline>
</glyph>
<glyph name="Iota.sups" format="2">
  <advance width="161"/>
  <anchor x="91" y="348" name="ogonek"/>
  <anchor x="81" y="756" name="top"/>
  <anchor x="3" y="756" name="topleft"/>
  <outline>
    <contour>
      <point x="91" y="756" type="line"/>
      <point x="70" y="756" type="line"/>
      <point x="71" y="473" type="line"/>
      <point x="70" y="348" type="line"/>
      <point x="91" y="348" type="line"/>
      <point x="91" y="473" type="line"/>
    </contour>
  </outline>
</glyph>
<glyph name="Kappa.sups" format="2">
  <advance width="340"/>
  <anchor x="182" y="348" name="bottom"/>
  <anchor x="314" y="344" name="bottomright"/>
  <anchor x="170" y="756" name="top"/>
  <outline>
    <contour>
      <point x="324" y="756" type="line"/>
      <point x="296" y="756" type="line"/>
      <point x="268" y="725" type="line"/>
      <point x="108" y="566" type="line"/>
      <point x="108" y="564" type="line"/>
      <point x="172" y="488"/>
      <point x="243" y="414"/>
      <point x="314" y="344" type="curve"/>
      <point x="317" y="343" type="line"/>
      <point x="323" y="345"/>
      <point x="330" y="346"/>
      <point x="335" y="350" type="curve"/>
      <point x="335" y="353" type="line"/>
      <point x="265" y="419"/>
      <point x="195" y="493"/>
      <point x="133" y="566" type="curve"/>
    </contour>
    <contour>
      <point x="91" y="756" type="line"/>
      <point x="70" y="756" type="line"/>
      <point x="70" y="473" type="line"/>
      <point x="70" y="348" type="line"/>
      <point x="91" y="348" type="line"/>
      <point x="91" y="473" type="line"/>
    </contour>
  </outline>
</glyph>
<glyph name="L.ss01.BRACKET.80" format="2">
  <advance width="456"/>
  <anchor x="228" y="0" name="bottom"/>
  <anchor x="228" y="319" name="center"/>
  <anchor x="228" y="637" name="top"/>
  <anchor x="436" y="637" name="topright"/>
  <outline>
    <contour>
      <point x="-40" y="0" type="line"/>
      <point x="496" y="0" type="line"/>
      <point x="496" y="20" type="line"/>
      <point x="-40" y="20" type="line"/>
    </contour>
    <contour>
      <point x="-40" y="617" type="line"/>
      <point x="496" y="617" type="line"/>
      <point x="496" y="637" type="line"/>
      <point x="-40" y="637" type="line"/>
    </contour>
    <contour>
      <point x="151" y="637" type="line"/>
      <point x="131" y="637" type="line"/>
      <point x="131" y="195" type="line"/>
      <point x="131" y="0" type="line"/>
      <point x="151" y="0" type="line"/>
      <point x="151" y="195" type="line"/>
    </contour>
    <contour>
      <point x="401" y="130" type="line"/>
      <point x="401" y="20" type="line"/>
      <point x="142" y="20" type="line"/>
      <point x="142" y="0" type="line"/>
      <point x="421" y="0" type="line"/>
      <point x="421" y="130" type="line"/>
    </contour>
  </outline>
</glyph>
<glyph name="Mu.sups" format="2">
  <advance width="516"/>
  <anchor x="259" y="348" name="bottom"/>
  <anchor x="259" y="756" name="top"/>
  <outline>
    <contour>
      <point x="424" y="756" type="line"/>
      <point x="400" y="756" type="line"/>
      <point x="376" y="699" type="line"/>
      <point x="258" y="428" type="line"/>
      <point x="255" y="428" type="line"/>
      <point x="144" y="693" type="line"/>
      <point x="118" y="756" type="line"/>
      <point x="94" y="756" type="line"/>
      <point x="48" y="348" type="line"/>
      <point x="68" y="348" type="line"/>
      <point x="82" y="474" type="line"/>
      <point x="109" y="714" type="line"/>
      <point x="112" y="714" type="line"/>
      <point x="246" y="399" type="line"/>
      <point x="267" y="399" type="line"/>
      <point x="404" y="714" type="line"/>
      <point x="408" y="714" type="line"/>
      <point x="435" y="473" type="line"/>
      <point x="448" y="348" type="line"/>
      <point x="468" y="348" type="line"/>
    </contour>
  </outline>
</glyph>
<glyph name="Nu.sups" format="2">
  <advance width="443"/>
  <anchor x="218" y="348" name="bottom"/>
  <anchor x="219" y="756" name="top"/>
  <outline>
    <contour>
      <point x="373" y="757" type="line"/>
      <point x="353" y="755" type="line"/>
      <point x="352" y="387" type="line"/>
      <point x="349" y="387" type="line"/>
      <point x="92" y="756" type="line"/>
      <point x="71" y="756" type="line"/>
      <point x="70" y="470" type="line"/>
      <point x="70" y="348" type="line"/>
      <point x="90" y="348" type="line"/>
      <point x="90" y="477" type="line"/>
      <point x="91" y="717" type="line"/>
      <point x="94" y="717" type="line"/>
      <point x="350" y="348" type="line"/>
      <point x="372" y="348" type="line"/>
      <point x="372" y="462" type="line"/>
    </contour>
  </outline>
</glyph>
<glyph name="Oslash.BRACKET.100" format="2">
  <advance width="627"/>
  <anchor x="314" y="0" name="bottom"/>
  <anchor x="314" y="319" name="center"/>
  <anchor x="425" y="20" name="ogonek"/>
  <anchor x="314" y="637" name="top"/>
  <anchor x="20" y="637" name="topleft"/>
  <anchor x="607" y="637" name="topright"/>
  <outline>
    <contour>
      <point x="183" y="34" type="line"/>
      <point x="166" y="44" type="line"/>
      <point x="103" y="-90" type="line"/>
      <point x="105" y="-94" type="line"/>
      <point x="121" y="-97" type="line"/>
    </contour>
    <contour>
      <point x="433" y="606" type="line"/>
      <point x="452" y="599" type="line"/>
      <point x="507" y="715" type="line"/>
      <point x="505" y="720" type="line"/>
      <point x="489" y="723" type="line"/>
    </contour>
    <contour>
      <point x="318" y="642" type="curve"/>
      <point x="144" y="642"/>
      <point x="48" y="526"/>
      <point x="48" y="317" type="curve" smooth="yes"/>
      <point x="48" y="110"/>
      <point x="141" y="-5"/>
      <point x="308" y="-5" type="curve" smooth="yes"/>
      <point x="482" y="-5"/>
      <point x="579" y="114"/>
      <point x="579" y="329" type="curve" smooth="yes"/>
      <point x="579" y="530"/>
      <point x="486" y="642"/>
    </contour>
    <contour>
      <point x="318" y="622" type="curve" smooth="yes"/>
      <point x="473" y="622"/>
      <point x="559" y="517"/>
      <point x="559" y="329" type="curve" smooth="yes"/>
      <point x="559" y="127"/>
      <point x="469" y="15"/>
      <point x="308" y="15" type="curve" smooth="yes"/>
      <point x="154" y="15"/>
      <point x="68" y="123"/>
      <point x="68" y="317" type="curve" smooth="yes"/>
      <point x="68" y="513"/>
      <point x="157" y="622"/>
    </contour>
  </outline>
</glyph>
<glyph name="Phi.sups" format="2">
  <advance width="473"/>
  <outline>
    <contour>
      <point x="233" y="389" type="curve" smooth="yes"/>
      <point x="363" y="389"/>
      <point x="438" y="446"/>
      <point x="438" y="557" type="curve" smooth="yes"/>
      <point x="438" y="663"/>
      <point x="370" y="714"/>
      <point x="240" y="714" type="curve" smooth="yes"/>
      <point x="108" y="714"/>
      <point x="35" y="660"/>
      <point x="35" y="551" type="curve" smooth="yes"/>
      <point x="35" y="443"/>
      <point x="106" y="389"/>
    </contour>
    <contour>
      <point x="233" y="407" type="curve" smooth="yes"/>
      <point x="119" y="407"/>
      <point x="56" y="455"/>
      <point x="56" y="550" type="curve" smooth="yes"/>
      <point x="56" y="648"/>
      <point x="121" y="696"/>
      <point x="240" y="696" type="curve" smooth="yes"/>
      <point x="357" y="696"/>
      <point x="417" y="651"/>
      <point x="417" y="556" type="curve" smooth="yes"/>
      <point x="417" y="458"/>
      <point x="350" y="407"/>
    </contour>
    <contour>
      <point x="226" y="339" type="line"/>
      <point x="247" y="339" type="line"/>
      <point x="247" y="473" type="line"/>
      <point x="247" y="765" type="line"/>
      <point x="226" y="765" type="line"/>
      <point x="227" y="472" type="line"/>
    </contour>
  </outline>
</glyph>
<glyph name="Pi.sups" format="2">
  <advance width="405"/>
  <anchor x="314" y="348" name="bottomright"/>
  <outline>
    <contour>
      <point x="314" y="348" type="line"/>
      <point x="335" y="348" type="line"/>
      <point x="335" y="473" type="line"/>
      <point x="335" y="756" type="line"/>
      <point x="314" y="756" type="line"/>
      <point x="314" y="473" type="line"/>
    </contour>
    <contour>
      <point x="70" y="348" type="line"/>
      <point x="91" y="348" type="line"/>
      <point x="91" y="473" type="line"/>
      <point x="91" y="756" type="line"/>
      <point x="70" y="756" type="line"/>
      <point x="70" y="473" type="line"/>
    </contour>
    <contour>
      <point x="86" y="737" type="line"/>
      <point x="321" y="737" type="line"/>
      <point x="321" y="756" type="line"/>
      <point x="86" y="756" type="line"/>
    </contour>
  </outline>
</glyph>
<glyph name="Upsilon.sups" format="2">
  <advance width="331"/>
  <anchor x="160" y="465" name="center"/>
  <anchor x="166" y="756" name="top"/>
  <anchor x="-35" y="756" name="topleft"/>
  <outline>
    <contour>
      <point x="314" y="756" type="line"/>
      <point x="289" y="756" type="line"/>
      <point x="282" y="738" type="line"/>
      <point x="162" y="531" type="line"/>
      <point x="158" y="531" type="line"/>
      <point x="49" y="738" type="line"/>
      <point x="41" y="756" type="line"/>
      <point x="16" y="756" type="line"/>
      <point x="156" y="491" type="line"/>
      <point x="163" y="491" type="line"/>
    </contour>
    <contour>
      <point x="170" y="520" type="line"/>
      <point x="149" y="520" type="line"/>
      <point x="150" y="472" type="line"/>
      <point x="149" y="348" type="line"/>
      <point x="170" y="348" type="line"/>
      <point x="170" y="472" type="line"/>
    </contour>
  </outline>
</glyph>
<glyph name="Xi.sups" format="2">
  <advance width="362"/>
  <outline>
    <contour>
      <point x="51" y="348" type="line"/>
      <point x="312" y="348" type="line"/>
      <point x="315" y="366" type="line"/>
      <point x="312" y="370" type="line"/>
      <point x="177" y="369" type="line"/>
      <point x="50" y="370" type="line"/>
      <point x="48" y="366" type="line"/>
    </contour>
    <contour>
      <point x="77" y="548" type="line"/>
      <point x="170" y="549" type="line"/>
      <point x="282" y="548" type="line"/>
      <point x="285" y="567" type="line"/>
      <point x="283" y="570" type="line"/>
      <point x="178" y="569" type="line"/>
      <point x="77" y="570" type="line"/>
      <point x="74" y="551" type="line"/>
    </contour>
    <contour>
      <point x="53" y="735" type="line"/>
      <point x="175" y="735" type="line"/>
      <point x="310" y="735" type="line"/>
      <point x="313" y="753" type="line"/>
      <point x="311" y="756" type="line"/>
      <point x="54" y="756" type="line"/>
      <point x="50" y="738" type="line"/>
    </contour>
  </outline>
</glyph>
<glyph name="Z.001" format="2">
  <advance width="483"/>
  <anchor x="242" y="0" name="bottom"/>
  <anchor x="242" y="637" name="top"/>
  <outline>
    <contour>
      <point x="436" y="638" type="line"/>
      <point x="401" y="637" type="line"/>
      <point x="115" y="637" type="line"/>
      <point x="53" y="638" type="line"/>
      <point x="50" y="621" type="line"/>
      <point x="54" y="616" type="line"/>
      <point x="109" y="617" type="line"/>
      <point x="409" y="617" type="line"/>
      <point x="32" y="17" type="line"/>
      <point x="32" y="-1" type="line"/>
      <point x="67" y="0" type="line"/>
      <point x="366" y="0" type="line"/>
      <point x="435" y="0" type="line"/>
      <point x="438" y="16" type="line"/>
      <point x="434" y="21" type="line"/>
      <point x="370" y="20" type="line"/>
      <point x="59" y="20" type="line"/>
      <point x="436" y="620" type="line"/>
    </contour>
  </outline>
</glyph>
<glyph name="Ze-cy.001" format="2">
  <advance width="463"/>
  <anchor x="217" y="0" name="bottom"/>
  <anchor x="231" y="637" name="top"/>
  <outline>
    <contour>
      <point x="204" y="-7" type="curve" smooth="yes"/>
      <point x="310" y="-7"/>
      <point x="388" y="68"/>
      <point x="388" y="176" type="curve" smooth="yes"/>
      <point x="388" y="268"/>
      <point x="332" y="327"/>
      <point x="241" y="339" type="curve"/>
      <point x="241" y="326" type="line"/>
      <point x="311" y="350"/>
      <point x="354" y="422"/>
      <point x="354" y="498" type="curve" smooth="yes"/>
      <point x="354" y="583"/>
      <point x="296" y="641"/>
      <point x="211" y="641" type="curve" smooth="yes"/>
      <point x="158" y="641"/>
      <point x="103" y="618"/>
      <point x="57" y="576" type="curve"/>
      <point x="56" y="558" type="line"/>
      <point x="63" y="557" type="line"/>
      <point x="101" y="596"/>
      <point x="153" y="620"/>
      <point x="208" y="620" type="curve" smooth="yes"/>
      <point x="283" y="620"/>
      <point x="333" y="573"/>
      <point x="333" y="496" type="curve" smooth="yes"/>
      <point x="333" y="426"/>
      <point x="293" y="364"/>
      <point x="236" y="342" type="curve"/>
      <point x="128" y="342" type="line"/>
      <point x="127" y="326" type="line"/>
      <point x="131" y="322" type="line"/>
      <point x="236" y="322" type="line"/>
      <point x="318" y="310"/>
      <point x="368" y="255"/>
      <point x="368" y="174" type="curve" smooth="yes"/>
      <point x="368" y="79"/>
      <point x="298" y="13"/>
      <point x="203" y="13" type="curve" smooth="yes"/>
      <point x="151" y="13"/>
      <point x="101" y="34"/>
      <point x="67" y="71" type="curve"/>
      <point x="63" y="70" type="line"/>
      <point x="56" y="55" type="line"/>
      <point x="92" y="16"/>
      <point x="146" y="-7"/>
    </contour>
  </outline>
</glyph>
<glyph name="acutecomb.case" format="2">
  <anchor x="174" y="452" name="_top"/>
  <anchor x="173" y="549" name="top"/>
  <outline>
    <contour>
      <point x="278" y="651" type="line"/>
      <point x="212" y="612"/>
      <point x="156" y="583"/>
      <point x="102" y="557" type="curve"/>
      <point x="109" y="542" type="line"/>
      <point x="114" y="539" type="line"/>
      <point x="173" y="569"/>
      <point x="229" y="598"/>
      <point x="288" y="632" type="curve"/>
      <point x="290" y="637" type="line"/>
      <point x="283" y="649" type="line"/>
    </contour>
  </outline>
</glyph>
<glyph name="ampersand.sc.BRACKET.100" format="2">
  <advance width="692"/>
  <outline>
    <contour>
      <point x="630" y="711" type="curve"/>
      <point x="626" y="711" type="line"/>
      <point x="532" y="501"/>
      <point x="308" y="309"/>
      <point x="71" y="231" type="curve"/>
      <point x="78" y="212" type="line"/>
      <point x="316" y="289"/>
      <point x="539" y="479"/>
      <point x="638" y="691" type="curve"/>
      <point x="636" y="699"/>
      <point x="634" y="704"/>
    </contour>
    <contour>
      <point x="236" y="495" type="curve" smooth="yes"/>
      <point x="139" y="495"/>
      <point x="59" y="403"/>
      <point x="59" y="246" type="curve" smooth="yes"/>
      <point x="59" y="85"/>
      <point x="143" y="-10"/>
      <point x="290" y="-10" type="curve" smooth="yes"/>
      <point x="450" y="-10"/>
      <point x="539" y="99"/>
      <point x="555" y="298" type="curve"/>
      <point x="539" y="298" type="line"/>
      <point x="534" y="294" type="line"/>
      <point x="520" y="107"/>
      <point x="434" y="11"/>
      <point x="290" y="11" type="curve" smooth="yes"/>
      <point x="154" y="11"/>
      <point x="79" y="96"/>
      <point x="79" y="246" type="curve" smooth="yes"/>
      <point x="79" y="389"/>
      <point x="148" y="475"/>
      <point x="236" y="475" type="curve" smooth="yes"/>
      <point x="279" y="475"/>
      <point x="311" y="455"/>
      <point x="315" y="416" type="curve" smooth="yes"/>
      <point x="317" y="395"/>
      <point x="313" y="354"/>
      <point x="259" y="317" type="curve"/>
      <point x="299" y="335" type="line"/>
      <point x="327" y="360"/>
      <point x="336" y="392"/>
      <point x="336" y="414" type="curve" smooth="yes"/>
      <point x="336" y="462"/>
      <point x="294" y="495"/>
    </contour>
    <contour>
      <point x="714" y="298" type="line"/>
      <point x="539" y="298" type="line"/>
      <point x="539" y="278" type="line"/>
      <point x="713" y="278" type="line"/>
      <point x="717" y="294" type="line"/>
    </contour>
  </outline>
</glyph>
<glyph name="areas" format="2">
  <advance width="243"/>
  <outline>
    <contour>
      <point x="46.75" y="521.8" type="line"/>
      <point x="46.75" y="-69.8" type="line"/>
      <point x="46.75" y="-69.8" type="line"/>
      <point x="182" y="-65" type="line"/>
      <point x="177" y="-60" type="line"/>
      <point x="172" y="-55" type="line"/>
      <point x="167" y="-50" type="line"/>
      <point x="162" y="-45" type="line"/>
      <point x="157" y="-40" type="line"/>
      <point x="152" y="-35" type="line"/>
      <point x="147" y="-30" type="line"/>
      <point x="142" y="-25" type="line"/>
      <point x="137" y="-20" type="line"/>
      <point x="132" y="-15" type="line"/>
      <point x="127" y="-10" type="line"/>
      <point x="122" y="-5" type="line"/>
      <point x="117" y="0" type="line"/>
      <point x="117" y="5" type="line"/>
      <point x="117" y="10" type="line"/>
      <point x="117" y="15" type="line"/>
      <point x="117" y="20" type="line"/>
      <point x="117" y="25" type="line"/>
      <point x="117" y="30" type="line"/>
      <point x="117" y="35" type="line"/>
      <point x="117" y="40" type="line"/>
      <point x="117" y="45" type="line"/>
      <point x="117" y="50" type="line"/>
      <point x="117" y="55" type="line"/>
      <point x="117" y="60" type="line"/>
      <point x="117" y="65" type="line"/>
      <point x="117" y="70" type="line"/>
      <point x="117" y="75" type="line"/>
      <point x="117" y="80" type="line"/>
      <point x="117" y="85" type="line"/>
      <point x="117" y="90" type="line"/>
      <point x="117" y="95" type="line"/>
      <point x="117" y="100" type="line"/>
      <point x="117" y="105" type="line"/>
      <point x="117" y="110" type="line"/>
      <point x="117" y="115" type="line"/>
      <point x="117" y="120" type="line"/>
      <point x="117" y="125" type="line"/>
      <point x="117" y="130" type="line"/>
      <point x="117" y="135" type="line"/>
      <point x="117" y="140" type="line"/>
      <point x="117" y="145" type="line"/>
      <point x="117" y="150" type="line"/>
      <point x="117" y="155" type="line"/>
      <point x="117" y="160" type="line"/>
      <point x="117" y="165" type="line"/>
      <point x="117" y="170" type="line"/>
      <point x="117" y="175" type="line"/>
      <point x="117" y="180" type="line"/>
      <point x="117" y="185" type="line"/>
      <point x="117" y="190" type="line"/>
      <point x="117" y="195" type="line"/>
      <point x="117" y="200" type="line"/>
      <point x="117" y="205" type="line"/>
      <point x="117" y="210" type="line"/>
      <point x="117" y="215" type="line"/>
      <point x="117" y="220" type="line"/>
      <point x="117" y="225" type="line"/>
      <point x="117" y="230" type="line"/>
      <point x="117" y="235" type="line"/>
      <point x="117" y="240" type="line"/>
      <point x="117" y="245" type="line"/>
      <point x="117" y="250" type="line"/>
      <point x="117" y="255" type="line"/>
      <point x="117" y="260" type="line"/>
      <point x="117" y="265" type="line"/>
      <point x="117" y="270" type="line"/>
      <point x="117" y="275" type="line"/>
      <point x="117" y="280" type="line"/>
      <point x="117" y="285" type="line"/>
      <point x="117" y="290" type="line"/>
      <point x="117" y="295" type="line"/>
      <point x="117" y="300" type="line"/>
      <point x="117" y="305" type="line"/>
      <point x="117" y="310" type="line"/>
      <point x="117" y="315" type="line"/>
      <point x="117" y="320" type="line"/>
      <point x="117" y="325" type="line"/>
      <point x="117" y="330" type="line"/>
      <point x="117" y="335" type="line"/>
      <point x="117" y="340" type="line"/>
      <point x="117" y="345" type="line"/>
      <point x="117" y="350" type="line"/>
      <point x="117" y="355" type="line"/>
      <point x="117" y="360" type="line"/>
      <point x="117" y="365" type="line"/>
      <point x="112" y="370" type="line"/>
      <point x="107" y="375" type="line"/>
      <point x="102" y="380" type="line"/>
      <point x="97" y="385" type="line"/>
      <point x="92" y="390" type="line"/>
      <point x="87" y="395" type="line"/>
      <point x="82" y="400" type="line"/>
      <point x="77" y="405" type="line"/>
      <point x="72" y="410" type="line"/>
      <point x="67" y="415" type="line"/>
      <point x="62" y="420" type="line"/>
      <point x="57" y="425" type="line"/>
      <point x="52" y="430" type="line"/>
      <point x="47" y="435" type="line"/>
      <point x="46.75" y="440" type="line"/>
      <point x="47.688" y="445" type="line"/>
      <point x="48.625" y="450" type="line"/>
      <point x="53.625" y="455" type="line"/>
      <point x="58.625" y="460" type="line"/>
      <point x="63.625" y="465" type="line"/>
      <point x="68.625" y="470" type="line"/>
      <point x="73.625" y="475" type="line"/>
      <point x="78.625" y="480" type="line"/>
      <point x="83.625" y="485" type="line"/>
      <point x="88.625" y="490" type="line"/>
      <point x="93.625" y="495" type="line"/>
      <point x="98.625" y="500" type="line"/>
      <point x="103.625" y="505" type="line"/>
      <point x="108.625" y="510" type="line"/>
      <point x="113.625" y="515" type="line"/>
      <point x="117" y="520" type="line"/>
    </contour>
    <contour>
      <point x="137" y="521.8" type="line"/>
      <point x="137" y="-69.8" type="line"/>
      <point x="137" y="-69.8" type="line"/>
      <point x="72" y="-65" type="line"/>
      <point x="77" y="-60" type="line"/>
      <point x="82" y="-55" type="line"/>
      <point x="87" y="-50" type="line"/>
      <point x="92" y="-45" type="line"/>
      <point x="97" y="-40" type="line"/>
      <point x="102" y="-35" type="line"/>
      <point x="107" y="-30" type="line"/>
      <point x="112" y="-25" type="line"/>
      <point x="117" y="-20" type="line"/>
      <point x="122" y="-15" type="line"/>
      <point x="127" y="-10" type="line"/>
      <point x="132" y="-5" type="line"/>
      <point x="137" y="0" type="line"/>
      <point x="137" y="5" type="line"/>
      <point x="137" y="10" type="line"/>
      <point x="137" y="15" type="line"/>
      <point x="137" y="20" type="line"/>
      <point x="137" y="25" type="line"/>
      <point x="137" y="30" type="line"/>
      <point x="137" y="35" type="line"/>
      <point x="137" y="40" type="line"/>
      <point x="137" y="45" type="line"/>
      <point x="137" y="50" type="line"/>
      <point x="137" y="55" type="line"/>
      <point x="137" y="60" type="line"/>
      <point x="137" y="65" type="line"/>
      <point x="137" y="70" type="line"/>
      <point x="137" y="75" type="line"/>
      <point x="137" y="80" type="line"/>
      <point x="137" y="85" type="line"/>
      <point x="137" y="90" type="line"/>
      <point x="137" y="95" type="line"/>
      <point x="137" y="100" type="line"/>
      <point x="137" y="105" type="line"/>
      <point x="137" y="110" type="line"/>
      <point x="137" y="115" type="line"/>
      <point x="137" y="120" type="line"/>
      <point x="137" y="125" type="line"/>
      <point x="137" y="130" type="line"/>
      <point x="137" y="135" type="line"/>
      <point x="137" y="140" type="line"/>
      <point x="137" y="145" type="line"/>
      <point x="137" y="150" type="line"/>
      <point x="137" y="155" type="line"/>
      <point x="137" y="160" type="line"/>
      <point x="137" y="165" type="line"/>
      <point x="137" y="170" type="line"/>
      <point x="137" y="175" type="line"/>
      <point x="137" y="180" type="line"/>
      <point x="137" y="185" type="line"/>
      <point x="137" y="190" type="line"/>
      <point x="137" y="195" type="line"/>
      <point x="137" y="200" type="line"/>
      <point x="137" y="205" type="line"/>
      <point x="137" y="210" type="line"/>
      <point x="137" y="215" type="line"/>
      <point x="137" y="220" type="line"/>
      <point x="137" y="225" type="line"/>
      <point x="137" y="230" type="line"/>
      <point x="137" y="235" type="line"/>
      <point x="137" y="240" type="line"/>
      <point x="137" y="245" type="line"/>
      <point x="137" y="250" type="line"/>
      <point x="137" y="255" type="line"/>
      <point x="137" y="260" type="line"/>
      <point x="137" y="265" type="line"/>
      <point x="137" y="270" type="line"/>
      <point x="137" y="275" type="line"/>
      <point x="137" y="280" type="line"/>
      <point x="137" y="285" type="line"/>
      <point x="137" y="290" type="line"/>
      <point x="137" y="295" type="line"/>
      <point x="137" y="300" type="line"/>
      <point x="137" y="305" type="line"/>
      <point x="137" y="310" type="line"/>
      <point x="137" y="315" type="line"/>
      <point x="137" y="320" type="line"/>
      <point x="137" y="325" type="line"/>
      <point x="137" y="330" type="line"/>
      <point x="137" y="335" type="line"/>
      <point x="137" y="340" type="line"/>
      <point x="137" y="345" type="line"/>
      <point x="137" y="350" type="line"/>
      <point x="137" y="355" type="line"/>
      <point x="137" y="360" type="line"/>
      <point x="137" y="365" type="line"/>
      <point x="137" y="370" type="line"/>
      <point x="137" y="375" type="line"/>
      <point x="137" y="380" type="line"/>
      <point x="137" y="385" type="line"/>
      <point x="137" y="390" type="line"/>
      <point x="137" y="395" type="line"/>
      <point x="137" y="400" type="line"/>
      <point x="137" y="405" type="line"/>
      <point x="137" y="410" type="line"/>
      <point x="137" y="415" type="line"/>
      <point x="137" y="420" type="line"/>
      <point x="137" y="425" type="line"/>
      <point x="137" y="430" type="line"/>
      <point x="137" y="435" type="line"/>
      <point x="137" y="440" type="line"/>
      <point x="137" y="445" type="line"/>
      <point x="137" y="450" type="line"/>
      <point x="137" y="455" type="line"/>
      <point x="137" y="460" type="line"/>
      <point x="137" y="465" type="line"/>
      <point x="137" y="470" type="line"/>
      <point x="137" y="475" type="line"/>
      <point x="137" y="480" type="line"/>
      <point x="137" y="485" type="line"/>
      <point x="137" y="490" type="line"/>
      <point x="137" y="495" type="line"/>
      <point x="137" y="500" type="line"/>
      <point x="137" y="505" type="line"/>
      <point x="137" y="510" type="line"/>
      <point x="137" y="515" type="line"/>
      <point x="137" y="520" type="line"/>
    </contour>
  </outline>
</glyph>
<glyph name="brevecomb-cy.case" format="2">
  <anchor x="202" y="452" name="_top"/>
  <outline>
    <contour>
      <point x="304" y="593" type="line"/>
      <point x="297" y="593" type="line"/>
      <point x="283" y="551"/>
      <point x="245" y="528"/>
      <point x="187" y="528" type="curve" smooth="yes"/>
      <point x="129" y="528"/>
      <point x="91" y="551"/>
      <point x="79" y="593" type="curve"/>
      <point x="72" y="593" type="line"/>
      <point x="60" y="583" type="line"/>
      <point x="78" y="535"/>
      <point x="123" y="509"/>
      <point x="187" y="509" type="curve" smooth="yes"/>
      <point x="251" y="509"/>
      <point x="298" y="535"/>
      <point x="316" y="583" type="curve"/>
    </contour>
  </outline>
</glyph>
<glyph name="brevecomb-cy" format="2">
  <anchor x="177" y="452" name="_top"/>
  <outline>
    <contour>
      <point x="280" y="613" type="line"/>
      <point x="274" y="613" type="line"/>
      <point x="261" y="571"/>
      <point x="227" y="548"/>
      <point x="176" y="548" type="curve" smooth="yes"/>
      <point x="124" y="548"/>
      <point x="90" y="571"/>
      <point x="79" y="613" type="curve"/>
      <point x="73" y="613" type="line"/>
      <point x="61" y="603" type="line"/>
      <point x="77" y="555"/>
      <point x="118" y="529"/>
      <point x="176" y="529" type="curve" smooth="yes"/>
      <point x="233" y="529"/>
      <point x="276" y="555"/>
      <point x="292" y="603" type="curve"/>
    </contour>
  </outline>
</glyph>
<glyph name="cent.BRACKET.100" format="2">
  <advance width="384"/>
  <anchor x="232" y="46" name="bottom"/>
  <anchor x="233" y="498" name="top"/>
  <outline>
    <contour>
      <point x="213" y="54" type="line"/>
      <point x="193" y="54" type="line"/>
      <point x="179" y="-110" type="line"/>
      <point x="183" y="-114" type="line"/>
      <point x="198" y="-114" type="line"/>
    </contour>
    <contour>
      <point x="260" y="650" type="line"/>
      <point x="244" y="650" type="line"/>
      <point x="230" y="492" type="line"/>
      <point x="251" y="492" type="line"/>
      <point x="264" y="645" type="line"/>
    </contour>
    <contour>
      <point x="233" y="503" type="curve" smooth="yes"/>
      <point x="126" y="503"/>
      <point x="56" y="411"/>
      <point x="56" y="268" type="curve" smooth="yes"/>
      <point x="56" y="131"/>
      <point x="125" y="41"/>
      <point x="232" y="41" type="curve" smooth="yes"/>
      <point x="281" y="41"/>
      <point x="330" y="59"/>
      <point x="364" y="84" type="curve"/>
      <point x="366" y="102" type="line"/>
      <point x="360" y="104" type="line"/>
      <point x="326" y="78"/>
      <point x="277" y="61"/>
      <point x="233" y="61" type="curve" smooth="yes"/>
      <point x="137" y="61"/>
      <point x="76" y="143"/>
      <point x="76" y="268" type="curve" smooth="yes"/>
      <point x="76" y="399"/>
      <point x="138" y="483"/>
      <point x="233" y="483" type="curve" smooth="yes"/>
      <point x="276" y="483"/>
      <point x="321" y="465"/>
      <point x="349" y="444" type="curve"/>
      <point x="355" y="444" type="line"/>
      <point x="362" y="461" type="line"/>
      <point x="329" y="486"/>
      <point x="279" y="503"/>
    </contour>
  </outline>
</glyph>
<glyph name="colonsign.BRACKET.75" format="2">
  <advance width="467"/>
  <anchor x="261" y="0" name="bottom"/>
  <anchor x="257" y="491" name="top"/>
  <outline>
    <contour>
      <point x="240" y="482" type="line"/>
      <point x="219" y="481" type="line"/>
      <point x="187" y="6" type="line"/>
      <point x="207" y="6" type="line"/>
    </contour>
    <contour>
      <point x="207" y="6" type="line"/>
      <point x="187" y="6" type="line"/>
      <point x="179" y="-122" type="line"/>
      <point x="183" y="-125" type="line"/>
      <point x="198" y="-125" type="line"/>
    </contour>
    <contour>
      <point x="246" y="640" type="line"/>
      <point x="230" y="639" type="line"/>
      <point x="219" y="481" type="line"/>
      <point x="240" y="482" type="line"/>
      <point x="250" y="635" type="line"/>
    </contour>
    <contour>
      <point x="336" y="483" type="line"/>
      <point x="315" y="483" type="line"/>
      <point x="283" y="7" type="line"/>
      <point x="303" y="8" type="line"/>
    </contour>
    <contour>
      <point x="303" y="8" type="line"/>
      <point x="283" y="7" type="line"/>
      <point x="275" y="-120" type="line"/>
      <point x="279" y="-124" type="line"/>
      <point x="294" y="-124" type="line"/>
    </contour>
    <contour>
      <point x="342" y="641" type="line"/>
      <point x="326" y="641" type="line"/>
      <point x="315" y="483" type="line"/>
      <point x="336" y="483" type="line"/>
      <point x="346" y="637" type="line"/>
    </contour>
    <contour>
      <point x="277" y="494" type="curve" smooth="yes"/>
      <point x="136" y="494"/>
      <point x="58" y="404"/>
      <point x="58" y="244" type="curve" smooth="yes"/>
      <point x="58" y="85"/>
      <point x="132" y="-4"/>
      <point x="268" y="-4" type="curve" smooth="yes"/>
      <point x="319" y="-4"/>
      <point x="374" y="14"/>
      <point x="420" y="46" type="curve"/>
      <point x="422" y="64" type="line"/>
      <point x="416" y="66" type="line"/>
      <point x="373" y="34"/>
      <point x="319" y="15"/>
      <point x="267" y="15" type="curve" smooth="yes"/>
      <point x="146" y="15"/>
      <point x="79" y="96"/>
      <point x="79" y="244" type="curve" smooth="yes"/>
      <point x="79" y="393"/>
      <point x="148" y="475"/>
      <point x="277" y="475" type="curve" smooth="yes"/>
      <point x="325" y="475"/>
      <point x="372" y="459"/>
      <point x="409" y="432" type="curve"/>
      <point x="415" y="432" type="line"/>
      <point x="421" y="450" type="line"/>
      <point x="381" y="478"/>
      <point x="328" y="494"/>
    </contour>
  </outline>
</glyph>
<glyph name="descender-cy.case.alt" format="2">
  <advance width="208"/>
  <anchor x="105" y="0" name="_bottom"/>
  <outline>
    <contour>
      <point x="95" y="-135" type="line"/>
      <point x="115" y="-131" type="line"/>
      <point x="115" y="6" type="line"/>
      <point x="95" y="6" type="line"/>
    </contour>
  </outline>
</glyph>
<glyph name="dzhe-cy.sc" format="2">
  <advance width="595"/>
  <outline>
    <contour>
      <point x="449" y="0" type="line"/>
      <point x="469" y="0" type="line"/>
      <point x="469" y="151" type="line"/>
      <point x="470" y="491" type="line"/>
      <point x="449" y="491" type="line"/>
      <point x="449" y="150" type="line"/>
    </contour>
    <contour>
      <point x="125" y="0" type="line"/>
      <point x="146" y="0" type="line"/>
      <point x="145" y="151" type="line"/>
      <point x="146" y="491" type="line"/>
      <point x="125" y="491" type="line"/>
      <point x="125" y="150" type="line"/>
    </contour>
    <contour>
      <point x="140" y="0" type="line"/>
      <point x="457" y="0" type="line"/>
      <point x="457" y="19" type="line"/>
      <point x="140" y="19" type="line"/>
    </contour>
    <component base="descender-cy.alt" xOffset="193"/>
  </outline>
</glyph>
<glyph name="el-cy.sc" format="2">
  <advance width="488"/>
  <outline>
    <contour>
      <point x="30" y="-11" type="line"/>
      <point x="42" y="-6" type="line" smooth="yes"/>
      <point x="118" y="25"/>
      <point x="153" y="123"/>
      <point x="173" y="418" type="curve" smooth="yes"/>
      <point x="178" y="491" type="line"/>
      <point x="158" y="491" type="line"/>
      <point x="153" y="421" type="line" smooth="yes"/>
      <point x="132" y="127"/>
      <point x="103" y="40"/>
      <point x="24" y="7" type="curve"/>
    </contour>
    <contour>
      <point x="355" y="0" type="line"/>
      <point x="375" y="0" type="line"/>
      <point x="375" y="151" type="line"/>
      <point x="375" y="491" type="line"/>
      <point x="355" y="491" type="line"/>
      <point x="355" y="150" type="line"/>
    </contour>
    <contour>
      <point x="164" y="472" type="line"/>
      <point x="364" y="472" type="line"/>
      <point x="364" y="491" type="line"/>
      <point x="158" y="491" type="line"/>
    </contour>
  </outline>
</glyph>
